<svg xmlns="http://www.w3.org/2000/svg" viewBox="0 0 1400 860" width="1400" height="860">
<style>
  text { font-family: 'Helvetica Neue', Helvetica, Arial, 'PingFang SC', 'Microsoft YaHei', 'SimHei', sans-serif; }
  .title { font-size: 20px; font-weight: 700; fill: #111827; }
  .subtitle { font-size: 11px; fill: #6b7280; }
  .section { font-size: 12px; font-weight: 700; }
  .step-head { font-size: 11px; font-weight: 700; }
  .head { font-size: 10px; font-weight: 600; }
  .body { font-size: 9px; fill: #4b5563; }
  .small { font-size: 8px; fill: #9ca3af; }
  .badge { font-size: 9px; font-weight: 600; }
  .center-title { font-size: 11px; font-weight: 700; }
  .center-body { font-size: 9px; fill: #cbd5e1; }
</style>
<defs>
  <marker id="r1" markerWidth="8" markerHeight="6" refX="7" refY="3" orient="auto"><polygon points="0 0, 8 3, 0 6" fill="#9333ea"/></marker>
  <marker id="r2" markerWidth="8" markerHeight="6" refX="7" refY="3" orient="auto"><polygon points="0 0, 8 3, 0 6" fill="#dc2626"/></marker>
  <marker id="r3" markerWidth="8" markerHeight="6" refX="7" refY="3" orient="auto"><polygon points="0 0, 8 3, 0 6" fill="#16a34a"/></marker>
  <marker id="r4" markerWidth="8" markerHeight="6" refX="7" refY="3" orient="auto"><polygon points="0 0, 8 3, 0 6" fill="#2563eb"/></marker>
  <marker id="r5" markerWidth="8" markerHeight="6" refX="7" refY="3" orient="auto"><polygon points="0 0, 8 3, 0 6" fill="#ea580c"/></marker>
</defs>
<rect width="1400" height="860" fill="#fafbfc"/>

<!-- TITLE -->
<text x="700" y="28" text-anchor="middle" class="title">System Architecture · Who Drives What</text>
<text x="700" y="46" text-anchor="middle" class="subtitle">OpenClaw · MEMORY.md Rule Core · Cron调度 · CDP collection · AI决策 · 飞书输出 · 2026-04-28</text>

<!-- ===== LEFT COLUMN: MEMORY.md Rule Core ===== -->
<rect x="40" y="64" width="280" height="774" rx="12" fill="#1e293b" stroke="#334155" stroke-width="2"/>
<rect x="40" y="64" width="280" height="36" rx="12" fill="#1e293b"/>
<text x="180" y="82" text-anchor="middle" class="section" fill="#f8fafc">MEMORY.md Rule Core</text>
<text x="180" y="100" text-anchor="middle" class="small" fill="#94a3b8">Decision core that drives every task</text>

<!-- role -->
<rect x="56" y="118" width="248" height="44" rx="6" fill="#334155"/>
<text x="180" y="134" text-anchor="middle" class="head" fill="#e2e8f0">role：Scenic Area Marketing GM</text>
<text x="180" y="152" text-anchor="middle" class="small" fill="#94a3b8">Li Ya · 📊 Professional/Data-Driven</text>

<!-- update_time -->
<rect x="56" y="172" width="248" height="36" rx="6" fill="#334155"/>
<text x="180" y="188" text-anchor="middle" class="head" fill="#e2e8f0">update_time：2026-04-28</text>

<!-- [feedback] -->
<rect x="56" y="220" width="248" height="90" rx="6" fill="#334155" stroke="#dc2626" stroke-width="1.5"/>
<text x="70" y="238" class="badge" fill="#f87171">[feedback] Rule Feedback</text>
<text x="70" y="258" class="center-body">Feishu card line-break `<br/>` not `\n`</text>
<text x="70" y="274" class="center-body">announce mode→none (6 crons)</text>
<text x="70" y="290" class="center-body">Search rule: competitors only, no guessing</text>
<text x="70" y="306" class="center-body">Weekly report std: Dehua Street linked</text>

<!-- [user] -->
<rect x="56" y="320" width="248" height="72" rx="6" fill="#334155" stroke="#2563eb" stroke-width="1.5"/>
<text x="70" y="338" class="badge" fill="#60a5fa">[user] User Goals</text>
<text x="70" y="358" class="center-body">Annual target: 1.53M visitors · ¥112M</text>
<text x="70" y="374" class="center-body">YTD 525,533（Apr-27）</text>
<text x="70" y="390" class="center-body">Feishu groups/dedicated browser/CDP 18800</text>

<!-- [project] -->
<rect x="56" y="402" width="248" height="54" rx="6" fill="#334155" stroke="#16a34a" stroke-width="1"/>
<text x="70" y="420" class="badge" fill="#4ade80">[project]</text>
<text x="70" y="440" class="center-body">W17 done · Competitors 10/21 · SOP fixed</text>
<text x="70" y="456" class="center-body">14 crons configured · browser-use banned</text>

<!-- [reference] -->
<rect x="56" y="466" width="248" height="54" rx="6" fill="#334155" stroke="#a78bfa" stroke-width="1"/>
<text x="70" y="484" class="badge" fill="#a78bfa">[reference]</text>
<text x="70" y="504" class="center-body">Douyin Cookie / XHS Cookie / CSV path</text>
<text x="70" y="520" class="center-body">历年客流xlsx / 2026每日统计</text>

<!-- Rule-Driven Engine -->
<rect x="56" y="534" width="248" height="44" rx="6" fill="#334155"/>
<text x="180" y="550" text-anchor="middle" class="head" fill="#e2e8f0">Rule-Driven Engine</text>
<text x="180" y="568" text-anchor="middle" class="small" fill="#94a3b8">Cron · SOP · Skills all driven by it</text>

<!-- 驱动箭头组 -->
<line x1="320" y1="130" x2="380" y2="130" stroke="#9333ea" stroke-width="3" marker-end="url(#r1)"/>
<text x="350" y="124" text-anchor="middle" class="small" fill="#7c3aed">Drive Cron</text>

<line x1="320" y1="240" x2="380" y2="240" stroke="#9333ea" stroke-width="3" marker-end="url(#r1)"/>
<text x="350" y="234" text-anchor="middle" class="small" fill="#7c3aed">Drive SOP</text>

<line x1="320" y1="350" x2="380" y2="350" stroke="#9333ea" stroke-width="3" marker-end="url(#r1)"/>
<text x="350" y="344" text-anchor="middle" class="small" fill="#7c3aed">Drive Execution</text>

<!-- ===== CENTER COLUMN: 执行引擎 ===== -->
<rect x="390" y="64" width="620" height="774" rx="12" fill="#ffffff" stroke="#e5e7eb" stroke-width="1.5"/>
<rect x="390" y="64" width="620" height="36" rx="12" fill="#f5f3ff"/>
<text x="700" y="82" text-anchor="middle" class="section" fill="#7c3aed">⚙️ Execution Engine · 4 Stages</text>

<!-- Stage 0: Cron调度 -->
<rect x="406" y="114" width="588" height="88" rx="8" fill="#fef3c7" stroke="#f59e0b" stroke-width="2"/>
<rect x="406" y="114" width="588" height="24" rx="8" fill="#fef3c7"/>
<text x="700" y="130" text-anchor="middle" class="step-head" fill="#b45309">Stage 0 · Cron Scheduling Layer (14 Tasks)</text>
<text x="420" y="156" class="body">AM: 10:00 Travel hotspots · 10:30 Douyin index</text>
<text x="420" y="172" class="body">PM: 15:00 Competitor keywords · 15:00 Industry · 18:00 Competitor content</text>
<text x="420" y="188" class="body">Night: 21:00 Viral analysis · 22:00 Daily review</text>
<text x="700" y="188" text-anchor="middle" class="small">Mon 09:00 Weekly passenger flow report</text>

<!-- Arrow down -->
<line x1="700" y1="202" x2="700" y2="230" stroke="#ea580c" stroke-width="2" marker-end="url(#r5)"/>

<!-- Stage 1: CDP collection -->
<rect x="406" y="234" width="588" height="180" rx="8" fill="#fef2f2" stroke="#dc2626" stroke-width="1.5"/>
<rect x="406" y="234" width="588" height="26" rx="8" fill="#fee2e2"/>
<text x="700" y="252" text-anchor="middle" class="step-head" fill="#dc2626">Stage 1 · CDP 4-Platform Data Collection（Dedicated Chrome Port 18800）</text>

<!-- 4 platforms -->
<rect x="420" y="272" width="130" height="120" rx="6" fill="#ffffff" stroke="#f87171" stroke-width="1"/>
<text x="485" y="288" text-anchor="middle" class="head" fill="#dc2626">抖音关键词</text>
<text x="430" y="308" class="body">Tab4</text>
<text x="430" y="324" class="body">Related keywords TOP10</text>
<text x="430" y="340" class="body">Crowd profile 4 dimensions</text>
<text x="430" y="356" class="body">Synthesis index</text>
<text x="485" y="384" text-anchor="middle" class="small" fill="#b45309">⚠️ Updates in afternoon</text>

<rect x="560" y="272" width="130" height="120" rx="6" fill="#ffffff" stroke="#f87171" stroke-width="1"/>
<text x="625" y="288" text-anchor="middle" class="head" fill="#dc2626">XHS Brand</text>
<text x="570" y="308" class="body">Tab0 Brand</text>
<text x="570" y="324" class="body">Search volume</text>
<text x="570" y="340" class="body">Keywords/Crowd</text>
<text x="625" y="384" text-anchor="middle" class="small" fill="#b45309">⚠️ Both tabs</text>

<rect x="700" y="272" width="130" height="120" rx="6" fill="#ffffff" stroke="#f87171" stroke-width="1"/>
<text x="765" y="288" text-anchor="middle" class="head" fill="#dc2626">XHS Content</text>
<text x="710" y="308" class="body">Tab6探索页</text>
<text x="710" y="324" class="body">Viral notes TOP10</text>
<text x="710" y="340" class="body">Influencer/Content types</text>
<text x="765" y="384" text-anchor="middle" class="small" fill="#16a34a">✅ Direct crawl</text>

<rect x="840" y="272" width="130" height="120" rx="6" fill="#ffffff" stroke="#f87171" stroke-width="1"/>
<text x="905" y="288" text-anchor="middle" class="head" fill="#16a34a">Baidu</text>
<text x="850" y="308" class="body">Tab3</text>
<text x="850" y="324" class="body">Ticket price/Scale</text>
<text x="850" y="340" class="body">Sentiment/Encyclopedia</text>
<text x="905" y="384" text-anchor="middle" class="small" fill="#16a34a">✅ Public access</text>

<!-- Arrow down -->
<line x1="700" y1="414" x2="700" y2="440" stroke="#dc2626" stroke-width="2" marker-end="url(#r2)"/>

<!-- Stage 2: AI analysis -->
<rect x="406" y="444" width="588" height="150" rx="8" fill="#ede9fe" stroke="#9333ea" stroke-width="1.5"/>
<rect x="406" y="444" width="588" height="26" rx="8" fill="#ede9fe"/>
<text x="700" y="462" text-anchor="middle" class="step-head" fill="#7c3aed">Stage 2 · AI Analysis · 7-Module Structuring（MiniMax M2.7）</text>

<rect x="420" y="480" width="128" height="50" rx="5" fill="#f5f3ff" stroke="#9333ea" stroke-width="1"/>
<text x="484" y="494" text-anchor="middle" class="badge" fill="#7c3aed">Core data</text>
<text x="484" y="510" text-anchor="middle" class="body">搜索/Synthesis index</text>
<text x="484" y="524" text-anchor="middle" class="body">Geography/Level</text>

<rect x="558" y="480" width="128" height="50" rx="5" fill="#f5f3ff" stroke="#9333ea" stroke-width="1"/>
<text x="622" y="494" text-anchor="middle" class="badge" fill="#7c3aed">Douyin data</text>
<text x="622" y="510" text-anchor="middle" class="body">Related keywords TOP10</text>
<text x="622" y="524" text-anchor="middle" class="body">Crowd profile 4 dimensions</text>

<rect x="696" y="480" width="128" height="50" rx="5" fill="#f5f3ff" stroke="#9333ea" stroke-width="1"/>
<text x="760" y="494" text-anchor="middle" class="badge" fill="#7c3aed">Xiaohongshu</text>
<text x="760" y="510" text-anchor="middle" class="body">Search volume/热度</text>
<text x="760" y="524" text-anchor="middle" class="body">Viral notes</text>

<rect x="834" y="480" width="128" height="50" rx="5" fill="#f5f3ff" stroke="#9333ea" stroke-width="1"/>
<text x="898" y="494" text-anchor="middle" class="badge" fill="#7c3aed">Content patterns</text>
<text x="898" y="510" text-anchor="middle" class="body">Viral title formula</text>
<text x="898" y="524" text-anchor="middle" class="body">Influencer/Content types</text>

<rect x="420" y="540" width="128" height="44" rx="5" fill="#f5f3ff" stroke="#9333ea" stroke-width="1"/>
<text x="484" y="554" text-anchor="middle" class="badge" fill="#7c3aed">Baidu data</text>
<text x="484" y="570" text-anchor="middle" class="body">Ticket price/Scale/Sentiment/Encyclopedia</text>

<rect x="558" y="540" width="128" height="44" rx="5" fill="#f5f3ff" stroke="#9333ea" stroke-width="1"/>
<text x="622" y="554" text-anchor="middle" class="badge" fill="#7c3aed">Pattern insights</text>
<text x="622" y="570" text-anchor="middle" class="body">Viral logic/Seasonality</text>

<rect x="696" y="540" width="128" height="44" rx="5" fill="#f5f3ff" stroke="#9333ea" stroke-width="1"/>
<text x="760" y="554" text-anchor="middle" class="badge" fill="#7c3aed">Film Town</text>
<text x="760" y="570" text-anchor="middle" class="body">Recommendations/Lessons</text>

<!-- Analysis requirements -->
<rect x="834" y="540" width="128" height="44" rx="5" fill="#fef3c7" stroke="#fcd34d" stroke-width="1"/>
<text x="898" y="554" text-anchor="middle" class="badge" fill="#b45309">Analysis requirements</text>
<text x="898" y="570" text-anchor="middle" class="body">No guessing/No missing</text>

<!-- Arrow down -->
<line x1="700" y1="602" x2="700" y2="626" stroke="#9333ea" stroke-width="2" marker-end="url(#r1)"/>

<!-- Stage 3: 输出 -->
<rect x="406" y="630" width="588" height="190" rx="8" fill="#dcfce7" stroke="#16a34a" stroke-width="1.5"/>
<rect x="406" y="630" width="588" height="26" rx="8" fill="#dcfce7"/>
<text x="700" y="648" text-anchor="middle" class="step-head" fill="#166534">Stage 3 · Wiki Archive + Feishu Push + State Update</text>

<rect x="420" y="666" width="170" height="130" rx="6" fill="#dcfce7" stroke="#16a34a" stroke-width="1.5"/>
<rect x="420" y="666" width="170" height="22" rx="6" fill="#dcfce7"/>
<text x="505" y="680" text-anchor="middle" class="head" fill="#166534">Wiki Archive (mandatory)</text>
<text x="434" y="704" class="body">Path: wiki/competitor-analysis/</text>
<text x="434" y="720" class="body">Content: 7 modules+Crowd profile</text>
<text x="434" y="736" class="body">Fill gaps: Laojunshan/Chongou/Longmen/Haichang</text>
<text x="434" y="752" class="body">Time: Write immediately after analysis</text>
<text x="434" y="768" class="body">vault backup 自动push</text>

<rect x="606" y="666" width="170" height="130" rx="6" fill="#dcfce7" stroke="#16a34a" stroke-width="1.5"/>
<rect x="606" y="666" width="170" height="22" rx="6" fill="#dcfce7"/>
<text x="691" y="680" text-anchor="middle" class="head" fill="#166534">Feishu card push</text>
<text x="620" y="704" class="body">Film Town群 oc_2581</text>
<text x="620" y="720" class="body">Data push group oc_f109</text>
<text x="620" y="736" class="body">Format: schema 2.0</text>
<text x="620" y="752" class="body">≤5 tables/card · `<br/>` line-break</text>
<text x="620" y="768" class="body">DM receipt → Station master</text>

<rect x="792" y="666" width="180" height="130" rx="6" fill="#fef3c7" stroke="#f59e0b" stroke-width="1.5"/>
<rect x="792" y="666" width="180" height="22" rx="6" fill="#fef3c7"/>
<text x="882" y="680" text-anchor="middle" class="head" fill="#b45309">State file update</text>
<text x="806" y="704" class="body">JSON: /tmp/daily_task_state.json</text>
<text x="806" y="720" class="body">next competitor → done</text>
<text x="806" y="736" class="body">Update next competitor</text>
<text x="806" y="752" class="body">last_updated → today's date</text>

<!-- ===== RIGHT COLUMN: 知识层 ===== -->
<rect x="1030" y="64" width="330" height="774" rx="12" fill="#ffffff" stroke="#e5e7eb" stroke-width="1.5"/>
<rect x="1030" y="64" width="330" height="36" rx="12" fill="#f0fdf4"/>
<text x="1195" y="82" text-anchor="middle" class="section" fill="#166534">📚 Knowledge Layer · karpathy-wiki</text>

<rect x="1046" y="114" width="298" height="44" rx="6" fill="#f5f3ff" stroke="#9333ea" stroke-width="1.5"/>
<text x="1195" y="130" text-anchor="middle" class="head" fill="#7c3aed">INGEST → sources → concepts → entities</text>
<text x="1195" y="150" text-anchor="middle" class="small">llmwiki_ingest.py · LINT quality check</text>

<rect x="1046" y="168" width="298" height="90" rx="6" fill="#fef2f2" stroke="#f87171" stroke-width="1"/>
<text x="1195" y="184" text-anchor="middle" class="badge" fill="#dc2626">sources/ Raw data snapshots</text>
<text x="1060" y="204" class="body">Passenger CSV raw files</text>
<text x="1060" y="220" class="body">Douyin index screenshots</text>
<text x="1060" y="236" class="body">Competitor keyword screenshots</text>
<text x="1060" y="252" class="body">Xiaohongshu爆款截图</text>
<text x="1195" y="252" text-anchor="middle" class="small" fill="#b45309">⚠ Periodic refresh</text>

<rect x="1046" y="268" width="298" height="90" rx="6" fill="#f0fdf4" stroke="#4ade80" stroke-width="1"/>
<text x="1195" y="284" text-anchor="middle" class="badge" fill="#16a34a">concepts/ Knowledge concepts</text>
<text x="1060" y="304" class="body">Scenic area type concepts</text>
<text x="1060" y="320" class="body">Emotional marketing model</text>
<text x="1060" y="336" class="body">Conversion funnel structure</text>
<text x="1060" y="352" class="body">Viral content formula</text>
<text x="1195" y="352" text-anchor="middle" class="small" fill="#16a34a">✅ AI decision basis</text>

<rect x="1046" y="368" width="298" height="90" rx="6" fill="#eff6ff" stroke="#60a5fa" stroke-width="1"/>
<text x="1195" y="384" text-anchor="middle" class="badge" fill="#2563eb">entities/ Entity entries (10)</text>
<text x="1060" y="404" class="body">万岁山 · 清明上河园</text>
<text x="1060" y="420" class="body">只有河南 · 银基 · 方特</text>
<text x="1060" y="436" class="body">海昌 · 只有红楼梦</text>
<text x="1060" y="452" class="body">Laojunshan · Chongou · Longmen</text>
<text x="1195" y="452" text-anchor="middle" class="small" fill="#2563eb">✅ Card-style entries</text>

<rect x="1046" y="468" width="298" height="70" rx="6" fill="#f5f3ff" stroke="#a78bfa" stroke-width="1"/>
<text x="1195" y="484" text-anchor="middle" class="badge" fill="#7c3aed">queries/ Decision question base</text>
<text x="1060" y="504" class="body">「穿越德化街上座率下降要不要增场？」</text>
<text x="1060" y="520" class="body">「五一前竞品密集Film Town如何应对？」</text>

<rect x="1046" y="548" width="298" height="90" rx="6" fill="#fef3c7" stroke="#fcd34d" stroke-width="1"/>
<text x="1195" y="564" text-anchor="middle" class="badge" fill="#b45309">SOP system (14)</text>
<text x="1060" y="584" class="body">Douyin index daily · Competitor keyword analysis</text>
<text x="1060" y="600" class="body">Travel hotspots · Competitor content</text>
<text x="1060" y="616" class="body">Viral analysis · Daily review</text>
<text x="1060" y="632" class="body">周度客流 · Xiaohongshu日报</text>

<!-- Historical data &amp; 案例库 -->
<rect x="1046" y="648" width="140" height="80" rx="6" fill="#eff6ff" stroke="#60a5fa" stroke-width="1"/>
<text x="1116" y="664" text-anchor="middle" class="head" fill="#2563eb">Historical data</text>
<text x="1056" y="684" class="body">W17 ✅ 14,392 people</text>
<text x="1056" y="700" class="body">W16期 ✅</text>
<text x="1056" y="716" class="body">W15期 ✅</text>

<rect x="1196" y="648" width="148" height="80" rx="6" fill="#f5f3ff" stroke="#a78bfa" stroke-width="1"/>
<text x="1270" y="664" text-anchor="middle" class="head" fill="#7c3aed">Nationwide scenic case library</text>
<text x="1206" y="684" class="body">wiki/nationwide-scenic/</text>
<text x="1206" y="700" class="body">Viral title patterns</text>
<text x="1206" y="716" class="body">Influencer type analysis</text>

<!-- 竞品档案进度 -->
<rect x="1046" y="738" width="298" height="50" rx="6" fill="#dcfce7" stroke="#16a34a" stroke-width="1.5"/>
<text x="1195" y="754" text-anchor="middle" class="head" fill="#166534">Competitor files done: 10 / 21</text>
<text x="1195" y="778" text-anchor="middle" class="small">Laojunshan/Chongou/Longmen/Haichang filled (simplified)</text>

<!-- MEMORY → 知识层 箭头 -->
<line x1="320" y1="430" x2="380" y2="560" stroke="#9333ea" stroke-width="2" stroke-dasharray="6,4" marker-end="url(#r1)"/>
<text x="350" y="500" class="small" fill="#7c3aed">Write knowledge</text>

<!-- 执行引擎 → 知识层 箭头 -->
<line x1="994" y1="430" x2="1030" y2="430" stroke="#16a34a" stroke-width="2" stroke-dasharray="6,4" marker-end="url(#r3)"/>
<text x="1012" y="424" class="small" fill="#166534">Archive</text>

<!-- 反馈循环 -->
<line x1="700" y1="838" x2="180" y2="838" stroke="#9333ea" stroke-width="2" stroke-dasharray="6,4"/>
<line x1="180" y1="838" x2="180" y2="700" stroke="#9333ea" stroke-width="2"/>
<text x="440" y="848" text-anchor="middle" class="small" fill="#7c3aed">← Feedback loop: Station confirms → MEMORY.md write → Drive next execution</text>

<!-- LEGEND -->
<rect x="40" y="848" width="1320" height="20" rx="4" fill="#f9fafb" stroke="#e5e7eb" stroke-width="1"/>
<text x="56" y="863" class="small">图例：</text>
<rect x="96" y="855" width="12" height="10" rx="2" fill="#1e293b" stroke="#334155" stroke-width="1"/>
<text x="114" y="865" class="small">MEMORY.md Rule Core</text>
<rect x="230" y="855" width="12" height="10" rx="2" fill="#fee2e2" stroke="#dc2626" stroke-width="1"/>
<text x="248" y="865" class="small">CDP collection</text>
<rect x="304" y="855" width="12" height="10" rx="2" fill="#ede9fe" stroke="#9333ea" stroke-width="1"/>
<text x="322" y="865" class="small">AI analysis</text>
<rect x="378" y="855" width="12" height="10" rx="2" fill="#dcfce7" stroke="#16a34a" stroke-width="1"/>
<text x="396" y="865" class="small">Wiki/Feishu output</text>
<rect x="458" y="855" width="12" height="10" rx="2" fill="#fef3c7" stroke="#f59e0b" stroke-width="1"/>
<text x="476" y="865" class="small">State update</text>
<text x="560" y="865" class="small">实线箭头=数据流向 | 虚线=Archive路径 | ← 反馈闭环驱动系统进化</text>
<text x="1200" y="865" class="small" fill="#94a3b8">Fig 12 System Architecture · 2026-04-28 · Li Ya</text>
</svg>