<svg xmlns="http://www.w3.org/2000/svg" viewBox="0 0 1200 800" width="1200" height="800">
<style>
  text { font-family: 'Helvetica Neue', Helvetica, Arial, 'PingFang SC', 'Microsoft YaHei', 'SimHei', sans-serif; }
  .title { font-size: 20px; font-weight: 700; fill: #111827; }
  .subtitle { font-size: 11px; fill: #6b7280; }
  .section { font-size: 12px; font-weight: 700; }
  .step-head { font-size: 11px; font-weight: 700; }
  .head { font-size: 10px; font-weight: 600; }
  .body { font-size: 9px; fill: #4b5563; }
  .small { font-size: 8px; fill: #9ca3af; }
  .badge { font-size: 9px; font-weight: 600; }
</style>
<defs>
  <marker id="h1" markerWidth="8" markerHeight="6" refX="7" refY="3" orient="auto"><polygon points="0 0, 8 3, 0 6" fill="#2563eb"/></marker>
  <marker id="h2" markerWidth="8" markerHeight="6" refX="7" refY="3" orient="auto"><polygon points="0 0, 8 3, 0 6" fill="#16a34a"/></marker>
  <marker id="h3" markerWidth="8" markerHeight="6" refX="7" refY="3" orient="auto"><polygon points="0 0, 8 3, 0 6" fill="#9333ea"/></marker>
</defs>
<rect width="1200" height="800" fill="#fafbfc"/>

<!-- ===== TITLE ===== -->
<text x="600" y="28" text-anchor="middle" class="title">每日定时任务 · 全局架构图</text>
<text x="600" y="46" text-anchor="middle" class="subtitle">14个Cron任务 · 全自动执行 · 飞书推送 · MEMORY.md驱动 · 2026-04-28</text>

<!-- ===== MORNING BLOCK ===== -->
<rect x="40" y="62" width="360" height="240" rx="10" fill="#ffffff" stroke="#e5e7eb" stroke-width="1.5"/>
<rect x="40" y="62" width="360" height="32" rx="10" fill="#eff6ff"/>
<text x="220" y="80" text-anchor="middle" class="section" fill="#1d4ed8">🌅 上午任务（06:00-12:00）</text>

<!-- 10:00 文旅活动热点追踪 -->
<rect x="56" y="108" width="328" height="64" rx="8" fill="#eff6ff" stroke="#2563eb" stroke-width="1.5"/>
<rect x="56" y="108" width="328" height="22" rx="8" fill="#dbeafe"/>
<text x="220" y="124" text-anchor="middle" class="step-head" fill="#1d4ed8">10:00 · 文旅活动热点追踪日报</text>
<text x="70" y="148" class="body">SOP：wiki/SOP/文旅活动热点追踪日报.md</text>
<text x="70" y="164" class="body">推送：数据推送群 oc_f109...</text>

<!-- 10:30 抖音指数日报 -->
<rect x="56" y="186" width="328" height="64" rx="8" fill="#eff6ff" stroke="#2563eb" stroke-width="1.5"/>
<rect x="56" y="186" width="328" height="22" rx="8" fill="#dbeafe"/>
<text x="220" y="202" text-anchor="middle" class="step-head" fill="#1d4ed8">10:30 · 抖音指数日报</text>
<text x="70" y="226" class="body">SOP：wiki/SOP/抖音指数日报.md</text>
<text x="70" y="242" class="body">推送：电影小镇群 oc_2581...</text>

<!-- 14:00 文旅政策与资本 -->
<rect x="56" y="264" width="328" height="28" rx="6" fill="#f0fdf4" stroke="#16a34a" stroke-width="1"/>
<text x="220" y="282" text-anchor="middle" class="body">14:00 · 文旅政策与资本动态</text>

<!-- ===== AFTERNOON BLOCK ===== -->
<rect x="420" y="62" width="360" height="240" rx="10" fill="#ffffff" stroke="#e5e7eb" stroke-width="1.5"/>
<rect x="420" y="62" width="360" height="32" rx="10" fill="#fff7ed"/>
<text x="600" y="80" text-anchor="middle" class="section" fill="#c2410c">☀️ 下午任务（12:00-18:00）</text>

<!-- 15:00 竞品关键词深度分析 -->
<rect x="436" y="108" width="328" height="64" rx="8" fill="#fff7ed" stroke="#ea580c" stroke-width="1.5"/>
<rect x="436" y="108" width="328" height="22" rx="8" fill="#ffedd5"/>
<text x="600" y="124" text-anchor="middle" class="step-head" fill="#c2410c">15:00 · 竞品关键词深度分析</text>
<text x="450" y="148" class="body">SOP：wiki/SOP/竞品关键词深度分析流程.md</text>
<text x="450" y="164" class="body">CDP：四平台采集 · 7模块结构化</text>

<!-- 15:00 行业热点采集 -->
<rect x="436" y="186" width="328" height="28" rx="6" fill="#f0fdf4" stroke="#16a34a" stroke-width="1"/>
<text x="600" y="204" text-anchor="middle" class="body">15:00 · 行业热点采集</text>

<!-- 18:00 竞品内容动态 -->
<rect x="436" y="228" width="328" height="64" rx="8" fill="#fef3c7" stroke="#f59e0b" stroke-width="1.5"/>
<rect x="436" y="228" width="328" height="22" rx="8" fill="#fef3c7"/>
<text x="600" y="244" text-anchor="middle" class="step-head" fill="#b45309">18:00 · 竞品内容动态追踪</text>
<text x="450" y="268" class="body">SOP：wiki/SOP/竞品内容动态.md</text>
<text x="450" y="284" class="body">推送：数据推送群 oc_f109...</text>

<!-- ===== EVENING BLOCK ===== -->
<rect x="800" y="62" width="360" height="240" rx="10" fill="#ffffff" stroke="#e5e7eb" stroke-width="1.5"/>
<rect x="800" y="62" width="360" height="32" rx="10" fill="#f5f3ff"/>
<text x="980" y="80" text-anchor="middle" class="section" fill="#7c3aed">🌙 晚间任务（18:00-23:00）</text>

<!-- 21:00 全国爆款拆解 -->
<rect x="816" y="108" width="328" height="64" rx="8" fill="#f5f3ff" stroke="#9333ea" stroke-width="1.5"/>
<rect x="816" y="108" width="328" height="22" rx="8" fill="#ede9fe"/>
<text x="980" y="124" text-anchor="middle" class="step-head" fill="#7c3aed">21:00 · 全国爆款内容拆解</text>
<text x="830" y="148" class="body">SOP：wiki/SOP/竞品爆款拆解.md</text>
<text x="830" y="164" class="body">范围：全国景区爆款 · 不只竞品</text>

<!-- 22:00 每日复盘整合 -->
<rect x="816" y="186" width="328" height="64" rx="8" fill="#f5f3ff" stroke="#9333ea" stroke-width="1.5"/>
<rect x="816" y="186" width="328" height="22" rx="8" fill="#ede9fe"/>
<text x="980" y="202" text-anchor="middle" class="step-head" fill="#7c3aed">22:00 · 每日复盘整合</text>
<text x="830" y="226" class="body">SOP：wiki/SOP/每日复盘整合.md</text>
<text x="830" y="242" class="body">内容：当日数据汇总+次日重点</text>

<!-- 08:00 抖音指数采集 -->
<rect x="816" y="264" width="328" height="28" rx="6" fill="#eff6ff" stroke="#2563eb" stroke-width="1"/>
<text x="980" y="282" text-anchor="middle" class="body">08:00 · 抖音指数数据采集（内部）</text>

<!-- ===== WEEKLY BLOCK ===== -->
<rect x="40" y="320" width="1120" height="70" rx="10" fill="#ffffff" stroke="#e5e7eb" stroke-width="1.5"/>
<rect x="40" y="320" width="1120" height="28" rx="10" fill="#f0fdf4"/>
<text x="220" y="338" text-anchor="middle" class="section" fill="#166534">📅 周度任务</text>
<text x="60" y="358" class="body">周一 09:00 · 周度客流营收洞察报告（连发3张客流卡片 + 1张穿越德化街深度分析）→ 推送电影小镇群</text>
<text x="600" y="358" text-anchor="middle" class="small">SOP：wiki/SOP/周度客流营收洞察报告.md</text>

<!-- ===== MEMORY-DRIVEN CORE ===== -->
<rect x="40" y="410" width="1120" height="180" rx="12" fill="#1e293b" stroke="#334155" stroke-width="2"/>
<rect x="40" y="410" width="1120" height="32" rx="12" fill="#1e293b"/>
<text x="600" y="430" text-anchor="middle" class="section" fill="#f8fafc">🧠 MEMORY.md · 铁律驱动核心</text>

<!--铁律分类 -->
<rect x="60" y="456" width="240" height="110" rx="8" fill="#334155"/>
<rect x="60" y="456" width="240" height="22" rx="8" fill="#334155"/>
<text x="180" y="470" text-anchor="middle" class="badge" fill="#f87171">[feedback] 铁律反馈</text>
<text x="74" y="494" class="body" fill="#cbd5e1">规则纠错+确认都要记录</text>
<text x="74" y="510" class="body" fill="#cbd5e1">飞书卡片换行用`<br/>`</text>
<text x="74" y="526" class="body" fill="#cbd5e1">announce模式→none</text>
<text x="74" y="542" class="body" fill="#cbd5e1">搜索铁律：竞品词</text>
<text x="74" y="558" class="body" fill="#cbd5e1">禁止猜测数据</text>

<rect x="320" y="456" width="240" height="110" rx="8" fill="#334155"/>
<rect x="320" y="456" width="240" height="22" rx="8" fill="#334155"/>
<text x="440" y="470" text-anchor="middle" class="badge" fill="#60a5fa">[user] 用户信息</text>
<text x="334" y="494" class="body" fill="#cbd5e1">年度客流153万 / 营收1.12亿</text>
<text x="334" y="510" class="body" fill="#cbd5e1">YTD 525,533（04-27）</text>
<text x="334" y="526" class="body" fill="#cbd5e1">飞书群：电影小镇/数据推送</text>
<text x="334" y="542" class="body" fill="#cbd5e1">专属浏览器CDP 18800</text>
<text x="334" y="558" class="body" fill="#cbd5e1">Cookie路径/报表路径</text>

<rect x="580" y="456" width="240" height="110" rx="8" fill="#334155"/>
<rect x="580" y="456" width="240" height="22" rx="8" fill="#334155"/>
<text x="700" y="470" text-anchor="middle" class="badge" fill="#4ade80">[project] 项目状态</text>
<text x="594" y="494" class="body" fill="#cbd5e1">W17完成 · 竞品10/21</text>
<text x="594" y="510" class="body" fill="#cbd5e1">SOP体系全面修复</text>
<text x="594" y="526" class="body" fill="#cbd5e1">Wiki架构重组进行中</text>
<text x="594" y="542" class="body" fill="#cbd5e1">14个Cron全部配置</text>
<text x="594" y="558" class="body" fill="#cbd5e1">browser-use已全面禁止</text>

<rect x="840" y="456" width="300" height="110" rx="8" fill="#334155"/>
<rect x="840" y="456" width="300" height="22" rx="8" fill="#334155"/>
<text x="990" y="470" text-anchor="middle" class="badge" fill="#a78bfa">[reference] 外部系统</text>
<text x="854" y="494" class="body" fill="#cbd5e1">抖音Cookie：/tmp/juLiang_cookies.json</text>
<text x="854" y="510" class="body" fill="#cbd5e1">小红书Cookie：/tmp/xiaohongshu_cookies.json</text>
<text x="854" y="526" class="body" fill="#cbd5e1">抖音订阅页/CDP/小红书灵犀</text>
<text x="854" y="542" class="body" fill="#cbd5e1">历年客流Excel（唯一权威）</text>
<text x="854" y="558" class="body" fill="#cbd5e1">2026游客量统计.csv（每日）</text>

<!-- Arrow: MEMORY → Cron -->
<line x1="600" y1="590" x2="600" y2="614" stroke="#2563eb" stroke-width="2" marker-end="url(#h1)"/>
<text x="615" y="604" class="small" fill="#1d4ed8">铁律驱动Cron执行</text>

<!-- ===== EXECUTION ENGINE ===== -->
<rect x="40" y="620" width="1120" height="168" rx="10" fill="#ffffff" stroke="#e5e7eb" stroke-width="1.5"/>
<rect x="40" y="620" width="1120" height="32" rx="10" fill="#dcfce7"/>
<text x="60" y="638" class="section" fill="#166534">⚙️ 执行引擎 · 标准化输出流程</text>

<!-- 浏览器 -->
<rect x="56" y="668" width="280" height="100" rx="8" fill="#dcfce7" stroke="#16a34a" stroke-width="1.5"/>
<rect x="56" y="668" width="280" height="22" rx="8" fill="#dcfce7"/>
<text x="196" y="682" text-anchor="middle" class="head" fill="#166534">专属浏览器 · CDP Port 18800</text>
<text x="70" y="706" class="body">Tab0：小红书灵犀（brand数据）</text>
<text x="70" y="722" class="body">Tab1：百度 · Tab2：抖音订阅页</text>
<text x="70" y="738" class="body">Tab3：抖音iframe · Tab4：抖音关键词</text>
<text x="70" y="754" class="body">Tab5：抖音iframe · Tab6：小红书探索</text>
<text x="196" y="772" text-anchor="middle" class="small">所有任务统一使用此浏览器</text>

<!-- SOP库 -->
<rect x="356" y="668" width="280" height="100" rx="8" fill="#dcfce7" stroke="#16a34a" stroke-width="1.5"/>
<rect x="356" y="668" width="280" height="22" rx="8" fill="#dcfce7"/>
<text x="496" y="682" text-anchor="middle" class="head" fill="#166534">SOP库 · wiki/SOP/</text>
<text x="370" y="706" class="body">14个SOP全覆盖（日报/周报/cron）</text>
<text x="370" y="722" class="body">抖音指数日报 · 竞品关键词分析</text>
<text x="370" y="738" class="body">文旅热点 · 竞品内容动态</text>
<text x="370" y="754" class="body">爆款拆解 · 每日复盘整合</text>

<!-- 飞书推送 -->
<rect x="656" y="668" width="280" height="100" rx="8" fill="#dcfce7" stroke="#16a34a" stroke-width="1.5"/>
<rect x="656" y="668" width="280" height="22" rx="8" fill="#dcfce7"/>
<text x="796" y="682" text-anchor="middle" class="head" fill="#166534">飞书推送 · 双群配置</text>
<text x="670" y="706" class="body">电影小镇群：oc_2581...（主群）</text>
<text x="670" y="722" class="body">数据推送群：oc_f109...（数据）</text>
<text x="670" y="738" class="body">私信回执：ou_f308d672...</text>
<text x="670" y="754" class="body">格式：schema 2.0 · ≤5表格/卡</text>

<!-- GitHub备份 -->
<rect x="956" y="668" width="184" height="100" rx="8" fill="#dcfce7" stroke="#16a34a" stroke-width="1.5"/>
<rect x="956" y="668" width="184" height="22" rx="8" fill="#dcfce7"/>
<text x="1048" y="682" text-anchor="middle" class="head" fill="#166534">GitHub · vault备份</text>
<text x="970" y="706" class="body">Wiki归档自动推送</text>
<text x="970" y="722" class="body">memory每日记录</text>
<text x="970" y="738" class="body">SOP版本管理</text>
<text x="970" y="754" class="body">图表文件备份</text>
<text x="1048" y="772" text-anchor="middle" class="small" fill="#16a34a">✅ 全自动</text>

<!-- ===== LEGEND ===== -->
<rect x="40" y="798" width="1120" height="20" rx="4" fill="#f9fafb" stroke="#e5e7eb" stroke-width="1"/>
<text x="56" y="813" class="small">图例：</text>
<rect x="96" y="805" width="12" height="10" rx="2" fill="#eff6ff" stroke="#2563eb" stroke-width="1"/>
<text x="114" y="815" class="small">数据采集</text>
<rect x="172" y="805" width="12" height="10" rx="2" fill="#fff7ed" stroke="#ea580c" stroke-width="1"/>
<text x="190" y="815" class="small">竞品分析</text>
<rect x="248" y="805" width="12" height="10" rx="2" fill="#f5f3ff" stroke="#9333ea" stroke-width="1"/>
<text x="266" y="815" class="small">爆款/复盘</text>
<rect x="324" y="805" width="12" height="10" rx="2" fill="#f0fdf4" stroke="#16a34a" stroke-width="1"/>
<text x="342" y="815" class="small">周度任务</text>
<rect x="400" y="805" width="12" height="10" rx="2" fill="#1e293b" stroke="#334155" stroke-width="1"/>
<text x="418" y="815" class="small">MEMORY.md铁律中枢</text>
<text x="540" y="815" class="small">所有Cron delivery.mode=none（不再发announce过程消息）</text>
<text x="1000" y="815" class="small" fill="#94a3b8">图10 每日定时任务全局架构图 · 2026-04-28 · 李涯 佛龛</text>
</svg>