<svg xmlns="http://www.w3.org/2000/svg" viewBox="0 0 1400 1080" width="1400" height="1080">
<style>
  text { font-family: 'Helvetica Neue', Helvetica, Arial, 'PingFang SC', 'Microsoft YaHei', 'Microsoft JhengHei', 'SimHei', sans-serif; }
  .title { font-size: 20px; font-weight: 700; fill: #111827; }
  .subtitle { font-size: 11px; fill: #6b7280; }
  .section { font-size: 13px; font-weight: 700; }
  .layer-head { font-size: 13px; font-weight: 700; }
  .card-title { font-size: 11px; font-weight: 600; }
  .body { font-size: 9px; fill: #4b5563; }
  .small { font-size: 8px; fill: #9ca3af; }
  .badge { font-size: 9px; font-weight: 600; }
  .small-badge { font-size: 8px; font-weight: 600; }
  .row-head { font-size: 10px; font-weight: 600; }
</style>
<defs>
  <marker id="a1" markerWidth="7" markerHeight="5" refX="6" refY="2.5" orient="auto"><polygon points="0 0, 7 2.5, 0 5" fill="#9333ea"/></marker>
</defs>
<rect width="1400" height="1080" fill="#fafbfc"/>

<!-- ===== TITLE ===== -->
<text x="700" y="28" text-anchor="middle" class="title">LLM 知识层架构</text>
<text x="700" y="46" text-anchor="middle" class="subtitle">karpathy-wiki · 四层结构 · INGEST → sources → concepts → entities → queries → QUERY/LINT</text>

<!-- ===== LAYER 1: RAW DATA (left column) ===== -->
<rect x="24" y="62" width="390" height="840" rx="10" fill="#ffffff" stroke="#e5e7eb" stroke-width="1.5"/>
<rect x="24" y="62" width="390" height="30" rx="10" fill="#f8fafc"/>
<rect x="24" y="82" width="390" height="12" fill="#f8fafc"/>
<text x="40" y="80" class="layer-head" fill="#374151">Layer 1 · 原始数据输入</text>

<!-- rows with consistent spacing -->
<rect x="36" y="100" width="366" height="50" rx="6" fill="#eff6ff" stroke="#93c5fd" stroke-width="1"/>
<rect x="36" y="100" width="366" height="16" rx="6" fill="#dbeafe"/>
<text x="219" y="110" text-anchor="middle" class="card-title" fill="#1e40af">客流数据 CSV</text>
<text x="219" y="128" text-anchor="middle" class="body">~/Desktop/2026游客量统计.csv</text>
<text x="219" y="141" text-anchor="middle" class="small">散客 / 渠道拆分 · YTD 累计 · 每日更新</text>

<rect x="36" y="158" width="366" height="50" rx="6" fill="#fef2f2" stroke="#fca5a5" stroke-width="1"/>
<rect x="36" y="158" width="366" height="16" rx="6" fill="#fee2e2"/>
<text x="219" y="168" text-anchor="middle" class="card-title" fill="#dc2626">抖音指数数据</text>
<text x="219" y="186" text-anchor="middle" class="body">Creator Portal · 8景区 · douyin_index_v9.py</text>
<text x="219" y="199" text-anchor="middle" class="small">CDP Port 18800 · Tab4 · 08:00 采集</text>

<rect x="36" y="216" width="366" height="50" rx="6" fill="#fef2f2" stroke="#fca5a5" stroke-width="1"/>
<rect x="36" y="216" width="366" height="16" rx="6" fill="#fee2e2"/>
<text x="219" y="226" text-anchor="middle" class="card-title" fill="#dc2626">竞品关键词 · 四平台</text>
<text x="219" y="244" text-anchor="middle" class="body">抖音 + 小红书灵犀 + 百度 · cdp_keyword_deep.py</text>
<text x="219" y="257" text-anchor="middle" class="small">关联词TOP10 · 人群画像 · 综合指数</text>

<rect x="36" y="274" width="366" height="50" rx="6" fill="#fef2f2" stroke="#fca5a5" stroke-width="1"/>
<rect x="36" y="274" width="366" height="16" rx="6" fill="#fee2e2"/>
<text x="219" y="284" text-anchor="middle" class="card-title" fill="#dc2626">小红书数据</text>
<text x="219" y="302" text-anchor="middle" class="body">灵犀后台 Brand · 探索页笔记</text>
<text x="219" y="315" text-anchor="middle" class="small">idea.xiaohongshu.com · ⚠ JS注入触发</text>

<rect x="36" y="332" width="366" height="50" rx="6" fill="#f0fdf4" stroke="#86efac" stroke-width="1"/>
<rect x="36" y="332" width="366" height="16" rx="6" fill="#dcfce7"/>
<text x="219" y="342" text-anchor="middle" class="card-title" fill="#16a34a">百度百科 / 搜索</text>
<text x="219" y="360" text-anchor="middle" class="body">票价 / 规模 / 媒体报道 / 舆情</text>
<text x="219" y="373" text-anchor="middle" class="small">✅ 公开可访问 · 无需登录</text>

<rect x="36" y="390" width="366" height="50" rx="6" fill="#eff6ff" stroke="#93c5fd" stroke-width="1"/>
<rect x="36" y="390" width="366" height="16" rx="6" fill="#dbeafe"/>
<text x="219" y="400" text-anchor="middle" class="card-title" fill="#1e40af">穿越德化街 · 演出数据</text>
<text x="219" y="418" text-anchor="middle" class="body">场次 / 库存 / 售卖 / 上座率</text>
<text x="219" y="431" text-anchor="middle" class="small">memory/穿越德化街_2026W*.csv · W17 ✅</text>

<rect x="36" y="448" width="366" height="50" rx="6" fill="#f5f3ff" stroke="#c4b5fd" stroke-width="1"/>
<rect x="36" y="448" width="366" height="16" rx="6" fill="#ede9fe"/>
<text x="219" y="458" text-anchor="middle" class="card-title" fill="#7c3aed">竞品爆款案例 · 全国景区库</text>
<text x="219" y="476" text-anchor="middle" class="body">竞品爆款拆解 cron · wiki/全国景区案例库/</text>
<text x="219" y="489" text-anchor="middle" class="small">爆款标题 / 规律 / 博主类型 / 内容类型</text>

<rect x="36" y="506" width="366" height="50" rx="6" fill="#f0fdfa" stroke="#5eead4" stroke-width="1"/>
<rect x="36" y="506" width="366" height="16" rx="6" fill="#ccfbf1"/>
<text x="219" y="516" text-anchor="middle" class="card-title" fill="#0d9488">文旅政策 / 热点 / 行业</text>
<text x="219" y="534" text-anchor="middle" class="body">文旅热点追踪 / 行业热点采集 / 政策文件</text>
<text x="219" y="547" text-anchor="middle" class="small">industry_news_browser.py · MiniMax search</text>

<rect x="36" y="564" width="366" height="50" rx="6" fill="#f0fdfa" stroke="#5eead4" stroke-width="1"/>
<rect x="36" y="564" width="366" height="16" rx="6" fill="#ccfbf1"/>
<text x="219" y="574" text-anchor="middle" class="card-title" fill="#0d9488">MiniMax CLI · 素材生成</text>
<text x="219" y="592" text-anchor="middle" class="body">mmx image / speech / music / search</text>
<text x="219" y="605" text-anchor="middle" class="small">图像50张周 · 语音4000张周 · 视频❌需Max</text>

<rect x="36" y="622" width="366" height="50" rx="6" fill="#fef3c7" stroke="#fcd34d" stroke-width="1"/>
<rect x="36" y="622" width="366" height="16" rx="6" fill="#fef3c7"/>
<text x="219" y="632" text-anchor="middle" class="card-title" fill="#b45309">历年 xlsx / 案例库 / SOP</text>
<text x="219" y="650" text-anchor="middle" class="body">2023-2025门票统计 · 14个SOP · wiki/</text>
<text x="219" y="663" text-anchor="middle" class="small">静态参考数据 · 规范文档 · 知识沉淀</text>

<rect x="36" y="680" width="366" height="50" rx="6" fill="#f8fafc" stroke="#e5e7eb" stroke-width="1"/>
<rect x="36" y="680" width="366" height="16" rx="6" fill="#f1f5f9"/>
<text x="219" y="690" text-anchor="middle" class="card-title" fill="#64748b">穿越德化街 W17 归档</text>
<text x="219" y="708" text-anchor="middle" class="body">14,392人 · 上座率65.3% · 场次12场</text>
<text x="219" y="721" text-anchor="middle" class="small">memory/穿越德化街_2026W17.csv ✅</text>

<rect x="36" y="738" width="366" height="50" rx="6" fill="#f8fafc" stroke="#e5e7eb" stroke-width="1"/>
<rect x="36" y="738" width="366" height="16" rx="6" fill="#f1f5f9"/>
<text x="219" y="748" text-anchor="middle" class="card-title" fill="#64748b">Obsidian Sync / GitHub</text>
<text x="219" y="766" text-anchor="middle" class="body">sync_obsidian_daily.py → knowledge/建业电影小镇</text>
<text x="219" y="779" text-anchor="middle" class="small">vault backup · 每日自动push</text>

<!-- Arrow -->
<line x1="414" y1="430" x2="450" y2="430" stroke="#9333ea" stroke-width="2" marker-end="url(#a1)"/>
<text x="432" y="423" text-anchor="middle" class="small-badge" fill="#7c3aed">INGEST</text>

<!-- ===== LAYER 2: INGEST (narrow column) ===== -->
<rect x="460" y="62" width="190" height="840" rx="10" fill="#ffffff" stroke="#e5e7eb" stroke-width="1.5"/>
<rect x="460" y="62" width="190" height="30" rx="10" fill="#f8fafc"/>
<rect x="460" y="82" width="190" height="12" fill="#f8fafc"/>
<text x="476" y="80" class="layer-head" fill="#374151">Layer 2 · INGEST</text>

<rect x="470" y="100" width="170" height="44" rx="6" fill="#f5f3ff" stroke="#9333ea" stroke-width="1.5"/>
<text x="555" y="114" text-anchor="middle" class="card-title" fill="#7c3aed">llmwiki_ingest.py</text>
<text x="555" y="130" text-anchor="middle" class="body">原始数据 → 结构化文档</text>

<rect x="470" y="152" width="170" height="36" rx="5" fill="#ffffff" stroke="#a78bfa" stroke-width="1"/>
<text x="555" y="165" text-anchor="middle" class="body">数据校验：去重/格式</text>
<text x="555" y="179" text-anchor="middle" class="small">完整性检查</text>

<rect x="470" y="196" width="170" height="36" rx="5" fill="#ffffff" stroke="#a78bfa" stroke-width="1"/>
<text x="555" y="209" text-anchor="middle" class="body">结构化解析</text>
<text x="555" y="223" text-anchor="middle" class="small">表格 / 列表 / 段落</text>

<rect x="470" y="240" width="170" height="36" rx="5" fill="#ffffff" stroke="#a78bfa" stroke-width="1"/>
<text x="555" y="253" text-anchor="middle" class="body">文件分类</text>
<text x="555" y="267" text-anchor="middle" class="small">竞品 / SOP / 案例 / 历史</text>

<!-- → sources/ -->
<rect x="470" y="288" width="170" height="82" rx="5" fill="#fef2f2" stroke="#f87171" stroke-width="1.5"/>
<rect x="470" y="288" width="170" height="16" rx="5" fill="#fee2e2"/>
<text x="555" y="299" text-anchor="middle" class="small-badge" fill="#dc2626">→ sources/</text>
<text x="555" y="318" text-anchor="middle" class="body">原始数据快照</text>
<text x="555" y="332" text-anchor="middle" class="body">保留原始文件</text>
<text x="555" y="346" text-anchor="middle" class="body">不改变数据本身</text>
<text x="555" y="363" text-anchor="middle" class="small-badge" fill="#dc2626">⚠ 定期刷新</text>

<!-- → concepts/ -->
<rect x="470" y="382" width="170" height="82" rx="5" fill="#f0fdf4" stroke="#4ade80" stroke-width="1.5"/>
<rect x="470" y="382" width="170" height="16" rx="5" fill="#dcfce7"/>
<text x="555" y="393" text-anchor="middle" class="small-badge" fill="#16a34a">→ concepts/</text>
<text x="555" y="412" text-anchor="middle" class="body">知识概念提炼</text>
<text x="555" y="426" text-anchor="middle" class="body">从数据中抽象规律</text>
<text x="555" y="440" text-anchor="middle" class="body">景区类型 / 情绪 / 漏斗</text>
<text x="555" y="457" text-anchor="middle" class="small-badge" fill="#16a34a">✅ 知识沉淀</text>

<!-- → entities/ -->
<rect x="470" y="476" width="170" height="82" rx="5" fill="#eff6ff" stroke="#60a5fa" stroke-width="1.5"/>
<rect x="470" y="476" width="170" height="16" rx="5" fill="#dbeafe"/>
<text x="555" y="487" text-anchor="middle" class="small-badge" fill="#2563eb">→ entities/</text>
<text x="555" y="506" text-anchor="middle" class="body">实体词条卡片</text>
<text x="555" y="520" text-anchor="middle" class="body">竞品档案 / 平台 / 景点</text>
<text x="555" y="534" text-anchor="middle" class="body">wiki/竞品分析/*.md</text>
<text x="555" y="551" text-anchor="middle" class="small-badge" fill="#2563eb">✅ 10个已归档</text>

<!-- → queries/ -->
<rect x="470" y="570" width="170" height="44" rx="5" fill="#f5f3ff" stroke="#a78bfa" stroke-width="1"/>
<text x="555" y="584" text-anchor="middle" class="body">→ queries/</text>
<text x="555" y="600" text-anchor="middle" class="small">决策问题沉淀</text>

<!-- LINT -->
<rect x="470" y="622" width="170" height="44" rx="5" fill="#fef3c7" stroke="#fcd34d" stroke-width="1"/>
<text x="555" y="636" text-anchor="middle" class="body">LINT 质量校验</text>
<text x="555" y="652" text-anchor="middle" class="small">llmwiki_lint.py · 漂移检测</text>

<!-- Arrow -->
<line x1="650" y1="430" x2="690" y2="430" stroke="#9333ea" stroke-width="2" marker-end="url(#a1)"/>
<text x="670" y="423" text-anchor="middle" class="small-badge" fill="#7c3aed">归档</text>

<!-- ===== LAYER 3: STRUCTURED (center column, taller) ===== -->
<rect x="700" y="62" width="680" height="840" rx="10" fill="#ffffff" stroke="#e5e7eb" stroke-width="1.5"/>
<rect x="700" y="62" width="680" height="30" rx="10" fill="#f8fafc"/>
<rect x="700" y="82" width="680" height="12" fill="#f8fafc"/>
<text x="716" y="80" class="layer-head" fill="#374151">Layer 3 · 结构化知识层</text>

<!-- sources/ -->
<rect x="712" y="100" width="180" height="100" rx="6" fill="#fef2f2" stroke="#f87171" stroke-width="1.5"/>
<rect x="712" y="100" width="180" height="16" rx="6" fill="#fee2e2"/>
<text x="802" y="111" text-anchor="middle" class="card-title" fill="#dc2626">sources/</text>
<text x="802" y="130" text-anchor="middle" class="body">原始数据快照</text>
<text x="722" y="146" class="body">• 客流 CSV 原始文件</text>
<text x="722" y="160" class="body">• 抖音指数截图</text>
<text x="722" y="174" class="body">• 竞品关键词截图</text>
<text x="722" y="188" class="body">• 小红书爆款截图</text>
<text x="802" y="196" text-anchor="middle" class="small-badge" fill="#b45309">⚠ 需定期刷新</text>

<!-- concepts/ -->
<rect x="908" y="100" width="180" height="100" rx="6" fill="#f0fdf4" stroke="#4ade80" stroke-width="1.5"/>
<rect x="908" y="100" width="180" height="16" rx="6" fill="#dcfce7"/>
<text x="998" y="111" text-anchor="middle" class="card-title" fill="#16a34a">concepts/</text>
<text x="998" y="130" text-anchor="middle" class="body">知识概念</text>
<text x="918" y="146" class="body">• 景区类型概念</text>
<text x="918" y="160" class="body">• 情绪营销模型</text>
<text x="918" y="174" class="body">• 转化漏斗结构</text>
<text x="918" y="188" class="body">• 爆款内容公式</text>
<text x="998" y="196" text-anchor="middle" class="small-badge" fill="#16a34a">✅ AI决策依据</text>

<!-- entities/ -->
<rect x="1104" y="100" width="184" height="100" rx="6" fill="#eff6ff" stroke="#60a5fa" stroke-width="1.5"/>
<rect x="1104" y="100" width="184" height="16" rx="6" fill="#dbeafe"/>
<text x="1196" y="111" text-anchor="middle" class="card-title" fill="#2563eb">entities/</text>
<text x="1196" y="130" text-anchor="middle" class="body">实体词条（10个）</text>
<text x="1114" y="146" class="body">• 万岁山 · 清明上河园</text>
<text x="1114" y="160" class="body">• 只有河南 · 银基 · 方特</text>
<text x="1114" y="174" class="body">• 海昌 · 只有红楼梦</text>
<text x="1114" y="188" class="body">• 老君山 · 重渡沟 · 龙门</text>
<text x="1196" y="196" text-anchor="middle" class="small-badge" fill="#2563eb">✅ 卡片式词条</text>

<!-- queries/ -->
<rect x="712" y="212" width="576" height="60" rx="6" fill="#f5f3ff" stroke="#a78bfa" stroke-width="1.5"/>
<rect x="712" y="212" width="576" height="16" rx="6" fill="#ede9fe"/>
<text x="1000" y="223" text-anchor="middle" class="card-title" fill="#7c3aed">queries/ · 决策问题库</text>
<text x="722" y="242" class="body">• 「穿越德化街上座率下降，要不要增场？」</text>
<text x="722" y="256" class="body">• 「五一前竞品动作密集，电影小镇如何应对？」</text>
<text x="722" y="270" text-anchor="middle" class="body">• 「YTD进度落后，差距在扩大还是缩小？」</text>

<!-- SOP体系 -->
<rect x="712" y="284" width="576" height="60" rx="6" fill="#fef3c7" stroke="#fcd34d" stroke-width="1.5"/>
<rect x="712" y="284" width="576" height="16" rx="6" fill="#fef3c7"/>
<text x="1000" y="295" text-anchor="middle" class="card-title" fill="#b45309">SOP体系 · 规范文档（14个）</text>
<text x="722" y="314" class="body">• 14个专属SOP（抖音指数 / 竞品关键词 / 周度客流 / 小红书 / ...）</text>
<text x="722" y="328" class="body">• cron强制嵌入章节结构（04-27修复） · Wiki归档强制步骤（04-27修复）</text>
<text x="1000" y="340" text-anchor="middle" class="small-badge" fill="#b45309">✅ cron执行标准</text>

<!-- 历史数据 -->
<rect x="712" y="356" width="274" height="60" rx="6" fill="#eff6ff" stroke="#60a5fa" stroke-width="1.5"/>
<rect x="712" y="356" width="274" height="16" rx="6" fill="#dbeafe"/>
<text x="849" y="367" text-anchor="middle" class="card-title" fill="#2563eb">历史数据 · W*期归档</text>
<text x="722" y="387" class="body">• W17期-20260427.md ✅ 14,392人</text>
<text x="722" y="401" class="body">• W16期-20260420.md ✅</text>
<text x="849" y="413" text-anchor="middle" class="small-badge" fill="#2563eb">✅ 周度对比依据</text>

<!-- 案例库 -->
<rect x="1002" y="356" width="286" height="60" rx="6" fill="#f5f3ff" stroke="#a78bfa" stroke-width="1.5"/>
<rect x="1002" y="356" width="286" height="16" rx="6" fill="#ede9fe"/>
<text x="1145" y="367" text-anchor="middle" class="card-title" fill="#7c3aed">全国景区案例库</text>
<text x="1012" y="387" class="body">• wiki/全国景区案例库/</text>
<text x="1012" y="401" class="body">• 爆款标题 / 规律 / 博主类型</text>
<text x="1145" y="413" text-anchor="middle" class="small-badge" fill="#7c3aed">✅ 内容素材库</text>

<!-- 知识图谱 -->
<rect x="712" y="428" width="274" height="60" rx="6" fill="#f0fdfa" stroke="#5eead4" stroke-width="1.5"/>
<rect x="712" y="428" width="274" height="16" rx="6" fill="#ccfbf1"/>
<text x="849" y="439" text-anchor="middle" class="card-title" fill="#0d9488">knowledge/ 知识图谱</text>
<text x="722" y="459" class="body">• 建业电影小镇/ 阶段性数据</text>
<text x="722" y="473" class="body">• concepts/ · entities/ · 关联关系</text>
<text x="849" y="485" text-anchor="middle" class="small-badge" fill="#0d9488">✅ Obsidian同步</text>

<!-- LLM Wiki Engine -->
<rect x="1002" y="428" width="286" height="60" rx="6" fill="#f5f3ff" stroke="#c4b5fd" stroke-width="1.5"/>
<rect x="1002" y="428" width="286" height="16" rx="6" fill="#ede9fe"/>
<text x="1145" y="439" text-anchor="middle" class="card-title" fill="#7c3aed">LLM Wiki Engine · 三模式</text>
<text x="1012" y="459" class="body">INGEST：原始数据 → 归档</text>
<text x="1012" y="473" class="body">QUERY：问题 → 检索 → 决策</text>
<text x="1145" y="485" text-anchor="middle" class="small-badge" fill="#7c3aed">LINT：漂移检测</text>

<!-- 数据流转路径 -->
<rect x="712" y="500" width="576" height="90" rx="6" fill="#f8fafc" stroke="#e5e7eb" stroke-width="1"/>
<text x="1000" y="516" text-anchor="middle" class="row-head" fill="#374151">数据 → 知识的流转路径</text>
<text x="722" y="536" class="body">① 原始数据（CSV / CDP截图 / 平台数据）→</text>
<text x="722" y="550" class="body">② INGEST解析（结构化处理）→</text>
<text x="722" y="564" class="body">③ sources/（原始快照）+ concepts/（规律）+ entities/（词条）+ queries/（问题）→</text>
<text x="722" y="580" text-anchor="middle" class="body">④ QUERY检索（AI决策时）→ 输出结构化知识片段 → AI决策</text>
<text x="1000" y="588" text-anchor="middle" class="small-badge" fill="#7c3aed">⚠ 知识层在早期建设阶段</text>

<!-- 竞品档案进度 -->
<rect x="712" y="602" width="576" height="44" rx="6" fill="#dcfce7" stroke="#16a34a" stroke-width="1.5"/>
<text x="1000" y="618" text-anchor="middle" class="row-head" fill="#166534">竞品档案完成度：10 / 21 ✅</text>
<text x="1000" y="638" text-anchor="middle" class="small">老君山 / 重渡沟 / 龙门石窟 / 郑州海昌 已补录（简化版）</text>

<!-- 能力边界 -->
<rect x="712" y="658" width="576" height="50" rx="6" fill="#f8fafc" stroke="#e5e7eb" stroke-width="1"/>
<text x="1000" y="672" text-anchor="middle" class="row-head" fill="#374151">MiniMax 能力边界</text>
<text x="722" y="692" class="body">✅ image（50张/周） · ✅ speech（4000张/周） · ✅ search（150次/周）</text>
<text x="722" y="706" text-anchor="middle" class="body">❌ video（需Max计划 Hailuo-2.3不可用） · ⚠ music（需--lyrics参数）</text>

<!-- Layer 3 bottom: 4个模块 -->
<rect x="712" y="720" width="576" height="170" rx="6" fill="#ffffff" stroke="#e5e7eb" stroke-width="1"/>

<!-- MiniMax素材生成 -->
<rect x="722" y="730" width="180" height="150" rx="6" fill="#f0fdfa" stroke="#5eead4" stroke-width="1.5"/>
<rect x="722" y="730" width="180" height="16" rx="6" fill="#ccfbf1"/>
<text x="812" y="741" text-anchor="middle" class="card-title" fill="#0d9488">MiniMax素材生成</text>
<text x="732" y="762" class="body">mmx image</text>
<text x="812" y="762" text-anchor="middle" class="small">营销海报</text>
<text x="732" y="778" class="body">mmx speech</text>
<text x="812" y="778" text-anchor="middle" class="small">广播词/宣传语</text>
<text x="732" y="794" class="body">mmx music</text>
<text x="812" y="794" text-anchor="middle" class="small">BGM/口号音乐</text>
<text x="732" y="810" class="body">mmx search</text>
<text x="812" y="810" text-anchor="middle" class="small">行业信息检索</text>
<text x="812" y="872" text-anchor="middle" class="small-badge" fill="#0d9488">✅ 景区无关共用</text>

<!-- CDP数据采集 -->
<rect x="918" y="730" width="180" height="150" rx="6" fill="#fef3c7" stroke="#fcd34d" stroke-width="1.5"/>
<rect x="918" y="730" width="180" height="16" rx="6" fill="#fef3c7"/>
<text x="1008" y="741" text-anchor="middle" class="card-title" fill="#b45309">CDP数据采集</text>
<text x="928" y="762" class="body">Tab0 · 小红书灵犀后台</text>
<text x="928" y="778" class="body">Tab4 · 抖音指数/关键词</text>
<text x="928" y="794" class="body">Tab6 · 小红书探索页</text>
<text x="928" y="810" class="body">Tab3 · 百度搜索</text>
<text x="1008" y="872" text-anchor="middle" class="small-badge" fill="#b45309">⚠ 需已登录Cookie</text>

<!-- Feishu推送 -->
<rect x="1114" y="730" width="164" height="150" rx="6" fill="#dcfce7" stroke="#16a34a" stroke-width="1.5"/>
<rect x="1114" y="730" width="164" height="16" rx="6" fill="#dcfce7"/>
<text x="1196" y="741" text-anchor="middle" class="card-title" fill="#166534">Feishu 推送</text>
<text x="1124" y="762" class="body">send_feishu_card.py</text>
<text x="1196" y="762" text-anchor="middle" class="small">飞书卡片</text>
<text x="1124" y="778" class="body">batch_insert_feishu.py</text>
<text x="1196" y="778" text-anchor="middle" class="small">Bitable</text>
<text x="1124" y="794" class="body">电影小镇群</text>
<text x="1196" y="794" text-anchor="middle" class="small">oc_2581...</text>
<text x="1124" y="810" class="body">数据推送群</text>
<text x="1196" y="810" text-anchor="middle" class="small">oc_f109...</text>
<text x="1196" y="872" text-anchor="middle" class="small-badge" fill="#166534">✅ 私信回执</text>

<!-- Arrow: Layer3 → Layer4 -->
<line x1="1240" y1="560" x2="1280" y2="560" stroke="#9333ea" stroke-width="2" marker-end="url(#a1)"/>
<text x="1260" y="553" text-anchor="middle" class="small-badge" fill="#7c3aed">QUERY</text>

<!-- ===== LEGEND ===== -->
<rect x="24" y="950" width="1356" height="24" rx="6" fill="#f9fafb" stroke="#e5e7eb" stroke-width="1"/>
<text x="40" y="968" class="small">图例：</text>
<rect x="76" y="960" width="12" height="10" rx="2" fill="#fee2e2" stroke="#f87171" stroke-width="1"/>
<text x="94" y="970" class="small">原始数据</text>
<rect x="150" y="960" width="12" height="10" rx="2" fill="#ede9fe" stroke="#a78bfa" stroke-width="1"/>
<text x="168" y="970" class="small">INGEST/QUERY</text>
<rect x="236" y="960" width="12" height="10" rx="2" fill="#dcfce7" stroke="#4ade80" stroke-width="1"/>
<text x="254" y="970" class="small">结构化知识</text>
<rect x="330" y="960" width="12" height="10" rx="2" fill="#fef3c7" stroke="#fcd34d" stroke-width="1"/>
<text x="348" y="970" class="small">查询引擎</text>
<text x="430" y="970" class="small">⚠=数据缺失 | ✅=已完成 | ⚡=定期刷新</text>
<text x="1180" y="970" class="small" fill="#94a3b8">v2.2 LLM知识层架构图 · 2026-04-28 · 李涯 佛龛</text>
</svg>