<svg xmlns="http://www.w3.org/2000/svg" viewBox="0 0 1400 980" width="1400" height="980">
<style>
  text { font-family: 'Helvetica Neue', Helvetica, Arial, 'PingFang SC', 'Microsoft YaHei', 'Microsoft JhengHei', 'SimHei', sans-serif; }
  .title { font-size: 20px; font-weight: 700; fill: #111827; }
  .subtitle { font-size: 11px; fill: #6b7280; }
  .section { font-size: 13px; font-weight: 700; }
  .time { font-size: 11px; font-weight: 700; }
  .task-name { font-size: 11px; font-weight: 600; }
  .desc { font-size: 9px; fill: #4b5563; }
  .note { font-size: 9px; fill: #9ca3af; }
  .done { font-size: 10px; font-weight: 600; }
  .tag { font-size: 9px; font-weight: 600; }
  .badge { font-size: 9px; font-weight: 600; }
  .small { font-size: 8px; fill: #9ca3af; }
  .pool-label { font-size: 10px; font-weight: 600; }
</style>
<defs>
  <marker id="b1" markerWidth="7" markerHeight="5" refX="6" refY="2.5" orient="auto"><polygon points="0 0, 7 2.5, 0 5" fill="#2563eb"/></marker>
  <marker id="b2" markerWidth="7" markerHeight="5" refX="6" refY="2.5" orient="auto"><polygon points="0 0, 7 2.5, 0 5" fill="#16a34a"/></marker>
  <marker id="b3" markerWidth="7" markerHeight="5" refX="6" refY="2.5" orient="auto"><polygon points="0 0, 7 2.5, 0 5" fill="#9333ea"/></marker>
  <marker id="b4" markerWidth="7" markerHeight="5" refX="6" refY="2.5" orient="auto"><polygon points="0 0, 7 2.5, 0 5" fill="#ea580c"/></marker>
  <marker id="b5" markerWidth="7" markerHeight="5" refX="6" refY="2.5" orient="auto"><polygon points="0 0, 7 2.5, 0 5" fill="#ca8a04"/></marker>
</defs>
<rect width="1400" height="980" fill="#fafbfc"/>

<!-- ==================== TITLE ==================== -->
<text x="700" y="30" text-anchor="middle" class="title">Cron 任务执行时间轴</text>
<text x="700" y="50" text-anchor="middle" class="subtitle">20 个任务 · 09:30 → 22:00 · 周一 / 周五 / 周六 / 周日专项 · 2026-04-27</text>

<!-- ==================== TIME AXIS ==================== -->
<rect x="40" y="68" width="1320" height="28" rx="8" fill="#f1f5f9" stroke="#e2e8f0" stroke-width="1"/>
<text x="90" y="86" text-anchor="middle" class="time" fill="#374151">09:30</text>
<line x1="90" y1="96" x2="90" y2="960" stroke="#e5e7eb" stroke-width="1" stroke-dasharray="4,4"/>
<text x="260" y="86" text-anchor="middle" class="time" fill="#374151">10:00</text>
<line x1="260" y1="96" x2="260" y2="960" stroke="#e5e7eb" stroke-width="1" stroke-dasharray="4,4"/>
<text x="430" y="86" text-anchor="middle" class="time" fill="#374151">10:30</text>
<line x1="430" y1="96" x2="430" y2="960" stroke="#e5e7eb" stroke-width="1" stroke-dasharray="4,4"/>
<text x="600" y="86" text-anchor="middle" class="time" fill="#374151">14:00</text>
<line x1="600" y1="96" x2="600" y2="960" stroke="#e5e7eb" stroke-width="1" stroke-dasharray="4,4"/>
<text x="770" y="86" text-anchor="middle" class="time" fill="#374151">15:00</text>
<line x1="770" y1="96" x2="770" y2="960" stroke="#e5e7eb" stroke-width="1" stroke-dasharray="4,4"/>
<text x="940" y="86" text-anchor="middle" class="time" fill="#374151">18:00</text>
<line x1="940" y1="96" x2="940" y2="960" stroke="#e5e7eb" stroke-width="1" stroke-dasharray="4,4"/>
<text x="1110" y="86" text-anchor="middle" class="time" fill="#374151">20:00</text>
<line x1="1110" y1="96" x2="1110" y2="960" stroke="#e5e7eb" stroke-width="1" stroke-dasharray="4,4"/>
<text x="1280" y="86" text-anchor="middle" class="time" fill="#374151">22:00</text>

<!-- Time period labels -->
<text x="175" y="86" text-anchor="middle" class="note">上午</text>
<text x="345" y="86" text-anchor="middle" class="note">上午</text>
<text x="515" y="86" text-anchor="middle" class="note">下午</text>
<text x="685" y="86" text-anchor="middle" class="note">傍晚</text>
<text x="855" y="86" text-anchor="middle" class="note">晚间</text>
<text x="1025" y="86" text-anchor="middle" class="note">夜间</text>
<text x="1195" y="86" text-anchor="middle" class="note">夜间</text>

<!-- ==================== DAILY TASKS ==================== -->
<text x="50" y="112" class="section" fill="#111827">每日任务</text>
<line x1="40" y1="120" x2="1360" y2="120" stroke="#e5e7eb" stroke-width="1.5"/>

<!-- 09:30 周度客流营收洞察 -->
<rect x="44" y="128" width="200" height="58" rx="8" fill="#ffffff" stroke="#16a34a" stroke-width="1.5"/>
<rect x="44" y="128" width="200" height="20" rx="8" fill="#dcfce7"/>
<text x="144" y="142" text-anchor="middle" class="task-name" fill="#166534">09:30 · 周度客流洞察</text>
<text x="54" y="160" class="desc">散客 / 渠道 / YTD / 同比 / 进度pp</text>
<text x="54" y="173" class="desc">穿越德化街专项联发 ✅</text>
<text x="144" y="181" text-anchor="middle" class="done" fill="#16a34a">SOP + Wiki 修复完成</text>

<!-- 10:00 文旅热点追踪 -->
<rect x="264" y="128" width="148" height="58" rx="8" fill="#ffffff" stroke="#f59e0b" stroke-width="1.5"/>
<rect x="264" y="128" width="148" height="20" rx="8" fill="#fef3c7"/>
<text x="338" y="142" text-anchor="middle" class="task-name" fill="#b45309">10:00 · 文旅热点</text>
<text x="274" y="160" class="desc">全国景区动态 / 政策 / 资本</text>
<text x="338" y="173" text-anchor="middle" class="note">announce→none ✅</text>
<text x="338" y="181" text-anchor="middle" class="small">修复：04-27</text>

<!-- 10:00 小红书日报 -->
<rect x="264" y="194" width="148" height="58" rx="8" fill="#ffffff" stroke="#f59e0b" stroke-width="1.5"/>
<rect x="264" y="194" width="148" height="20" rx="8" fill="#fef3c7"/>
<text x="338" y="208" text-anchor="middle" class="task-name" fill="#b45309">10:00 · 小红书日报</text>
<text x="274" y="226" class="desc">灵犀 Brand / 趋势分析</text>
<text x="338" y="239" text-anchor="middle" class="note">⚠ JS注入触发难</text>
<text x="338" y="247" text-anchor="middle" class="small">trendAnalyze页交互</text>

<!-- 10:30 抖音指数日报 -->
<rect x="432" y="128" width="160" height="58" rx="8" fill="#ffffff" stroke="#2563eb" stroke-width="1.5"/>
<rect x="432" y="128" width="160" height="20" rx="8" fill="#dbeafe"/>
<text x="512" y="142" text-anchor="middle" class="task-name" fill="#1e40af">10:30 · 抖音指数日报</text>
<text x="442" y="160" class="desc">8景区订阅页 → 飞书群</text>
<text x="512" y="173" text-anchor="middle" class="desc">08:00 采集 → 10:30 推送</text>
<text x="512" y="181" text-anchor="middle" class="done" fill="#1e40af">announce→none ✅</text>

<!-- 14:00 行业热点采集 -->
<rect x="602" y="128" width="158" height="58" rx="8" fill="#ffffff" stroke="#0891b2" stroke-width="1.5"/>
<rect x="602" y="128" width="158" height="20" rx="8" fill="#f0fdfa"/>
<text x="681" y="142" text-anchor="middle" class="task-name" fill="#0e7490">14:00 · 行业热点采集</text>
<text x="612" y="160" class="desc">行业报告 / 竞品动态 / 政策</text>
<text x="681" y="173" text-anchor="middle" class="desc">MiniMax search + browser</text>
<text x="681" y="181" text-anchor="middle" class="done" fill="#0e7490">announce→none ✅</text>

<!-- 15:00 竞品关键词深度分析 -->
<rect x="772" y="128" width="160" height="58" rx="8" fill="#ffffff" stroke="#9333ea" stroke-width="1.5"/>
<rect x="772" y="128" width="160" height="20" rx="8" fill="#ede9fe"/>
<text x="852" y="142" text-anchor="middle" class="task-name" fill="#7c3aed">15:00 · 竞品关键词</text>
<text x="782" y="160" class="desc">四平台（抖 / 小红书 / 百度）</text>
<text x="852" y="173" text-anchor="middle" class="desc">7模块 + 人群画像4维度</text>
<text x="852" y="181" text-anchor="middle" class="done" fill="#7c3aed">Wiki归档已修复 ✅</text>

<!-- 15:00 竞品爆款拆解 -->
<rect x="772" y="194" width="160" height="58" rx="8" fill="#ffffff" stroke="#9333ea" stroke-width="1.5"/>
<rect x="772" y="194" width="160" height="20" rx="8" fill="#ede9fe"/>
<text x="852" y="208" text-anchor="middle" class="task-name" fill="#7c3aed">15:00 · 竞品爆款拆解</text>
<text x="782" y="226" class="desc">爆量竞品 → 标题 / 规律</text>
<text x="852" y="239" text-anchor="middle" class="note">清明上河园爆量 ✅</text>
<text x="852" y="247" text-anchor="middle" class="small">announce→none ✅</text>

<!-- 18:00 竞品内容动态 -->
<rect x="942" y="128" width="158" height="58" rx="8" fill="#ffffff" stroke="#dc2626" stroke-width="1.5"/>
<rect x="942" y="128" width="158" height="20" rx="8" fill="#fef2f2"/>
<text x="1021" y="142" text-anchor="middle" class="task-name" fill="#dc2626">18:00 · 竞品内容动态</text>
<text x="952" y="160" class="desc">竞品最新内容追踪</text>
<text x="1021" y="173" text-anchor="middle" class="desc">爆款笔记 / 博主 / 话题</text>
<text x="1021" y="181" text-anchor="middle" class="done" fill="#dc2626">announce→none ✅</text>

<!-- 20:00 案例库更新 -->
<rect x="1112" y="128" width="158" height="58" rx="8" fill="#ffffff" stroke="#f59e0b" stroke-width="1.5"/>
<rect x="1112" y="128" width="158" height="20" rx="8" fill="#fef3c7"/>
<text x="1191" y="142" text-anchor="middle" class="task-name" fill="#b45309">20:00 · 案例库更新</text>
<text x="1122" y="160" class="desc">全国景区爆款营销案例</text>
<text x="1191" y="173" text-anchor="middle" class="desc">分类 / 规律 / 博主类型</text>
<text x="1191" y="181" text-anchor="middle" class="done" fill="#b45309">announce→none ✅</text>

<!-- 22:00 每日复盘整合 -->
<rect x="1282" y="128" width="100" height="58" rx="8" fill="#ffffff" stroke="#16a34a" stroke-width="1.5"/>
<rect x="1282" y="128" width="100" height="20" rx="8" fill="#dcfce7"/>
<text x="1332" y="142" text-anchor="middle" class="task-name" fill="#166534">22:00 · 复盘</text>
<text x="1292" y="160" class="desc">当日任务 → 群</text>
<text x="1332" y="173" text-anchor="middle" class="desc">Wiki + GitHub</text>
<text x="1332" y="181" text-anchor="middle" class="done" fill="#16a34a">✅</text>

<!-- ==================== WEEKLY TASKS ==================== -->
<text x="50" y="276" class="section" fill="#111827">周度任务</text>
<line x1="40" y1="284" x2="1360" y2="284" stroke="#e5e7eb" stroke-width="1.5"/>

<!-- 周一 09:30 -->
<rect x="44" y="292" width="200" height="60" rx="8" fill="#ffffff" stroke="#16a34a" stroke-width="1.5"/>
<rect x="44" y="292" width="200" height="20" rx="8" fill="#dcfce7"/>
<text x="144" y="306" text-anchor="middle" class="task-name" fill="#166534">周一 09:30 · 周度客流报告</text>
<text x="54" y="324" class="desc">周度汇总 · 历史同比 · 规律洞察</text>
<text x="54" y="337" class="desc">散客 / 渠道拆分 · W17 ✅ 14,392人</text>
<text x="144" y="349" text-anchor="middle" class="done" fill="#16a34a">W17 已完成 04-27</text>

<!-- 周五 09:00 -->
<rect x="264" y="292" width="200" height="60" rx="8" fill="#ffffff" stroke="#f59e0b" stroke-width="1.5"/>
<rect x="264" y="292" width="200" height="20" rx="8" fill="#fef3c7"/>
<text x="364" y="306" text-anchor="middle" class="task-name" fill="#b45309">周五 09:00 · 文旅营销案例</text>
<text x="274" y="324" class="desc">全国景区优秀营销案例轮换</text>
<text x="364" y="337" text-anchor="middle" class="desc">分类 / 规律 / 复用建议</text>
<text x="364" y="349" text-anchor="middle" class="note">每周五 09:00 自动</text>

<!-- 周六 00:00 -->
<rect x="484" y="292" width="160" height="60" rx="8" fill="#ffffff" stroke="#0891b2" stroke-width="1.5"/>
<rect x="484" y="292" width="160" height="20" rx="8" fill="#f0fdfa"/>
<text x="564" y="306" text-anchor="middle" class="task-name" fill="#0e7490">周六 00:00 · 周度技能探索</text>
<text x="494" y="324" class="desc">探索新 Skill / 工具能力</text>
<text x="564" y="337" text-anchor="middle" class="desc">MiniMax CLI 6种能力验证</text>
<text x="564" y="349" text-anchor="middle" class="done" fill="#0e7490">✅ 已验证</text>

<!-- 周六 00:00 周度清理 -->
<rect x="664" y="292" width="160" height="60" rx="8" fill="#ffffff" stroke="#0891b2" stroke-width="1.5"/>
<rect x="664" y="292" width="160" height="20" rx="8" fill="#f0fdfa"/>
<text x="744" y="306" text-anchor="middle" class="task-name" fill="#0e7490">周六 00:00 · 周度清理</text>
<text x="674" y="324" class="desc">临时文件清理</text>
<text x="744" y="337" text-anchor="middle" class="desc">Wiki漂移检查 · 状态重置</text>
<text x="744" y="349" text-anchor="middle" class="note">每周六自动</text>

<!-- 周日 00:00 系统升级 -->
<rect x="844" y="292" width="180" height="60" rx="8" fill="#ffffff" stroke="#9333ea" stroke-width="1.5"/>
<rect x="844" y="292" width="180" height="20" rx="8" fill="#ede9fe"/>
<text x="934" y="306" text-anchor="middle" class="task-name" fill="#7c3aed">周日 00:00 · 系统升级</text>
<text x="854" y="324" class="desc">OpenClaw 版本检查 + 升级</text>
<text x="934" y="337" text-anchor="middle" class="desc">GitHub Vault 推送</text>
<text x="934" y="349" text-anchor="middle" class="note">⚠ 等 2026.4.25 stable</text>

<!-- 周日 10:00 Wiki健康检查 -->
<rect x="1044" y="292" width="180" height="60" rx="8" fill="#ffffff" stroke="#dc2626" stroke-width="1.5"/>
<rect x="1044" y="292" width="180" height="20" rx="8" fill="#fef2f2"/>
<text x="1134" y="306" text-anchor="middle" class="task-name" fill="#dc2626">周日 10:00 · Wiki健康检查</text>
<text x="1054" y="324" class="desc">竞品Wiki完整性 · LINT漂移</text>
<text x="1134" y="337" text-anchor="middle" class="desc">SOP版本 · cron一致性</text>
<text x="1134" y="349" text-anchor="middle" class="tag" fill="#dc2626">⚠ 4个缺失待补</text>

<!-- ==================== COMPETITOR ROTATION ==================== -->
<text x="50" y="372" class="section" fill="#111827">竞品关键词轮换</text>
<line x1="40" y1="380" x2="1360" y2="380" stroke="#e5e7eb" stroke-width="1.5"/>
<text x="50" y="394" class="note">状态文件：/tmp/daily_task_state.json · 下一个：阿那亚</text>

<!-- Rotation pool visualization -->
<rect x="40" y="402" width="1320" height="340" rx="10" fill="#f8fafc" stroke="#e5e7eb" stroke-width="1.5"/>

<!-- DONE: 10 completed -->
<rect x="54" y="416" width="600" height="320" rx="8" fill="#dcfce7" stroke="#16a34a" stroke-width="1.5"/>
<text x="70" y="434" class="pool-label" fill="#166534">✅ DONE · 已完成（10 / 21）</text>

<!-- Row 1 of 4 done items -->
<rect x="64" y="448" width="120" height="34" rx="6" fill="#ffffff" stroke="#16a34a" stroke-width="1"/>
<text x="124" y="466" text-anchor="middle" class="desc">万岁山武侠城</text>

<rect x="194" y="448" width="120" height="34" rx="6" fill="#ffffff" stroke="#16a34a" stroke-width="1"/>
<text x="254" y="466" text-anchor="middle" class="desc">清明上河园</text>

<rect x="324" y="448" width="120" height="34" rx="6" fill="#ffffff" stroke="#16a34a" stroke-width="1"/>
<text x="384" y="466" text-anchor="middle" class="desc">只有河南</text>

<rect x="454" y="448" width="120" height="34" rx="6" fill="#ffffff" stroke="#16a34a" stroke-width="1"/>
<text x="514" y="466" text-anchor="middle" class="desc">银基动物王国</text>

<!-- Row 2 -->
<rect x="64" y="492" width="120" height="34" rx="6" fill="#ffffff" stroke="#16a34a" stroke-width="1"/>
<text x="124" y="510" text-anchor="middle" class="desc">郑州方特</text>

<rect x="194" y="492" width="120" height="34" rx="6" fill="#ffffff" stroke="#16a34a" stroke-width="1"/>
<text x="254" y="510" text-anchor="middle" class="desc">郑州海昌海洋公园</text>

<rect x="324" y="492" width="120" height="34" rx="6" fill="#ffffff" stroke="#16a34a" stroke-width="1"/>
<text x="384" y="510" text-anchor="middle" class="desc">只有红楼梦</text>

<rect x="454" y="492" width="120" height="34" rx="6" fill="#ffffff" stroke="#16a34a" stroke-width="1"/>
<text x="514" y="510" text-anchor="middle" class="desc">老君山</text>

<!-- Row 3 -->
<rect x="64" y="536" width="120" height="34" rx="6" fill="#ffffff" stroke="#16a34a" stroke-width="1"/>
<text x="124" y="554" text-anchor="middle" class="desc">重渡沟</text>

<rect x="194" y="536" width="120" height="34" rx="6" fill="#ffffff" stroke="#16a34a" stroke-width="1"/>
<text x="254" y="554" text-anchor="middle" class="desc">龙门石窟</text>

<!-- Wiki note -->
<text x="70" y="585" class="small">老君山 / 重渡沟 / 龙门石窟 / 郑州海昌：2026-04-27 23:37 补录 Wiki（简化版）</text>
<text x="70" y="598" class="small">数据分析完整度：老君山/重渡沟 较低（简化版），龙门石窟/郑州海昌 中等（基础数据待CDP更新）</text>

<!-- NEXT: 阿那亚 -->
<rect x="674" y="448" width="320" height="90" rx="10" fill="#fef3c7" stroke="#f59e0b" stroke-width="2"/>
<text x="690" y="468" class="pool-label" fill="#b45309">⏳ NEXT · 下一个</text>
<text x="834" y="492" text-anchor="middle" font-size="20" font-weight="700" fill="#b45309">阿那亚</text>
<text x="834" y="512" text-anchor="middle" class="desc">下次 15:00 cron 执行</text>

<!-- Remaining pool -->
<rect x="674" y="558" width="672" height="158" rx="8" fill="#ffffff" stroke="#e5e7eb" stroke-width="1"/>
<text x="690" y="576" class="pool-label" fill="#374151">⏳ 待轮换（11个）</text>
<text x="690" y="594" class="desc">剑门关 · 景德镇 · 乌镇 · 拈花湾</text>
<text x="690" y="607" class="desc">大唐不夜城 · 琅琊古城 · 欢乐谷</text>
<text x="690" y="620" class="desc">赤坎古镇 · 新大明宫城</text>
<text x="690" y="636" class="small">21景区轮换池：万岁山 / 清明 / 只有河南 / 银基 / 方特 / 海昌 / 只有红楼梦 / 老君山 / 重渡沟 / 龙门 / 阿那亚 / 剑门关 / 景德镇 / 乌镇 / 拈花湾 / 大唐不夜城 / 琅琊古城 / 欢乐谷 / 赤坎古镇 / 新大明宫城</text>

<!-- ==================== AI DECISION ENGINE ==================== -->
<text x="50" y="760" class="section" fill="#111827">AI 决策引擎 · 触发条件与响应</text>
<line x1="40" y1="768" x2="1360" y2="768" stroke="#e5e7eb" stroke-width="1.5"/>

<!-- Trigger 1: 穿越德化街 -->
<rect x="44" y="776" width="260" height="68" rx="8" fill="#ffffff" stroke="#dc2626" stroke-width="1.5"/>
<rect x="44" y="776" width="260" height="20" rx="8" fill="#fef2f2"/>
<text x="174" y="790" text-anchor="middle" class="task-name" fill="#dc2626">触发 1 · 穿越德化街上座率异常</text>
<text x="54" y="810" class="desc">上座率 &lt; 50% → 增场建议</text>
<text x="54" y="823" class="desc">周四 / 周六爆满 → 第三场建议</text>
<text x="174" y="839" text-anchor="middle" class="done" fill="#dc2626">W17 12场 / 65.3% ✅</text>

<!-- Trigger 2: YTD -->
<rect x="324" y="776" width="260" height="68" rx="8" fill="#ffffff" stroke="#16a34a" stroke-width="1.5"/>
<rect x="324" y="776" width="260" height="20" rx="8" fill="#dcfce7"/>
<text x="454" y="790" text-anchor="middle" class="task-name" fill="#166534">触发 2 · YTD 进度落后 &gt;2pp</text>
<text x="334" y="810" class="desc">周度客流报告 → 预警推送</text>
<text x="454" y="823" text-anchor="middle" class="desc">散客 / 渠道分解 → 短板定位</text>
<text x="454" y="839" text-anchor="middle" class="done" fill="#16a34a">当前领先 +2.3pp ✅</text>

<!-- Trigger 3: 竞品爆量 -->
<rect x="604" y="776" width="260" height="68" rx="8" fill="#ffffff" stroke="#2563eb" stroke-width="1.5"/>
<rect x="604" y="776" width="260" height="20" rx="8" fill="#dbeafe"/>
<text x="734" y="790" text-anchor="middle" class="task-name" fill="#1e40af">触发 3 · 竞品爆量（同比+50%）</text>
<text x="614" y="810" class="desc">清明上河园 +516% → 爆款拆解</text>
<text x="734" y="823" text-anchor="middle" class="desc">银基听劝标题 → 案例库更新</text>
<text x="734" y="839" text-anchor="middle" class="done" fill="#1e40af">✅ 已执行 2次</text>

<!-- Trigger 4: 节点营销 -->
<rect x="884" y="776" width="260" height="68" rx="8" fill="#ffffff" stroke="#9333ea" stroke-width="1.5"/>
<rect x="884" y="776" width="260" height="20" rx="8" fill="#ede9fe"/>
<text x="1014" y="790" text-anchor="middle" class="task-name" fill="#7c3aed">触发 4 · 5·19 / 五一 / 暑期节点</text>
<text x="894" y="810" class="desc">5·19 旅游日 → 文旅热点追踪</text>
<text x="1014" y="823" text-anchor="middle" class="desc">五一预案 → 竞品联合动作监测</text>
<text x="1014" y="839" text-anchor="middle" class="tag" fill="#9333ea">⚠ 五一双节点备战中</text>

<!-- Trigger 5: 铁律纠错 -->
<rect x="1164" y="776" width="190" height="68" rx="8" fill="#ffffff" stroke="#f59e0b" stroke-width="1.5"/>
<rect x="1164" y="776" width="190" height="20" rx="8" fill="#fef3c7"/>
<text x="1259" y="790" text-anchor="middle" class="task-name" fill="#b45309">触发 5 · 铁律纠错</text>
<text x="1174" y="810" class="desc">MEMORY.md 反馈闭环</text>
<text x="1259" y="823" text-anchor="middle" class="desc">SOP 更新 → cron 同步</text>
<text x="1259" y="839" text-anchor="middle" class="done" fill="#b45309">✅ 6个announce已清</text>

<!-- ==================== LEGEND ==================== -->
<rect x="40" y="858" width="1320" height="26" rx="6" fill="#f9fafb" stroke="#e5e7eb" stroke-width="1"/>
<text x="56" y="877" class="small">图例：</text>
<rect x="86" y="869" width="12" height="10" rx="2" fill="#dcfce7" stroke="#16a34a" stroke-width="1"/>
<text x="104" y="879" class="small">已完成</text>
<rect x="150" y="869" width="12" height="10" rx="2" fill="#fef3c7" stroke="#f59e0b" stroke-width="1"/>
<text x="168" y="879" class="small">待执行</text>
<rect x="218" y="869" width="12" height="10" rx="2" fill="#fef2f2" stroke="#dc2626" stroke-width="1"/>
<text x="236" y="879" class="small">告警 / 需关注</text>
<rect x="298" y="869" width="12" height="10" rx="2" fill="#dbeafe" stroke="#2563eb" stroke-width="1"/>
<text x="316" y="879" class="small">已修复</text>
<text x="390" y="879" class="small">✅=执行成功 | ⚠=缺失/待补 | announce→none=推送修复</text>
<text x="1180" y="879" class="small" fill="#94a3b8">v2.1 Cron任务时间轴 · 2026-04-27 · 李涯 佛龛</text>
</svg>