<svg xmlns="http://www.w3.org/2000/svg" viewBox="0 0 1400 1040" width="1400" height="1040">
<style>
  text { font-family: 'Helvetica Neue', Helvetica, Arial, 'PingFang SC', 'Microsoft YaHei', 'Microsoft JhengHei', 'SimHei', sans-serif; }
  .title { font-size: 20px; font-weight: 700; fill: #111827; }
  .subtitle { font-size: 11px; fill: #6b7280; }
  .section { font-size: 13px; font-weight: 700; }
  .time { font-size: 11px; font-weight: 700; }
  .task-name { font-size: 11px; font-weight: 600; }
  .body { font-size: 9px; fill: #4b5563; }
  .desc { font-size: 9px; fill: #374151; }
  .small { font-size: 8px; fill: #9ca3af; }
  .note { font-size: 9px; fill: #6b7280; }
  .done { font-size: 10px; font-weight: 600; }
  .badge { font-size: 9px; font-weight: 600; }
  .pool-label { font-size: 10px; font-weight: 600; }
</style>
<defs>
  <marker id="b1" markerWidth="6" markerHeight="4" refX="5" refY="2" orient="auto"><polygon points="0 0, 6 2, 0 4" fill="#2563eb"/></marker>
  <marker id="b2" markerWidth="6" markerHeight="4" refX="5" refY="2" orient="auto"><polygon points="0 0, 6 2, 0 4" fill="#16a34a"/></marker>
  <marker id="b3" markerWidth="6" markerHeight="4" refX="5" refY="2" orient="auto"><polygon points="0 0, 6 2, 0 4" fill="#9333ea"/></marker>
  <marker id="b4" markerWidth="6" markerHeight="4" refX="5" refY="2" orient="auto"><polygon points="0 0, 6 2, 0 4" fill="#ea580c"/></marker>
  <marker id="b5" markerWidth="6" markerHeight="4" refX="5" refY="2" orient="auto"><polygon points="0 0, 6 2, 0 4" fill="#ca8a04"/></marker>
</defs>
<rect width="1400" height="1040" fill="#fafbfc"/>

<!-- ===== TITLE ===== -->
<text x="700" y="28" text-anchor="middle" class="title">Cron 任务执行时间轴</text>
<text x="700" y="46" text-anchor="middle" class="subtitle">20个任务 · 09:30 → 22:00 · 周一 / 周五 / 周六 / 周日专项 · 2026-04-27</text>

<!-- ===== TIME AXIS ===== -->
<rect x="30" y="62" width="1340" height="26" rx="8" fill="#f1f5f9" stroke="#e2e8f0" stroke-width="1"/>
<text x="80" y="80" text-anchor="middle" class="time" fill="#374151">09:30</text>
<line x1="80" y1="88" x2="80" y2="1010" stroke="#e5e7eb" stroke-width="1" stroke-dasharray="4,4"/>
<text x="240" y="80" text-anchor="middle" class="time" fill="#374151">10:00</text>
<line x1="240" y1="88" x2="240" y2="1010" stroke="#e5e7eb" stroke-width="1" stroke-dasharray="4,4"/>
<text x="400" y="80" text-anchor="middle" class="time" fill="#374151">10:30</text>
<line x1="400" y1="88" x2="400" y2="1010" stroke="#e5e7eb" stroke-width="1" stroke-dasharray="4,4"/>
<text x="560" y="80" text-anchor="middle" class="time" fill="#374151">14:00</text>
<line x1="560" y1="88" x2="560" y2="1010" stroke="#e5e7eb" stroke-width="1" stroke-dasharray="4,4"/>
<text x="720" y="80" text-anchor="middle" class="time" fill="#374151">15:00</text>
<line x1="720" y1="88" x2="720" y2="1010" stroke="#e5e7eb" stroke-width="1" stroke-dasharray="4,4"/>
<text x="880" y="80" text-anchor="middle" class="time" fill="#374151">18:00</text>
<line x1="880" y1="88" x2="880" y2="1010" stroke="#e5e7eb" stroke-width="1" stroke-dasharray="4,4"/>
<text x="1040" y="80" text-anchor="middle" class="time" fill="#374351">20:00</text>
<line x1="1040" y1="88" x2="1040" y2="1010" stroke="#e5e7eb" stroke-width="1" stroke-dasharray="4,4"/>
<text x="1200" y="80" text-anchor="middle" class="time" fill="#374351">22:00</text>

<!-- ===== DAILY TASKS ===== -->
<text x="40" y="104" class="section" fill="#111827">每日任务</text>
<line x1="30" y1="112" x2="1370" y2="112" stroke="#e5e7eb" stroke-width="1.5"/>

<!-- 09:30 周度客流营收洞察 -->
<rect x="34" y="120" width="190" height="56" rx="6" fill="#ffffff" stroke="#16a34a" stroke-width="1.5"/>
<rect x="34" y="120" width="190" height="18" rx="6" fill="#dcfce7"/>
<text x="129" y="132" text-anchor="middle" class="task-name" fill="#166534">09:30 · 周度客流洞察</text>
<text x="44" y="150" class="desc">散客 / 渠道 / YTD / 同比 / 进度pp</text>
<text x="44" y="163" class="desc">穿越德化街专项联发 ✅</text>
<text x="129" y="173" text-anchor="middle" class="done" fill="#16a34a">SOP + Wiki 已修复</text>

<!-- 10:00 文旅热点追踪 -->
<rect x="244" y="120" width="148" height="56" rx="6" fill="#ffffff" stroke="#f59e0b" stroke-width="1.5"/>
<rect x="244" y="120" width="148" height="18" rx="6" fill="#fef3c7"/>
<text x="318" y="132" text-anchor="middle" class="task-name" fill="#b45309">10:00 · 文旅热点</text>
<text x="254" y="150" class="desc">全国景区动态 / 政策 / 资本</text>
<text x="318" y="163" text-anchor="middle" class="note">announce→none</text>
<text x="318" y="173" text-anchor="middle" class="small">修复：04-27 ✅</text>

<!-- 10:00 小红书日报 -->
<rect x="244" y="184" width="148" height="56" rx="6" fill="#ffffff" stroke="#f59e0b" stroke-width="1.5"/>
<rect x="244" y="184" width="148" height="18" rx="6" fill="#fef3c7"/>
<text x="318" y="196" text-anchor="middle" class="task-name" fill="#b45309">10:00 · 小红书日报</text>
<text x="254" y="214" class="desc">灵犀 Brand / 趋势分析</text>
<text x="318" y="227" text-anchor="middle" class="note">⚠ JS注入触发</text>
<text x="318" y="237" text-anchor="middle" class="small">trendAnalyze页交互</text>

<!-- 10:30 抖音指数日报 -->
<rect x="404" y="120" width="148" height="56" rx="6" fill="#ffffff" stroke="#2563eb" stroke-width="1.5"/>
<rect x="404" y="120" width="148" height="18" rx="6" fill="#dbeafe"/>
<text x="478" y="132" text-anchor="middle" class="task-name" fill="#1e40af">10:30 · 抖音指数日报</text>
<text x="414" y="150" class="desc">8景区订阅页 → 飞书群</text>
<text x="478" y="163" text-anchor="middle" class="desc">08:00 采集 → 10:30 推送</text>
<text x="478" y="173" text-anchor="middle" class="done" fill="#1e40af">ann→none ✅</text>

<!-- 14:00 行业热点采集 -->
<rect x="564" y="120" width="148" height="56" rx="6" fill="#ffffff" stroke="#0891b2" stroke-width="1.5"/>
<rect x="564" y="120" width="148" height="18" rx="6" fill="#f0fdfa"/>
<text x="638" y="132" text-anchor="middle" class="task-name" fill="#0e7490">14:00 · 行业热点</text>
<text x="574" y="150" class="desc">行业报告 / 竞品动态 / 政策</text>
<text x="638" y="163" text-anchor="middle" class="desc">MiniMax search + browser</text>
<text x="638" y="173" text-anchor="middle" class="done" fill="#0e7490">ann→none ✅</text>

<!-- 15:00 竞品关键词深度分析 -->
<rect x="724" y="120" width="148" height="56" rx="6" fill="#ffffff" stroke="#9333ea" stroke-width="1.5"/>
<rect x="724" y="120" width="148" height="18" rx="6" fill="#ede9fe"/>
<text x="798" y="132" text-anchor="middle" class="task-name" fill="#7c3aed">15:00 · 竞品关键词</text>
<text x="734" y="150" class="desc">四平台（抖 / 小红书 / 百度）</text>
<text x="798" y="163" text-anchor="middle" class="desc">7模块 + 人群画像</text>
<text x="798" y="173" text-anchor="middle" class="done" fill="#7c3aed">Wiki归档已修复 ✅</text>

<!-- 15:00 竞品爆款拆解 -->
<rect x="724" y="184" width="148" height="56" rx="6" fill="#ffffff" stroke="#9333ea" stroke-width="1.5"/>
<rect x="724" y="184" width="148" height="18" rx="6" fill="#ede9fe"/>
<text x="798" y="196" text-anchor="middle" class="task-name" fill="#7c3aed">15:00 · 竞品爆款</text>
<text x="734" y="214" class="desc">爆量竞品 → 标题 / 规律</text>
<text x="798" y="227" text-anchor="middle" class="note">清明上河园 ✅</text>
<text x="798" y="237" text-anchor="middle" class="small">ann→none ✅</text>

<!-- 18:00 竞品内容动态 -->
<rect x="884" y="120" width="148" height="56" rx="6" fill="#ffffff" stroke="#dc2626" stroke-width="1.5"/>
<rect x="884" y="120" width="148" height="18" rx="6" fill="#fef2f2"/>
<text x="958" y="132" text-anchor="middle" class="task-name" fill="#dc2626">18:00 · 竞品动态</text>
<text x="894" y="150" class="desc">竞品最新内容追踪</text>
<text x="958" y="163" text-anchor="middle" class="desc">爆款笔记 / 博主 / 话题</text>
<text x="958" y="173" text-anchor="middle" class="done" fill="#dc2626">ann→none ✅</text>

<!-- 20:00 案例库更新 -->
<rect x="1044" y="120" width="148" height="56" rx="6" fill="#ffffff" stroke="#f59e0b" stroke-width="1.5"/>
<rect x="1044" y="120" width="148" height="18" rx="6" fill="#fef3c7"/>
<text x="1118" y="132" text-anchor="middle" class="task-name" fill="#b45309">20:00 · 案例库更新</text>
<text x="1054" y="150" class="desc">全国景区爆款营销案例</text>
<text x="1118" y="163" text-anchor="middle" class="desc">分类 / 规律 / 博主类型</text>
<text x="1118" y="173" text-anchor="middle" class="done" fill="#b45309">ann→none ✅</text>

<!-- 22:00 每日复盘整合 -->
<rect x="1204" y="120" width="148" height="56" rx="6" fill="#ffffff" stroke="#16a34a" stroke-width="1.5"/>
<rect x="1204" y="120" width="148" height="18" rx="6" fill="#dcfce7"/>
<text x="1278" y="132" text-anchor="middle" class="task-name" fill="#166534">22:00 · 每日复盘</text>
<text x="1214" y="150" class="desc">当日任务 → 群</text>
<text x="1278" y="163" text-anchor="middle" class="desc">Wiki + GitHub</text>
<text x="1278" y="173" text-anchor="middle" class="done" fill="#16a34a">✅</text>

<!-- ===== WEEKLY TASKS ===== -->
<text x="40" y="260" class="section" fill="#111827">周度任务</text>
<line x1="30" y1="268" x2="1370" y2="268" stroke="#e5e7eb" stroke-width="1.5"/>

<!-- 周一 09:30 -->
<rect x="34" y="276" width="200" height="60" rx="6" fill="#ffffff" stroke="#16a34a" stroke-width="1.5"/>
<rect x="34" y="276" width="200" height="18" rx="6" fill="#dcfce7"/>
<text x="134" y="288" text-anchor="middle" class="task-name" fill="#166534">周一 09:30 · 周度客流报告</text>
<text x="44" y="308" class="desc">周度汇总 · 历史同比 · 规律洞察</text>
<text x="44" y="321" class="desc">散客 / 渠道拆分 · W17 14,392人</text>
<text x="134" y="333" text-anchor="middle" class="done" fill="#16a34a">W17 已完成 04-27</text>

<!-- 周五 09:00 -->
<rect x="254" y="276" width="190" height="60" rx="6" fill="#ffffff" stroke="#f59e0b" stroke-width="1.5"/>
<rect x="254" y="276" width="190" height="18" rx="6" fill="#fef3c7"/>
<text x="349" y="288" text-anchor="middle" class="task-name" fill="#b45309">周五 09:00 · 文旅营销案例</text>
<text x="264" y="308" class="desc">全国景区优秀营销案例轮换</text>
<text x="349" y="321" text-anchor="middle" class="desc">分类 / 规律 / 复用建议</text>
<text x="349" y="333" text-anchor="middle" class="note">每周五 09:00 自动</text>

<!-- 周六 00:00 周度技能探索 -->
<rect x="464" y="276" width="170" height="60" rx="6" fill="#ffffff" stroke="#0891b2" stroke-width="1.5"/>
<rect x="464" y="276" width="170" height="18" rx="6" fill="#f0fdfa"/>
<text x="549" y="288" text-anchor="middle" class="task-name" fill="#0e7490">周六 00:00 · 周度技能探索</text>
<text x="474" y="308" class="desc">探索新 Skill / 工具能力</text>
<text x="549" y="321" text-anchor="middle" class="desc">MiniMax CLI 6种能力验证</text>
<text x="549" y="333" text-anchor="middle" class="done" fill="#0e7490">✅ 已验证</text>

<!-- 周六 00:00 周度清理 -->
<rect x="654" y="276" width="170" height="60" rx="6" fill="#ffffff" stroke="#0891b2" stroke-width="1.5"/>
<rect x="654" y="276" width="170" height="18" rx="6" fill="#f0fdfa"/>
<text x="739" y="288" text-anchor="middle" class="task-name" fill="#0e7490">周六 00:00 · 周度清理</text>
<text x="664" y="308" class="desc">临时文件清理</text>
<text x="739" y="321" text-anchor="middle" class="desc">Wiki漂移检查 · 状态重置</text>
<text x="739" y="333" text-anchor="middle" class="note">每周六自动</text>

<!-- 周日 00:00 系统升级 -->
<rect x="844" y="276" width="170" height="60" rx="6" fill="#ffffff" stroke="#9333ea" stroke-width="1.5"/>
<rect x="844" y="276" width="170" height="18" rx="6" fill="#ede9fe"/>
<text x="929" y="288" text-anchor="middle" class="task-name" fill="#7c3aed">周日 00:00 · 系统升级</text>
<text x="854" y="308" class="desc">OpenClaw 版本检查 + 升级</text>
<text x="929" y="321" text-anchor="middle" class="desc">GitHub Vault 推送</text>
<text x="929" y="333" text-anchor="middle" class="note">⚠ 等2026.4.25</text>

<!-- 周日 10:00 Wiki健康检查 -->
<rect x="1034" y="276" width="170" height="60" rx="6" fill="#ffffff" stroke="#dc2626" stroke-width="1.5"/>
<rect x="1034" y="276" width="170" height="18" rx="6" fill="#fef2f2"/>
<text x="1119" y="288" text-anchor="middle" class="task-name" fill="#dc2626">周日 10:00 · Wiki健康检查</text>
<text x="1044" y="308" class="desc">竞品Wiki完整性 · LINT漂移</text>
<text x="1119" y="321" text-anchor="middle" class="desc">SOP版本 · cron一致性</text>
<text x="1119" y="333" text-anchor="middle" class="badge" fill="#dc2626">⚠ 4个缺失待补</text>

<!-- ===== COMPETITOR ROTATION ===== -->
<text x="40" y="354" class="section" fill="#111827">竞品关键词轮换</text>
<line x1="30" y1="362" x2="1370" y2="362" stroke="#e5e7eb" stroke-width="1.5"/>
<text x="50" y="374" class="note">状态文件：/tmp/daily_task_state.json · 下一个：阿那亚</text>

<!-- Pool container -->
<rect x="30" y="382" width="1340" height="340" rx="10" fill="#f8fafc" stroke="#e5e7eb" stroke-width="1.5"/>

<!-- DONE section -->
<rect x="44" y="396" width="620" height="320" rx="8" fill="#dcfce7" stroke="#16a34a" stroke-width="1.5"/>
<text x="60" y="414" class="pool-label" fill="#166534">✅ DONE · 已完成（10 / 21）</text>

<!-- Row 1 -->
<rect x="54" y="426" width="115" height="32" rx="5" fill="#ffffff" stroke="#16a34a" stroke-width="1"/>
<text x="111" y="443" text-anchor="middle" class="desc">万岁山武侠城</text>

<rect x="179" y="426" width="115" height="32" rx="5" fill="#ffffff" stroke="#16a34a" stroke-width="1"/>
<text x="236" y="443" text-anchor="middle" class="desc">清明上河园</text>

<rect x="304" y="426" width="115" height="32" rx="5" fill="#ffffff" stroke="#16a34a" stroke-width="1"/>
<text x="361" y="443" text-anchor="middle" class="desc">只有河南</text>

<rect x="429" y="426" width="115" height="32" rx="5" fill="#ffffff" stroke="#16a34a" stroke-width="1"/>
<text x="486" y="443" text-anchor="middle" class="desc">银基动物王国</text>

<!-- Row 2 -->
<rect x="54" y="468" width="115" height="32" rx="5" fill="#ffffff" stroke="#16a34a" stroke-width="1"/>
<text x="111" y="485" text-anchor="middle" class="desc">郑州方特</text>

<rect x="179" y="468" width="115" height="32" rx="5" fill="#ffffff" stroke="#16a34a" stroke-width="1"/>
<text x="236" y="485" text-anchor="middle" class="desc">郑州海昌海洋公园</text>

<rect x="304" y="468" width="115" height="32" rx="5" fill="#ffffff" stroke="#16a34a" stroke-width="1"/>
<text x="361" y="485" text-anchor="middle" class="desc">只有红楼梦</text>

<rect x="429" y="468" width="115" height="32" rx="5" fill="#ffffff" stroke="#16a34a" stroke-width="1"/>
<text x="486" y="485" text-anchor="middle" class="desc">老君山</text>

<!-- Row 3 -->
<rect x="54" y="510" width="115" height="32" rx="5" fill="#ffffff" stroke="#16a34a" stroke-width="1"/>
<text x="111" y="527" text-anchor="middle" class="desc">重渡沟</text>

<rect x="179" y="510" width="115" height="32" rx="5" fill="#ffffff" stroke="#16a34a" stroke-width="1"/>
<text x="236" y="527" text-anchor="middle" class="desc">龙门石窟</text>

<!-- Wiki note -->
<text x="60" y="555" class="small">老君山 / 重渡沟 / 龙门石窟 / 郑州海昌：2026-04-27 23:37 补录 Wiki（简化版）</text>
<text x="60" y="567" class="small">数据分析完整度：老君山/重渡沟 较低 · 龙门石窟/郑州海昌 中等（基础数据待CDP更新）</text>
<text x="60" y="582" class="small">下次CDP轮换优先级：郑州海昌 · 龙门石窟（补全完整四平台数据）</text>

<!-- NEXT: 阿那亚 -->
<rect x="684" y="426" width="310" height="86" rx="8" fill="#fef3c7" stroke="#f59e0b" stroke-width="2"/>
<text x="700" y="446" class="pool-label" fill="#b45309">⏳ NEXT · 下一个</text>
<text x="839" y="466" text-anchor="middle" font-size="18" font-weight="700" fill="#b45309">阿那亚</text>
<text x="839" y="484" text-anchor="middle" class="desc">下次 15:00 cron 执行</text>

<!-- Remaining pool -->
<rect x="684" y="522" width="672" height="188" rx="8" fill="#ffffff" stroke="#e5e7eb" stroke-width="1"/>
<text x="700" y="540" class="pool-label" fill="#374151">⏳ 待轮换（11个）</text>
<text x="700" y="558" class="desc">剑门关 · 景德镇 · 乌镇 · 拈花湾</text>
<text x="700" y="571" class="desc">大唐不夜城 · 琅琊古城 · 欢乐谷</text>
<text x="700" y="584" class="desc">赤坎古镇 · 新大明宫城</text>
<text x="700" y="600" class="small">21景区轮换池：万岁山/清明/只有河南/银基/方特/海昌/只有红楼梦/老君山/重渡沟/龙门石窟/阿那亚/剑门关/景德镇/乌镇/拈花湾/大唐不夜城/琅琊古城/欢乐谷/赤坎古镇/新大明宫城</text>

<!-- ===== AI DECISION ENGINE ===== -->
<text x="40" y="740" class="section" fill="#111827">AI 决策引擎 · 触发条件与响应</text>
<line x1="30" y1="748" x2="1370" y2="748" stroke="#e5e7eb" stroke-width="1.5"/>

<!-- Trigger 1 -->
<rect x="34" y="756" width="258" height="68" rx="6" fill="#ffffff" stroke="#dc2626" stroke-width="1.5"/>
<rect x="34" y="756" width="258" height="18" rx="6" fill="#fef2f2"/>
<text x="163" y="768" text-anchor="middle" class="task-name" fill="#dc2626">触发 1 · 穿越德化街异常</text>
<text x="44" y="790" class="desc">上座率 &lt; 50% → 增场建议</text>
<text x="44" y="803" class="desc">周四/周六爆满 → 第三场建议</text>
<text x="163" y="819" text-anchor="middle" class="done" fill="#dc2626">W17 12场 / 65.3% ✅</text>

<!-- Trigger 2 -->
<rect x="312" y="756" width="258" height="68" rx="6" fill="#ffffff" stroke="#16a34a" stroke-width="1.5"/>
<rect x="312" y="756" width="258" height="18" rx="6" fill="#dcfce7"/>
<text x="441" y="768" text-anchor="middle" class="task-name" fill="#166534">触发 2 · YTD 进度落后 &gt;2pp</text>
<text x="322" y="790" class="desc">周度客流报告 → 预警推送</text>
<text x="441" y="803" text-anchor="middle" class="desc">散客/渠道分解 → 短板定位</text>
<text x="441" y="819" text-anchor="middle" class="done" fill="#16a34a">当前领先 +2.3pp ✅</text>

<!-- Trigger 3 -->
<rect x="590" y="756" width="258" height="68" rx="6" fill="#ffffff" stroke="#2563eb" stroke-width="1.5"/>
<rect x="590" y="756" width="258" height="18" rx="6" fill="#dbeafe"/>
<text x="719" y="768" text-anchor="middle" class="task-name" fill="#1e40af">触发 3 · 竞品爆量（+50%）</text>
<text x="600" y="790" class="desc">清明上河园 +516% → 爆款拆解</text>
<text x="719" y="803" text-anchor="middle" class="desc">银基听劝标题 → 案例库更新</text>
<text x="719" y="819" text-anchor="middle" class="done" fill="#1e40af">✅ 已执行 2次</text>

<!-- Trigger 4 -->
<rect x="868" y="756" width="258" height="68" rx="6" fill="#ffffff" stroke="#9333ea" stroke-width="1.5"/>
<rect x="868" y="756" width="258" height="18" rx="6" fill="#ede9fe"/>
<text x="997" y="768" text-anchor="middle" class="task-name" fill="#7c3aed">触发 4 · 5·19 / 五一 / 暑期</text>
<text x="878" y="790" class="desc">5·19旅游日 → 文旅热点追踪</text>
<text x="997" y="803" text-anchor="middle" class="desc">五一预案 → 竞品联合监测</text>
<text x="997" y="819" text-anchor="middle" class="badge" fill="#9333ea">⚠ 五一双节点备战中</text>

<!-- Trigger 5 -->
<rect x="1146" y="756" width="210" height="68" rx="6" fill="#ffffff" stroke="#f59e0b" stroke-width="1.5"/>
<rect x="1146" y="756" width="210" height="18" rx="6" fill="#fef3c7"/>
<text x="1251" y="768" text-anchor="middle" class="task-name" fill="#b45309">触发 5 · 铁律纠错</text>
<text x="1156" y="790" class="desc">MEMORY.md 反馈闭环</text>
<text x="1251" y="803" text-anchor="middle" class="desc">SOP 更新 → cron 同步</text>
<text x="1251" y="819" text-anchor="middle" class="done" fill="#b45309">✅ 6个announce已清</text>

<!-- ===== AI TRIGGER FLOW (new section) ===== -->
<text x="40" y="840" class="section" fill="#111827">决策流程 · 从数据到行动</text>
<line x1="30" y1="848" x2="1370" y2="848" stroke="#e5e7eb" stroke-width="1.5"/>

<rect x="34" y="856" width="1332" height="120" rx="8" fill="#ffffff" stroke="#e5e7eb" stroke-width="1"/>

<!-- Stage boxes -->
<rect x="44" y="868" width="180" height="96" rx="6" fill="#fef2f2" stroke="#fca5a5" stroke-width="1.5"/>
<rect x="44" y="868" width="180" height="18" rx="6" fill="#fee2e2"/>
<text x="134" y="880" text-anchor="middle" class="pool-label" fill="#dc2626">Step 1 · 数据采集</text>
<text x="54" y="900" class="desc">CDP已登录态抓取</text>
<text x="54" y="914" class="desc">抖音/小红书/百度</text>
<text x="54" y="928" class="desc">douyin_index_v9.py</text>
<text x="54" y="942" class="desc">cdp_keyword_deep.py</text>

<line x1="224" y1="916" x2="254" y2="916" stroke="#2563eb" stroke-width="1.5" marker-end="url(#b1)"/>

<rect x="264" y="868" width="180" height="96" rx="6" fill="#f5f3ff" stroke="#c4b5fd" stroke-width="1.5"/>
<rect x="264" y="868" width="180" height="18" rx="6" fill="#ede9fe"/>
<text x="354" y="880" text-anchor="middle" class="pool-label" fill="#7c3aed">Step 2 · AI分析</text>
<text x="274" y="900" class="desc">MiniMax M2.7 推理</text>
<text x="274" y="914" class="desc">抖音指数解读</text>
<text x="274" y="928" class="desc">竞品关键词分析</text>
<text x="274" y="942" class="desc">客流/穿越德化街分析</text>

<line x1="444" y1="916" x2="474" y2="916" stroke="#16a34a" stroke-width="1.5" marker-end="url(#b2)"/>

<rect x="484" y="868" width="180" height="96" rx="6" fill="#f0fdf4" stroke="#86efac" stroke-width="1.5"/>
<rect x="484" y="868" width="180" height="18" rx="6" fill="#dcfce7"/>
<text x="574" y="880" text-anchor="middle" class="pool-label" fill="#166534">Step 3 · 决策建议</text>
<text x="494" y="900" class="desc">①②③④ 编号建议</text>
<text x="494" y="914" class="desc">竞品格局分析</text>
<text x="494" y="928" class="desc">YTD进度预警</text>
<text x="494" y="942" class="desc">五一/节点预案</text>

<line x1="664" y1="916" x2="694" y2="916" stroke="#9333ea" stroke-width="1.5" marker-end="url(#b3)"/>

<rect x="704" y="868" width="180" height="96" rx="6" fill="#fef3c7" stroke="#fcd34d" stroke-width="1.5"/>
<rect x="704" y="868" width="180" height="18" rx="6" fill="#fef3c7"/>
<text x="794" y="880" text-anchor="middle" class="pool-label" fill="#b45309">Step 4 · 输出推送</text>
<text x="714" y="900" class="desc">飞书卡片 → 群</text>
<text x="714" y="914" class="desc">私信回执 → 站长</text>
<text x="714" y="928" class="desc">Wiki归档</text>
<text x="714" y="942" class="desc">GitHub备份</text>

<line x1="884" y1="916" x2="914" y2="916" stroke="#ea580c" stroke-width="1.5" marker-end="url(#b4)"/>

<rect x="924" y="868" width="200" height="96" rx="6" fill="#ffe4e6" stroke="#f87171" stroke-width="1.5"/>
<rect x="924" y="868" width="200" height="18" rx="6" fill="#ffe4e6"/>
<text x="1024" y="880" text-anchor="middle" class="pool-label" fill="#dc2626">Step 5 · 反馈闭环</text>
<text x="934" y="900" class="desc">站长确认「对/很好」</text>
<text x="934" y="914" class="desc">纠错「不对/停止」</text>
<text x="934" y="928" class="desc">MEMORY.md铁律更新</text>
<text x="934" y="942" class="desc">SOP/cron同步修复</text>

<line x1="1124" y1="916" x2="1154" y2="916" stroke="#16a34a" stroke-width="1.5" marker-end="url(#b2)"/>

<rect x="1164" y="868" width="190" height="96" rx="6" fill="#dcfce7" stroke="#16a34a" stroke-width="1.5"/>
<rect x="1164" y="868" width="190" height="18" rx="6" fill="#dcfce7"/>
<text x="1259" y="880" text-anchor="middle" class="pool-label" fill="#166534">Step 6 · 知识沉淀</text>
<text x="1174" y="900" class="desc">Wiki竞品档案归档</text>
<text x="1174" y="914" class="desc">concepts/规律提炼</text>
<text x="1174" y="928" class="desc">queries/问题库积累</text>
<text x="1174" y="942" class="desc">Obsidian Sync</text>

<!-- ===== LEGEND ===== -->
<rect x="30" y="984" width="1340" height="24" rx="6" fill="#f9fafb" stroke="#e5e7eb" stroke-width="1"/>
<text x="46" y="1002" class="small">图例：</text>
<rect x="76" y="994" width="12" height="10" rx="2" fill="#dcfce7" stroke="#16a34a" stroke-width="1"/>
<text x="94" y="1004" class="small">已完成</text>
<rect x="140" y="994" width="12" height="10" rx="2" fill="#fef3c7" stroke="#f59e0b" stroke-width="1"/>
<text x="158" y="1004" class="small">待执行</text>
<rect x="206" y="994" width="12" height="10" rx="2" fill="#fef2f2" stroke="#dc2626" stroke-width="1"/>
<text x="224" y="1004" class="small">告警/需关注</text>
<rect x="288" y="994" width="12" height="10" rx="2" fill="#dbeafe" stroke="#2563eb" stroke-width="1"/>
<text x="306" y="1004" class="small">已修复</text>
<text x="380" y="1004" class="small">✅=成功 | ⚠=缺失 | ann→none=推送修复 | ann=announce缩略</text>
<text x="1170" y="1004" class="small" fill="#94a3b8">v2.2 Cron任务时间轴 · 2026-04-28 · 李涯 佛龛</text>
</svg>