<svg xmlns="http://www.w3.org/2000/svg" viewBox="0 0 1400 860" width="1400" height="860">
<style>
  text { font-family: 'Helvetica Neue', Helvetica, Arial, 'PingFang SC', 'Microsoft YaHei', 'Microsoft JhengHei', 'SimHei', sans-serif; }
  .title { font-size: 20px; font-weight: 700; fill: #111827; }
  .subtitle { font-size: 11px; fill: #6b7280; }
  .section { font-size: 13px; font-weight: 700; }
  .layer-head { font-size: 14px; font-weight: 700; }
  .card-title { font-size: 12px; font-weight: 600; }
  .card-sub { font-size: 11px; font-weight: 500; }
  .body { font-size: 9px; fill: #4b5563; }
  .desc { font-size: 9px; fill: #374151; }
  .small { font-size: 8px; fill: #9ca3af; }
  .note { font-size: 9px; fill: #6b7280; }
  .badge { font-size: 9px; font-weight: 600; }
  .tag { font-size: 9px; font-weight: 700; }
  .done { font-size: 10px; font-weight: 600; }
</style>
<defs>
  <marker id="c1" markerWidth="7" markerHeight="5" refX="6" refY="2.5" orient="auto"><polygon points="0 0, 7 2.5, 0 5" fill="#16a34a"/></marker>
  <marker id="c2" markerWidth="7" markerHeight="5" refX="6" refY="2.5" orient="auto"><polygon points="0 0, 7 2.5, 0 5" fill="#2563eb"/></marker>
  <marker id="c3" markerWidth="7" markerHeight="5" refX="6" refY="2.5" orient="auto"><polygon points="0 0, 7 2.5, 0 5" fill="#9333ea"/></marker>
  <marker id="c4" markerWidth="7" markerHeight="5" refX="6" refY="2.5" orient="auto"><polygon points="0 0, 7 2.5, 0 5" fill="#ea580c"/></marker>
  <marker id="c5" markerWidth="7" markerHeight="5" refX="6" refY="2.5" orient="auto"><polygon points="0 0, 7 2.5, 0 5" fill="#ca8a04"/></marker>
</defs>
<rect width="1400" height="860" fill="#fafbfc"/>

<!-- ==================== TITLE ==================== -->
<text x="700" y="30" text-anchor="middle" class="title">热插拔架构 · 项目切换说明</text>
<text x="700" y="50" text-anchor="middle" class="subtitle">Hot-Plug Architecture · 一套系统 N个景区 · 仅改配置层 · 共享引擎层零改动 · 2026-04-27</text>

<!-- ==================== LAYER 1: CONFIG ==================== -->
<rect x="30" y="68" width="1340" height="200" rx="12" fill="#ffffff" stroke="#e5e7eb" stroke-width="1.5"/>
<rect x="30" y="68" width="1340" height="38" rx="12" fill="#f8fafc"/>
<rect x="30" y="90" width="1340" height="18" fill="#f8fafc"/>
<text x="50" y="89" class="layer-head" fill="#374151">配置层 Config Layer</text>
<text x="220" y="89" class="note">切换项目只改这里，引擎层完全不变</text>

<!-- Project A: 电影小镇 (ACTIVE) -->
<rect x="50" y="116" width="360" height="138" rx="10" fill="#dcfce7" stroke="#16a34a" stroke-width="2"/>
<rect x="50" y="116" width="360" height="26" rx="10" fill="#dcfce7"/>
<text x="230" y="134" text-anchor="middle" class="card-title" fill="#166534">项目 A · 建业电影小镇</text>
<text x="230" y="135" text-anchor="middle" class="tag" fill="#166534">✅ 当前激活</text>

<text x="66" y="157" class="desc">景区名：建业电影小镇</text>
<text x="66" y="171" class="desc">关键词池：8个核心景区</text>
<text x="66" y="185" class="desc">竞品池：21个景区轮换</text>
<text x="66" y="199" class="desc">数据源：CDP(18800) / CSV / 百度</text>
<text x="66" y="213" class="desc">飞书群：oc_2581(电影小镇群)</text>
<text x="66" y="227" class="desc">配置路径：scripts/config/movie_town.json</text>

<!-- Project B: 待扩展 -->
<rect x="430" y="116" width="280" height="138" rx="10" fill="#ffffff" stroke="#bfdbfe" stroke-width="1.5" stroke-dasharray="6,4"/>
<rect x="430" y="116" width="280" height="26" rx="10" fill="#dbeafe"/>
<text x="570" y="134" text-anchor="middle" class="card-sub" fill="#1e40af">项目 B · 其他景区（待扩展）</text>

<text x="446" y="157" class="note">景区名：（配置中）</text>
<text x="446" y="171" class="note">关键词池：（配置中）</text>
<text x="446" y="185" class="note">竞品池：（配置中）</text>
<text x="446" y="199" class="note">数据源：CDP / CSV / 百度</text>
<text x="446" y="213" class="note">飞书群：（配置中）</text>
<text x="570" y="233" text-anchor="middle" class="small">替换配置文件即可激活</text>

<!-- Project N: 更多景区 -->
<rect x="730" y="116" width="260" height="138" rx="10" fill="#ffffff" stroke="#e5e7eb" stroke-width="1.5" stroke-dasharray="6,4"/>
<rect x="730" y="116" width="260" height="26" rx="10" fill="#f1f5f9"/>
<text x="860" y="134" text-anchor="middle" class="card-sub" fill="#64748b">项目 N · 更多景区...</text>

<text x="746" y="157" class="small">镜像扩展 · 无数量上限</text>
<text x="746" y="171" class="small">新增景区 = 复制配置模板</text>
<text x="746" y="185" class="small">复用全部脚本 / SOP / Cron</text>
<text x="746" y="199" class="small">输出格式完全统一</text>
<text x="860" y="233" text-anchor="middle" class="small">架构支持无限扩展</text>

<!-- Switch Mechanism -->
<rect x="1010" y="116" width="340" height="138" rx="10" fill="#fef3c7" stroke="#f59e0b" stroke-width="2"/>
<rect x="1010" y="116" width="340" height="26" rx="10" fill="#fef3c7"/>
<text x="1030" y="134" class="card-title" fill="#b45309">🔄 切换机制（4步完成）</text>

<text x="1026" y="160" class="desc">① 替换 scripts/config/{景区}.json</text>
<text x="1026" y="174" class="desc">② 更新 cron 关键词池配置</text>
<text x="1026" y="188" class="desc">③ 切换飞书推送群 ID</text>
<text x="1026" y="202" class="desc">④ 替换 USER.md 项目名称</text>

<text x="1180" y="220" text-anchor="middle" class="badge" fill="#b45309">执行一次 = 全系统切换</text>
<text x="1180" y="234" text-anchor="middle" class="small">无需修改任何脚本 / SOP / Cron</text>

<!-- ==================== LAYER 2: SHARED ENGINE ==================== -->
<rect x="30" y="284" width="1340" height="440" rx="12" fill="#ffffff" stroke="#e5e7eb" stroke-width="1.5"/>
<rect x="30" y="284" width="1340" height="38" rx="12" fill="#f8fafc"/>
<rect x="30" y="306" width="1340" height="18" fill="#f8fafc"/>
<text x="50" y="305" class="layer-head" fill="#1e40af">共享引擎层 Shared Engine</text>
<text x="250" y="305" class="note">切换项目时完全不变，零改动</text>

<!-- Scripts -->
<rect x="50" y="332" width="280" height="130" rx="8" fill="#fff7ed" stroke="#ea580c" stroke-width="1.5"/>
<rect x="50" y="332" width="280" height="22" rx="8" fill="#fef3c7"/>
<text x="190" y="347" text-anchor="middle" class="card-title" fill="#c2410c">55个 Playwright Scripts</text>

<text x="66" y="370" class="desc">douyin_index_v9.py</text>
<text x="190" y="370" text-anchor="middle" class="small">输入关键词 → 抖音指数</text>
<text x="66" y="386" class="desc">cdp_keyword_deep.py</text>
<text x="190" y="386" text-anchor="middle" class="small">四平台 → 结构化报告</text>
<text x="66" y="402" class="desc">xiaohongshu_crawl.py</text>
<text x="190" y="402" text-anchor="middle" class="small">URL → 爆款笔记列表</text>
<text x="66" y="418" class="desc">industry_news_browser.py</text>
<text x="190" y="418" text-anchor="middle" class="small">行业热点追踪</text>
<text x="66" y="434" class="desc">sync_obsidian_daily.py</text>
<text x="190" y="434" text-anchor="middle" class="small">CSV → Wiki 写入</text>
<text x="190" y="452" text-anchor="middle" class="badge" fill="#c2410c">配置里改景区名，全量复用</text>

<!-- SOPs -->
<rect x="350" y="332" width="280" height="130" rx="8" fill="#ede9fe" stroke="#9333ea" stroke-width="1.5"/>
<rect x="350" y="332" width="280" height="22" rx="8" fill="#ede9fe"/>
<text x="490" y="347" text-anchor="middle" class="card-title" fill="#7c3aed">14个 SOPs（完全共享）</text>

<text x="366" y="370" class="desc">抖音指数日报 SOP</text>
<text x="490" y="370" text-anchor="middle" class="small">输入关键词 → 飞书卡片</text>
<text x="366" y="386" class="desc">竞品关键词分析 SOP</text>
<text x="490" y="386" text-anchor="middle" class="small">四平台 → Wiki归档</text>
<text x="366" y="402" class="desc">周度客流报告 SOP</text>
<text x="490" y="402" text-anchor="middle" class="small">CSV → 飞书卡片</text>
<text x="366" y="418" class="desc">小红书日报 SOP</text>
<text x="490" y="418" text-anchor="middle" class="small">灵犀 → 飞书群</text>
<text x="490" y="434" text-anchor="middle" class="desc">+ 10个其他 SOP</text>
<text x="490" y="452" text-anchor="middle" class="badge" fill="#7c3aed">结构 / 章节 / 输出格式完全统一</text>

<!-- Cron Jobs -->
<rect x="650" y="332" width="280" height="130" rx="8" fill="#dbeafe" stroke="#2563eb" stroke-width="1.5"/>
<rect x="650" y="332" width="280" height="22" rx="8" fill="#dbeafe"/>
<text x="790" y="347" text-anchor="middle" class="card-title" fill="#1e40af">20个 Cron Jobs（完全共享）</text>

<text x="666" y="370" class="desc">09:30 周度客流洞察</text>
<text x="790" y="370" text-anchor="middle" class="small">读取配置 → 输出到群</text>
<text x="666" y="386" class="desc">15:00 竞品关键词轮换</text>
<text x="790" y="386" text-anchor="middle" class="small">读池 → 执行 → Wiki → 群</text>
<text x="666" y="402" class="desc">22:00 每日复盘整合</text>
<text x="790" y="402" text-anchor="middle" class="small">日志 → Wiki → GitHub</text>
<text x="666" y="418" class="desc">周日 Wiki 健康检查</text>
<text x="790" y="418" text-anchor="middle" class="small">竞品完整性 / LINT漂移</text>
<text x="790" y="434" text-anchor="middle" class="desc">+ 更多 Cron...</text>
<text x="790" y="452" text-anchor="middle" class="badge" fill="#1e40af">切换项目 = 改关键词池配置</text>

<!-- MiniMax + Feishu -->
<rect x="950" y="332" width="280" height="130" rx="8" fill="#ccfbf1" stroke="#0891b2" stroke-width="1.5"/>
<rect x="950" y="332" width="280" height="22" rx="8" fill="#ccfbf1"/>
<text x="1090" y="347" text-anchor="middle" class="card-title" fill="#0e7490">MiniMax CLI + Feishu API</text>

<text x="966" y="370" class="desc">mmx image / speech / music</text>
<text x="1090" y="370" text-anchor="middle" class="small">素材生成（景区无关）</text>
<text x="966" y="386" class="desc">mmx search</text>
<text x="1090" y="386" text-anchor="middle" class="small">150次/周，够用</text>
<text x="966" y="402" class="desc">send_feishu_card.py</text>
<text x="1090" y="402" text-anchor="middle" class="small">飞书卡片推送（群ID变）</text>
<text x="966" y="418" class="desc">batch_insert_feishu.py</text>
<text x="1090" y="418" text-anchor="middle" class="small">Bitable 数据记录</text>
<text x="1090" y="434" text-anchor="middle" class="desc">send_feishu_card.py · schema 2.0</text>
<text x="1090" y="452" text-anchor="middle" class="badge" fill="#0e7490">工具层完全共享，零改动</text>

<!-- Row 2: Bottom tier of shared engine -->

<!-- CDP Browser -->
<rect x="50" y="480" width="280" height="92" rx="8" fill="#fff7ed" stroke="#ea580c" stroke-width="1.5"/>
<rect x="50" y="480" width="280" height="22" rx="8" fill="#fef3c7"/>
<text x="190" y="495" text-anchor="middle" class="card-title" fill="#c2410c">CDP Browser (Port 18800)</text>
<text x="66" y="518" class="desc">专属 Chrome · 已登录态 · Tab 0-6</text>
<text x="66" y="532" class="desc">Tab0 小红书灵犀 / Tab4 抖音指数</text>
<text x="66" y="546" class="desc">保持已登录 Cookie · 切换项目 = 切换Tab配置</text>
<text x="190" y="564" text-anchor="middle" class="badge" fill="#dc2626">⚠ 需账号登录（通用限制）</text>

<!-- GitHub + Obsidian -->
<rect x="350" y="480" width="280" height="92" rx="8" fill="#ccfbf1" stroke="#0891b2" stroke-width="1.5"/>
<rect x="350" y="480" width="280" height="22" rx="8" fill="#ccfbf1"/>
<text x="490" y="495" text-anchor="middle" class="card-title" fill="#0e7490">GitHub Vault + Obsidian Sync</text>
<text x="366" y="518" class="desc">wiki/竞品分析/*.md → GitHub 备份</text>
<text x="366" y="532" class="desc">sync_obsidian_daily.py → knowledge/</text>
<text x="366" y="546" class="desc">所有景区共享同一备份仓库</text>
<text x="490" y="564" text-anchor="middle" class="badge" fill="#16a34a">✅ 自动同步，无需手动操作</text>

<!-- Memory System -->
<rect x="650" y="480" width="280" height="92" rx="8" fill="#ede9fe" stroke="#9333ea" stroke-width="1.5"/>
<rect x="650" y="480" width="280" height="22" rx="8" fill="#ede9fe"/>
<text x="790" y="495" text-anchor="middle" class="card-title" fill="#7c3aed">MEMORY.md + Daily 日志</text>
<text x="666" y="518" class="desc">MEMORY.md：铁律 / 反馈 / 项目状态</text>
<text x="666" y="532" class="desc">memory/YYYY-MM-DD.md：每日日志</text>
<text x="666" y="546" class="desc">切换项目不影响记忆系统结构</text>
<text x="790" y="564" text-anchor="middle" class="badge" fill="#7c3aed">✅ 跨项目共享，景区状态隔离</text>

<!-- LLM Wiki -->
<rect x="950" y="480" width="280" height="92" rx="8" fill="#e9d5ff" stroke="#a855f7" stroke-width="1.5"/>
<rect x="950" y="480" width="280" height="22" rx="8" fill="#e9d5ff"/>
<text x="1090" y="495" text-anchor="middle" class="card-title" fill="#7c3aed">LLM 知识层 karpathy-wiki</text>
<text x="966" y="518" class="desc">sources / concepts / entities / queries</text>
<text x="966" y="532" class="desc">切换项目 = 新增对应目录数据</text>
<text x="966" y="546" class="desc">不替换，只新增 / 扩展</text>
<text x="1090" y="564" text-anchor="middle" class="badge" fill="#7c3aed">✅ 知识积累跨项目复用</text>

<!-- ==================== LAYER 3: OUTPUT ==================== -->
<rect x="30" y="740" width="1340" height="100" rx="12" fill="#ffffff" stroke="#e5e7eb" stroke-width="1.5"/>
<rect x="30" y="740" width="1340" height="38" rx="12" fill="#f8fafc"/>
<rect x="30" y="762" width="1340" height="18" fill="#f8fafc"/>
<text x="50" y="761" class="layer-head" fill="#374151">统一输出层</text>
<text x="200" y="761" class="note">格式不变，目标群 / 路径随项目配置而变</text>

<!-- Output: 飞书卡片 -->
<rect x="50" y="792" width="200" height="38" rx="6" fill="#dcfce7" stroke="#16a34a" stroke-width="1"/>
<text x="150" y="807" text-anchor="middle" class="desc">飞书卡片 → 切换群ID</text>
<text x="150" y="821" text-anchor="middle" class="small">oc_2581(小镇) / oc_f109(推送)</text>

<!-- Output: Wiki -->
<rect x="270" y="792" width="200" height="38" rx="6" fill="#dcfce7" stroke="#16a34a" stroke-width="1"/>
<text x="370" y="807" text-anchor="middle" class="desc">Wiki归档 → 景区目录</text>
<text x="370" y="821" text-anchor="middle" class="small">wiki/竞品分析/*.md</text>

<!-- Output: GitHub -->
<rect x="490" y="792" width="200" height="38" rx="6" fill="#dcfce7" stroke="#16a34a" stroke-width="1"/>
<text x="590" y="807" text-anchor="middle" class="desc">GitHub备份 → 自动同步</text>
<text x="590" y="821" text-anchor="middle" class="small">vault backup · 每日多次</text>

<!-- Output: CSV -->
<rect x="710" y="792" width="200" height="38" rx="6" fill="#dcfce7" stroke="#16a34a" stroke-width="1"/>
<text x="810" y="807" text-anchor="middle" class="desc">CSV数据 → Desktop路径</text>
<text x="810" y="821" text-anchor="middle" class="small">2026游客量统计.csv</text>

<!-- Output: Bitable -->
<rect x="930" y="792" width="200" height="38" rx="6" fill="#fef3c7" stroke="#f59e0b" stroke-width="1"/>
<text x="1030" y="807" text-anchor="middle" class="desc">Bitable → 表结构统一</text>
<text x="1030" y="821" text-anchor="middle" class="small">理论存在，实际未接入cron</text>

<!-- Output: MiniMax -->
<rect x="1150" y="792" width="200" height="38" rx="6" fill="#ede9fe" stroke="#9333ea" stroke-width="1"/>
<text x="1250" y="807" text-anchor="middle" class="desc">MiniMax → 素材生成</text>
<text x="1250" y="821" text-anchor="middle" class="small">image / speech / music</text>

<!-- ==================== LEGEND ==================== -->
<rect x="30" y="850" width="1340" height="24" rx="6" fill="#f9fafb" stroke="#e5e7eb" stroke-width="1"/>
<text x="46" y="868" class="small">图例：</text>
<rect x="76" y="860" width="14" height="10" rx="2" fill="#dcfce7" stroke="#16a34a" stroke-width="1"/>
<text x="96" y="870" class="small">配置层（可变）</text>
<rect x="168" y="860" width="14" height="10" rx="2" fill="#dbeafe" stroke="#2563eb" stroke-width="1"/>
<text x="188" y="870" class="small">共享引擎（不变）</text>
<rect x="268" y="860" width="14" height="10" rx="2" fill="#f9fafb" stroke="#e5e7eb" stroke-width="1"/>
<text x="288" y="870" class="small">待扩展</text>
<line x1="360" y1="866" x2="395" y2="866" stroke="#16a34a" stroke-width="1.5" marker-end="url(#c1)"/>
<text x="402" y="870" class="small">切换路径</text>
<text x="458" y="870" class="small">⚠ 所有平台均需登录认证（通用限制，不因项目而异）</text>
<text x="1140" y="870" class="small" fill="#94a3b8">v2.1 热插拔架构图 · 2026-04-27 · 李涯 佛龛</text>
</svg>