<svg xmlns="http://www.w3.org/2000/svg" viewBox="0 0 1200 680" width="1200" height="680">
<style>
  text { font-family: 'Helvetica Neue', Helvetica, Arial, 'PingFang SC', 'Microsoft YaHei', 'SimHei', sans-serif; }
  .title { font-size: 22px; font-weight: 700; fill: #111827; }
  .subtitle { font-size: 11px; fill: #6b7280; }
  .section { font-size: 13px; font-weight: 700; }
  .step-head { font-size: 11px; font-weight: 700; }
  .head { font-size: 10px; font-weight: 600; }
  .body { font-size: 9px; fill: #4b5563; }
  .small { font-size: 8px; fill: #9ca3af; }
  .done { font-size: 10px; font-weight: 600; }
  .badge { font-size: 9px; font-weight: 600; }
  .center-badge { font-size: 10px; font-weight: 600; }
</style>
<defs>
  <marker id="f1" markerWidth="8" markerHeight="6" refX="7" refY="3" orient="auto"><polygon points="0 0, 8 3, 0 6" fill="#dc2626"/></marker>
  <marker id="f2" markerWidth="8" markerHeight="6" refX="7" refY="3" orient="auto"><polygon points="0 0, 8 3, 0 6" fill="#16a34a"/></marker>
  <marker id="f3" markerWidth="8" markerHeight="6" refX="7" refY="3" orient="auto"><polygon points="0 0, 8 3, 0 6" fill="#2563eb"/></marker>
  <marker id="f4" markerWidth="8" markerHeight="6" refX="7" refY="3" orient="auto"><polygon points="0 0, 8 3, 0 6" fill="#9333ea"/></marker>
</defs>
<rect width="1200" height="680" fill="#fafbfc"/>

<!-- ===== TITLE ===== -->
<text x="600" y="30" text-anchor="middle" class="title">铁律反馈闭环 · 从纠错到系统升级</text>
<text x="600" y="48" text-anchor="middle" class="subtitle">MEMORY.md铁律机制 · Cron/SOP同步修复 · Feedback Loop · 2026-04-28</text>

<!-- ===== LEFT SIDE: NEGATIVE FEEDBACK (纠错) ===== -->
<rect x="30" y="64" width="340" height="560" rx="12" fill="#ffffff" stroke="#e5e7eb" stroke-width="1.5"/>
<rect x="30" y="64" width="340" height="36" rx="12" fill="#fef2f2"/>
<text x="200" y="85" text-anchor="middle" class="section" fill="#dc2626">❌ 负向反馈 · 纠错闭环</text>

<!-- Step 1: 站长发出纠错信号 -->
<rect x="46" y="112" width="308" height="88" rx="8" fill="#fef2f2" stroke="#fca5a5" stroke-width="1.5"/>
<rect x="46" y="112" width="308" height="26" rx="8" fill="#fee2e2"/>
<text x="200" y="130" text-anchor="middle" class="step-head" fill="#dc2626">Step 1 · 站长发出纠错信号</text>
<text x="60" y="154" class="body">触发词：「不对」「停止」「不要」</text>
<text x="60" y="168" class="body">场景：AI执行结果与预期不符</text>
<text x="60" y="182" class="body">示例：抖音指数表格格式有误</text>

<!-- Step 2: MEMORY.md写入feedback -->
<rect x="46" y="214" width="308" height="90" rx="8" fill="#ffe4e6" stroke="#f87171" stroke-width="1.5"/>
<rect x="46" y="214" width="308" height="26" rx="8" fill="#ffe4e6"/>
<text x="200" y="232" text-anchor="middle" class="step-head" fill="#dc2626">Step 2 · MEMORY.md 写入铁律</text>
<text x="60" y="256" class="body">创建 [feedback] 分类 entry</text>
<text x="60" y="270" class="body">格式：**规则：** / **Why：**</text>
<text x="60" y="284" class="body">标记：[feedback] · update_time</text>

<!-- Example Case -->
<rect x="46" y="318" width="308" height="70" rx="6" fill="#fff7ed" stroke="#ea580c" stroke-width="1"/>
<text x="60" y="338" class="head" fill="#c2410c">📝 案例：announce修复（04-26）</text>
<text x="60" y="356" class="body">问题：announce模式推完整输出到群</text>
<text x="60" y="370" class="body">修复：cron jobs.json announce→none</text>
<text x="60" y="384" class="body">影响：6个cron不再发过程消息</text>

<!-- Step 3: SOP/cron同步 -->
<rect x="46" y="402" width="308" height="90" rx="8" fill="#fef3c7" stroke="#fcd34d" stroke-width="1.5"/>
<rect x="46" y="402" width="308" height="26" rx="8" fill="#fef3c7"/>
<text x="200" y="420" text-anchor="middle" class="step-head" fill="#b45309">Step 3 · SOP / Cron 同步修复</text>
<text x="60" y="444" class="body">① 找到对应的 SOP 文件</text>
<text x="60" y="458" class="body">② 更新 cron prompt 章节结构</text>
<text x="60" y="472" class="body">③ 验证：下次执行按新规则运行</text>

<!-- 闭环完成 -->
<rect x="46" y="506" width="308" height="56" rx="6" fill="#f0fdf4" stroke="#86efac" stroke-width="1"/>
<text x="200" y="524" text-anchor="middle" class="head" fill="#166534">✅ 闭环完成标志</text>
<text x="60" y="542" class="body">MEMORY.md记录 · SOP已更新 · Cron已同步</text>
<text x="60" y="558" class="body">下次同类任务 → 新铁律自动生效</text>

<!-- Arrow: left to center -->
<line x1="370" y1="340" x2="430" y2="340" stroke="#dc2626" stroke-width="2" marker-end="url(#f1)"/>
<text x="400" y="332" text-anchor="middle" class="small" fill="#dc2626">纠错</text>

<!-- ===== CENTER: MEMORY.md CORE ===== -->
<rect x="440" y="180" width="320" height="300" rx="12" fill="#1e293b" stroke="#334155" stroke-width="2"/>
<rect x="440" y="180" width="320" height="36" rx="12" fill="#1e293b"/>
<text x="600" y="198" text-anchor="middle" class="section" fill="#f8fafc">MEMORY.md 铁律中枢</text>
<text x="600" y="215" text-anchor="middle" class="small" fill="#94a3b8">长期记忆 · 决策依据 · 跨session连续性</text>

<!-- Role -->
<rect x="456" y="228" width="140" height="48" rx="6" fill="#334155"/>
<text x="526" y="246" text-anchor="middle" class="head" fill="#e2e8f0">role</text>
<text x="526" y="264" text-anchor="middle" class="body" fill="#cbd5e1">景区营销中心</text>

<!-- update_time -->
<rect x="616" y="228" width="128" height="48" rx="6" fill="#334155"/>
<text x="680" y="246" text-anchor="middle" class="head" fill="#e2e8f0">update_time</text>
<text x="680" y="264" text-anchor="middle" class="body" fill="#cbd5e1">2026-04-28</text>

<!-- [feedback] section -->
<rect x="456" y="288" width="288" height="80" rx="6" fill="#334155" stroke="#dc2626" stroke-width="1.5"/>
<text x="470" y="306" class="center-badge" fill="#f87171">[feedback] 最新确认</text>
<text x="470" y="324" class="body" fill="#cbd5e1">announce模式→none（6个cron）</text>
<text x="470" y="340" class="body" fill="#cbd5e1">飞书卡片换行用`<br/>`替代`\n`</text>
<text x="470" y="356" class="body" fill="#cbd5e1">搜索铁律：只用竞品词</text>

<!-- [user] section -->
<rect x="456" y="378" width="288" height="48" rx="6" fill="#334155" stroke="#2563eb" stroke-width="1.5"/>
<text x="470" y="396" class="center-badge" fill="#60a5fa">[user]</text>
<text x="470" y="414" class="body" fill="#cbd5e1">年度目标：客流153万 / 营收1.12亿</text>

<!-- [project] section -->
<rect x="456" y="436" width="288" height="24" rx="4" fill="#334155"/>
<text x="470" y="450" class="center-badge" fill="#4ade80">[project]</text>
<text x="558" y="450" class="body" fill="#cbd5e1">W17完成 · SOP体系修复</text>

<!-- [reference] section -->
<rect x="456" y="466" width="288" height="24" rx="4" fill="#334155"/>
<text x="470" y="480" class="center-badge" fill="#a78bfa">[reference]</text>
<text x="558" y="480" class="body" fill="#cbd5e1">飞书群oc_2581</text>

<!-- ===== RIGHT SIDE: POSITIVE FEEDBACK (确认) ===== -->
<rect x="830" y="64" width="340" height="560" rx="12" fill="#ffffff" stroke="#e5e7eb" stroke-width="1.5"/>
<rect x="830" y="64" width="340" height="36" rx="12" fill="#f0fdf4"/>
<text x="1000" y="85" text-anchor="middle" class="section" fill="#16a34a">✅ 正向反馈 · 确认闭环</text>

<!-- Step 1: 站长说"对/很好/就这样" -->
<rect x="846" y="112" width="308" height="88" rx="8" fill="#f0fdf4" stroke="#86efac" stroke-width="1.5"/>
<rect x="846" y="112" width="308" height="26" rx="8" fill="#dcfce7"/>
<text x="1000" y="130" text-anchor="middle" class="step-head" fill="#16a34a">Step 1 · 站长发出确认信号</text>
<text x="860" y="154" class="body">触发词：「对」「很好」「就这样」</text>
<text x="860" y="168" class="body">场景：AI执行结果符合预期</text>
<text x="860" y="182" class="body">示例：W17报告格式正确</text>

<!-- Step 2: MEMORY.md写入确认 -->
<rect x="846" y="214" width="308" height="76" rx="8" fill="#dcfce7" stroke="#4ade80" stroke-width="1.5"/>
<rect x="846" y="214" width="308" height="26" rx="8" fill="#dcfce7"/>
<text x="1000" y="232" text-anchor="middle" class="step-head" fill="#166534">Step 2 · MEMORY.md 写入确认</text>
<text x="860" y="256" class="body">创建 [feedback] 分类 entry</text>
<text x="860" y="270" class="body">⚠️ 确认成功也要记！不是只记错误</text>
<text x="860" y="284" class="body">正向确认 = 系统能力验证</text>

<!-- W17案例 -->
<rect x="846" y="304" width="308" height="70" rx="6" fill="#fff7ed" stroke="#ea580c" stroke-width="1"/>
<text x="860" y="324" class="head" fill="#c2410c">📝 案例：W17周度最佳实践</text>
<text x="860" y="342" class="body">穿越德化街专项联发（W17）</text>
<text x="860" y="356" class="body">→ 固化为周度报告标配</text>
<text x="860" y="370" class="body">→ 写入SOP：必须联发穿越德化街</text>

<!-- 铁律沉淀 -->
<rect x="846" y="388" width="308" height="88" rx="8" fill="#dcfce7" stroke="#4ade80" stroke-width="1.5"/>
<rect x="846" y="388" width="308" height="26" rx="8" fill="#dcfce7"/>
<text x="1000" y="406" text-anchor="middle" class="step-head" fill="#166534">Step 3 · 铁律沉淀 · 能力进化</text>
<text x="860" y="430" class="body">最佳实践 → SOP标准化</text>
<text x="860" y="444" class="body">成功路径 → Cron prompt嵌入</text>
<text x="860" y="458" class="body">有效方法 → Skills迭代更新</text>

<!-- 知识积累 -->
<rect x="846" y="490" width="308" height="58" rx="6" fill="#f0fdf4" stroke="#86efac" stroke-width="1"/>
<text x="1000" y="510" text-anchor="middle" class="head" fill="#166534">✅ 知识积累 · 能力进化</text>
<text x="860" y="530" class="body">每次「对」= 系统能力的一次确认</text>
<text x="860" y="544" class="body">MEMORY.md 是持续学习的核心证据</text>

<!-- Arrow: right to center -->
<line x1="830" y1="340" x2="770" y2="340" stroke="#16a34a" stroke-width="2" marker-end="url(#f2)"/>
<text x="800" y="332" text-anchor="middle" class="small" fill="#16a34a">确认</text>

<!-- ===== BOTTOM: OVERALL LOOP ===== -->
<rect x="30" y="634" width="1140" height="8" rx="4" fill="#e5e7eb"/>
<text x="60" y="660" class="small" fill="#dc2626">↑ 负向纠错路径</text>
<text x="1140" y="660" text-anchor="end" class="small" fill="#16a34a">↑ 正向确认路径</text>
<text x="600" y="660" text-anchor="middle" class="small" fill="#374151">← 两者都汇聚到 MEMORY.md → 影响下次所有任务执行</text>

<!-- ===== LEGEND ===== -->
<rect x="30" y="624" width="1140" height="22" rx="4" fill="#f9fafb" stroke="#e5e7eb" stroke-width="1"/>
<text x="46" y="640" class="small">图例：</text>
<rect x="76" y="632" width="12" height="10" rx="2" fill="#fee2e2" stroke="#f87171" stroke-width="1"/>
<text x="94" y="642" class="small">负向纠错</text>
<rect x="160" y="632" width="12" height="10" rx="2" fill="#dcfce7" stroke="#4ade80" stroke-width="1"/>
<text x="178" y="642" class="small">正向确认</text>
<rect x="244" y="632" width="12" height="10" rx="2" fill="#1e293b" stroke="#334155" stroke-width="1"/>
<text x="262" y="642" class="small">MEMORY.md铁律中枢</text>
<text x="380" y="642" class="small">[feedback]=规则纠错和确认都要记录</text>
<text x="900" y="642" class="small" fill="#94a3b8">v2.2 铁律反馈闭环图 · 2026-04-28 · 李涯 佛龛</text>
</svg>