<svg xmlns="http://www.w3.org/2000/svg" viewBox="0 0 1200 620" width="1200" height="620">
<style>
  text { font-family: 'Helvetica Neue', Helvetica, Arial, 'PingFang SC', 'Microsoft YaHei', 'Microsoft JhengHei', 'SimHei', sans-serif; }
  .title { font-size: 20px; font-weight: 700; fill: #111827; }
  .subtitle { font-size: 11px; fill: #6b7280; }
  .section { font-size: 13px; font-weight: 700; }
  .step-head { font-size: 12px; font-weight: 700; }
  .head { font-size: 11px; font-weight: 600; }
  .body { font-size: 9px; fill: #4b5563; }
  .small { font-size: 8px; fill: #9ca3af; }
  .done { font-size: 10px; font-weight: 600; }
  .badge { font-size: 9px; font-weight: 600; }
</style>
<defs>
  <marker id="f1" markerWidth="7" markerHeight="5" refX="6" refY="2.5" orient="auto"><polygon points="0 0, 7 2.5, 0 5" fill="#dc2626"/></marker>
  <marker id="f2" markerWidth="7" markerHeight="5" refX="6" refY="2.5" orient="auto"><polygon points="0 0, 7 2.5, 0 5" fill="#16a34a"/></marker>
  <marker id="f3" markerWidth="7" markerHeight="5" refX="6" refY="2.5" orient="auto"><polygon points="0 0, 7 2.5, 0 5" fill="#2563eb"/></marker>
  <marker id="f4" markerWidth="7" markerHeight="5" refX="6" refY="2.5" orient="auto"><polygon points="0 0, 7 2.5, 0 5" fill="#9333ea"/></marker>
</defs>
<rect width="1200" height="620" fill="#fafbfc"/>

<!-- ===== TITLE ===== -->
<text x="600" y="28" text-anchor="middle" class="title">铁律反馈闭环 · 从纠错到系统升级</text>
<text x="600" y="46" text-anchor="middle" class="subtitle">MEMORY.md铁律机制 · Cron/SOP同步修复 · Feedback Loop · 2026-04-27</text>

<!-- ===== LEFT SIDE: NEGATIVE FEEDBACK (纠错) ===== -->
<rect x="30" y="64" width="340" height="540" rx="10" fill="#ffffff" stroke="#e5e7eb" stroke-width="1.5"/>
<rect x="30" y="64" width="340" height="34" rx="10" fill="#fef2f2"/>
<rect x="30" y="86" width="340" height="12" fill="#fef2f2"/>
<text x="50" y="84" class="section" fill="#dc2626">❌ 负向反馈 · 纠错闭环</text>

<!-- Step: 站长说"不对/停止" -->
<rect x="46" y="108" width="308" height="80" rx="8" fill="#fef2f2" stroke="#fca5a5" stroke-width="1.5"/>
<rect x="46" y="108" width="308" height="22" rx="8" fill="#fee2e2"/>
<text x="200" y="124" text-anchor="middle" class="step-head" fill="#dc2626">Step 1 · 站长发出纠错信号</text>
<text x="60" y="148" class="body">触发词：「不对」「停止」「不要」「从来不行」</text>
<text x="60" y="162" class="body">场景：AI执行结果与预期不符</text>
<text x="60" y="176" class="body">示例：「抖音指数卡片的表格格式错了」「不要用表格」</text>

<!-- Step: MEMORY.md写入feedback -->
<rect x="46" y="202" width="308" height="80" rx="8" fill="#ffe4e6" stroke="#f87171" stroke-width="1.5"/>
<rect x="46" y="202" width="308" height="22" rx="8" fill="#ffe4e6"/>
<text x="200" y="218" text-anchor="middle" class="step-head" fill="#dc2626">Step 2 · MEMORY.md 写入铁律</text>
<text x="60" y="242" class="body">在MEMORY.md创建 [feedback] 分类的 entry</text>
<text x="60" y="256" class="body">格式：**规则：** / **Why：** / **How to apply：**</text>
<text x="60" y="270" class="body">标记：[feedback] 分类 · update_time → 今天日期</text>

<!-- Example: announce修复案例 -->
<rect x="46" y="296" width="308" height="60" rx="6" fill="#fff7ed" stroke="#ea580c" stroke-width="1"/>
<text x="60" y="316" class="head" fill="#c2410c">📝 实际案例（04-26修复）</text>
<text x="60" y="332" class="body">问题：announce模式把agent完整文字推到群里</text>
<text x="60" y="346" class="body">修复：cron jobs.json announce → none（6个cron）</text>

<!-- Step: SOP/cron同步 -->
<rect x="46" y="370" width="308" height="80" rx="8" fill="#fef3c7" stroke="#fcd34d" stroke-width="1.5"/>
<rect x="46" y="370" width="308" height="22" rounded="8" fill="#fef3c7"/>
<text x="200" y="386" text-anchor="middle" class="step-head" fill="#b45309">Step 3 · SOP / Cron 同步修复</text>
<text x="60" y="406" class="body">① 找到对应的 SOP 文件</text>
<text x="60" y="420" class="body">② 更新 cron prompt 中的章节结构</text>
<text x="60" y="434" class="body">③ 验证：下次执行是否按新规则运行</text>

<!-- Step: 验证完成 -->
<rect x="46" y="464" width="308" height="60" rx="6" fill="#f0fdf4" stroke="#86efac" stroke-width="1"/>
<text x="200" y="484" text-anchor="middle" class="head" fill="#166534">✅ 闭环完成标志</text>
<text x="60" y="504" class="body">MEMORY.md 有记录 · SOP 已更新 · Cron 已同步</text>
<text x="60" y="518" class="body">下次同类任务 → 新铁律自动生效</text>

<!-- Arrow: left to center -->
<line x1="370" y1="320" x2="430" y2="320" stroke="#dc2626" stroke-width="2" marker-end="url(#f1)"/>
<text x="400" y="312" text-anchor="middle" class="small" fill="#dc2626">纠错</text>

<!-- ===== CENTER: MEMORY.md CORE ===== -->
<rect x="440" y="180" width="320" height="280" rx="12" fill="#1e293b" stroke="#334155" stroke-width="2"/>
<rect x="440" y="180" width="320" height="34" rx="12" fill="#1e293b"/>
<text x="600" y="198" text-anchor="middle" class="section" fill="#f8fafc">MEMORY.md 铁律中枢</text>
<text x="600" y="215" text-anchor="middle" class="small" fill="#94a3b8">长期记忆 · 决策依据 · 跨session连续性</text>

<!-- Role -->
<rect x="456" y="228" width="130" height="50" rx="6" fill="#334155"/>
<text x="521" y="244" text-anchor="middle" class="head" fill="#e2e8f0">role</text>
<text x="521" y="262" text-anchor="middle" class="body" fill="#cbd5e1">景区营销中心总经理</text>

<!-- update_time -->
<rect x="606" y="228" width="138" height="50" rx="6" fill="#334155"/>
<text x="675" y="244" text-anchor="middle" class="head" fill="#e2e8f0">update_time</text>
<text x="675" y="262" text-anchor="middle" class="body" fill="#cbd5e1">2026-04-28</text>

<!-- [feedback] section -->
<rect x="456" y="290" width="288" height="70" rx="6" fill="#334155" stroke="#dc2626" stroke-width="1"/>
<text x="470" y="308" class="badge" fill="#f87171">[feedback] 最新确认</text>
<text x="470" y="324" class="body" fill="#cbd5e1">announce模式→none（6个cron）</text>
<text x="470" y="338" class="body" fill="#cbd5e1">飞书卡片换行用`<br/>`替代`\n`</text>
<text x="470" y="352" class="body" fill="#cbd5e1">搜索铁律：只用「建业电影小镇」+7个竞品</text>

<!-- [user] section -->
<rect x="456" y="372" width="288" height="50" rx="6" fill="#334155" stroke="#2563eb" stroke-width="1"/>
<text x="470" y="390" class="badge" fill="#60a5fa">[user]</text>
<text x="470" y="406" class="body" fill="#cbd5e1">年度客流153万 / 营收1.12亿 / YTD 525,533</text>

<!-- [project] section -->
<rect x="456" y="434" width="288" height="24" rx="4" fill="#334155"/>
<text x="470" y="450" class="badge" fill="#4ade80">[project]</text>
<text x="560" y="450" class="body" fill="#cbd5e1">W17完成 / SOP体系修复 / 竞品10/21</text>

<!-- [reference] section -->
<rect x="456" y="452" width="288" height="24" rx="4" fill="#334155"/>
<text x="470" y="468" class="badge" fill="#a78bfa">[reference]</text>
<text x="560" y="468" class="body" fill="#cbd5e1">飞书群oc_2581 / CDP 18800 / CSV路径</text>

<!-- ===== RIGHT SIDE: POSITIVE FEEDBACK (确认) ===== -->
<rect x="830" y="64" width="340" height="540" rx="10" fill="#ffffff" stroke="#e5e7eb" stroke-width="1.5"/>
<rect x="830" y="64" width="340" height="34" rx="10" fill="#f0fdf4"/>
<rect x="830" y="86" width="340" height="12" fill="#f0fdf4"/>
<text x="850" y="84" class="section" fill="#16a34a">✅ 正向反馈 · 确认闭环</text>

<!-- Step: 站长说"对/很好/就这样" -->
<rect x="846" y="108" width="308" height="70" rx="8" fill="#f0fdf4" stroke="#86efac" stroke-width="1.5"/>
<rect x="846" y="108" width="308" height="22" rx="8" fill="#dcfce7"/>
<text x="1000" y="124" text-anchor="middle" class="step-head" fill="#16a34a">Step 1 · 站长发出确认信号</text>
<text x="860" y="148" class="body">触发词：「对」「很好」「就这样」「可以」</text>
<text x="860" y="162" class="body">场景：AI执行结果符合预期</text>
<text x="860" y="176" class="body">示例：「格式对了」「W17报告很好」</text>

<!-- Step: MEMORY.md写入确认 -->
<rect x="846" y="192" width="308" height="60" rx="8" fill="#dcfce7" stroke="#4ade80" stroke-width="1"/>
<text x="1000" y="208" text-anchor="middle" class="step-head" fill="#166534">Step 2 · MEMORY.md 写入确认</text>
<text x="860" y="228" class="body">在MEMORY.md创建 [feedback] 分类 entry</text>
<text x="860" y="242" class="body">⚠️ 确认成功也要记！不是只记错误</text>

<!-- W17案例 -->
<rect x="846" y="266" width="308" height="60" rx="6" fill="#fff7ed" stroke="#ea580c" stroke-width="1"/>
<text x="860" y="286" class="head" fill="#c2410c">📝 实际案例（W17最佳实践）</text>
<text x="860" y="302" class="body">穿越德化街专项联发（W17）→ 效果极佳</text>
<text x="860" y="316" class="body">→ 固化为铁律：周度客流报告必须联发穿越德化街</text>

<!-- 铁律沉淀 -->
<rect x="846" y="340" width="308" height="80" rx="8" fill="#dcfce7" stroke="#4ade80" stroke-width="1.5"/>
<rect x="846" y="340" width="308" height="22" rx="8" fill="#dcfce7"/>
<text x="1000" y="356" text-anchor="middle" class="step-head" fill="#166534">Step 3 · 铁律沉淀 · 能力进化</text>
<text x="860" y="376" class="body">最佳实践 → SOP标准化</text>
<text x="860" y="390" class="body">成功路径 → Cron prompt嵌入</text>
<text x="860" y="404" class="body">有效方法 → Skills迭代更新</text>

<!-- 知识积累 -->
<rect x="846" y="434" width="308" height="60" rx="6" fill="#f0fdf4" stroke="#86efac" stroke-width="1"/>
<text x="1000" y="454" text-anchor="middle" class="head" fill="#166534">✅ 知识积累 · 能力进化</text>
<text x="860" y="474" class="body">每次「对」都是一次系统能力确认</text>
<text x="860" y="488" class="body">MEMORY.md 是系统学习的核心证据</text>

<!-- Arrow: right to center -->
<line x1="830" y1="320" x2="770" y2="320" stroke="#16a34a" stroke-width="2" marker-end="url(#f2)"/>
<text x="800" y="312" text-anchor="middle" class="small" fill="#16a34a">确认</text>

<!-- ===== BOTTOM: OVERALL LOOP ===== -->
<rect x="30" y="610" width="1140" height="8" rx="4" fill="#e5e7eb"/>
<rect x="30" y="604" width="1140" height="20" rx="0" fill="#fafbfc"/>
<rect x="30" y="604" width="1140" height="20" rx="0"/>
<text x="50" y="618" class="small" fill="#6b7280">↑ 负向纠错（红色路径）↑</text>
<text x="1150" y="618" text-anchor="end" class="small" fill="#6b7280">↑ 正向确认（绿色路径）↑</text>
<text x="600" y="618" text-anchor="middle" class="small" fill="#374151">← 两者都汇聚到 MEMORY.md → 影响下次所有任务执行</text>

<!-- ===== LEGEND ===== -->
<rect x="30" y="584" width="1140" height="22" rx="4" fill="#f9fafb" stroke="#e5e7eb" stroke-width="1"/>
<text x="46" y="600" class="small">图例：</text>
<rect x="76" y="592" width="12" height="10" rx="2" fill="#fee2e2" stroke="#f87171" stroke-width="1"/>
<text x="94" y="602" class="small">负向纠错</text>
<rect x="160" y="592" width="12" height="10" rx="2" fill="#dcfce7" stroke="#4ade80" stroke-width="1"/>
<text x="178" y="602" class="small">正向确认</text>
<rect x="244" y="592" width="12" height="10" rx="2" fill="#1e293b" stroke="#334155" stroke-width="1"/>
<text x="262" y="602" class="small">MEMORY.md铁律中枢</text>
<text x="380" y="602" class="small">[feedback]分类 = 规则纠错和确认都要记录 | [user][project][reference] = 系统状态</text>
<text x="900" y="602" class="small" fill="#94a3b8">v2.1 铁律反馈闭环图 · 2026-04-28 · 李涯 佛龛</text>
</svg>