<svg xmlns="http://www.w3.org/2000/svg" viewBox="0 0 1200 840" width="1200" height="840">
<style>
  text { font-family: 'Helvetica Neue', Helvetica, Arial, 'PingFang SC', 'Microsoft YaHei', 'SimHei', sans-serif; }
  .title { font-size: 20px; font-weight: 700; fill: #111827; }
  .subtitle { font-size: 11px; fill: #6b7280; }
  .section { font-size: 12px; font-weight: 700; }
  .step-head { font-size: 11px; font-weight: 700; }
  .head { font-size: 10px; font-weight: 600; }
  .body { font-size: 9px; fill: #4b5563; }
  .small { font-size: 8px; fill: #9ca3af; }
  .badge { font-size: 9px; font-weight: 600; }
</style>
<defs>
  <marker id="g1" markerWidth="8" markerHeight="6" refX="7" refY="3" orient="auto"><polygon points="0 0, 8 3, 0 6" fill="#ea580c"/></marker>
  <marker id="g5" markerWidth="8" markerHeight="6" refX="7" refY="3" orient="auto"><polygon points="0 0, 8 3, 0 6" fill="#9333ea"/></marker>
</defs>
<rect width="1200" height="840" fill="#fafbfc"/>

<!-- TITLE -->
<text x="600" y="28" text-anchor="middle" class="title">竞品关键词深度分析 · 详细执行流程</text>
<text x="600" y="46" text-anchor="middle" class="subtitle">15:00 cron · CDP四平台采集 · 7模块结构化 · Wiki归档 · 飞书卡片 · 2026-04-28</text>

<!-- STAGE 0: TRIGGER -->
<rect x="40" y="62" width="1120" height="52" rx="10" fill="#fef3c7" stroke="#f59e0b" stroke-width="2"/>
<rect x="40" y="62" width="1120" height="26" rx="10" fill="#fef3c7"/>
<text x="600" y="80" text-anchor="middle" class="step-head" fill="#b45309">⏰ 15:00 Cron触发 · 竞品关键词深度分析</text>
<text x="60" y="100" class="body">① 读取状态文件 /tmp/daily_task_state.json → next = "阿那亚"</text>
<text x="60" y="112" class="body">② 读取 SOP wiki/SOP/竞品关键词深度分析流程.md</text>
<text x="600" y="112" text-anchor="middle" class="small">cron ID: d486bad5-d8f6-499a-85cb-66a5cc73f381</text>

<!-- STAGE 1: CDP DATA COLLECTION -->
<rect x="40" y="130" width="1120" height="258" rx="10" fill="#ffffff" stroke="#e5e7eb" stroke-width="1.5"/>
<rect x="40" y="130" width="1120" height="32" rx="10" fill="#fff7ed"/>
<text x="60" y="148" class="section" fill="#c2410c">Stage 1 · CDP四平台数据采集（专属Chrome Port 18800）</text>

<!-- Platform 1: 抖音关键词 (176x168) -->
<rect x="56" y="172" width="264" height="168" rx="8" fill="#fef2f2" stroke="#dc2626" stroke-width="1.5"/>
<rect x="56" y="172" width="264" height="24" rx="8" fill="#fee2e2"/>
<text x="188" y="188" text-anchor="middle" class="head" fill="#dc2626">平台 1 · 抖音关键词页</text>
<text x="70" y="212" class="body">脚本：cdp_keyword_deep.py</text>
<text x="70" y="226" class="body">输入：关键词 → Enter</text>
<text x="70" y="240" class="body">等待：页面加载（3-5秒）</text>
<text x="70" y="254" class="body">滚动：找到"关联分析"按钮</text>
<text x="70" y="268" class="body">点击：关联分析 → 等加载</text>
<text x="70" y="282" class="body">点击：人群分析 → 等加载</text>
<text x="70" y="296" class="body">提取：关联词TOP10</text>
<text x="70" y="310" class="body">提取：人群画像4维度</text>
<text x="188" y="332" text-anchor="middle" class="small" fill="#b45309">⚠️ 下午更新，08:00采昨日数据</text>

<!-- Platform 2: 小红书灵犀 (264x168) -->
<rect x="336" y="172" width="264" height="168" rx="8" fill="#fef2f2" stroke="#dc2626" stroke-width="1.5"/>
<rect x="336" y="172" width="264" height="24" rx="8" fill="#fee2e2"/>
<text x="468" y="188" text-anchor="middle" class="head" fill="#dc2626">平台 2 · 小红书灵犀后台</text>
<text x="350" y="212" class="body">URL：idea.xiaohongshu.com</text>
<text x="350" y="226" class="body">Tab0：品牌总览Brand数据</text>
<text x="350" y="240" class="body">操作：JS注入激活搜索框</text>
<text x="350" y="254" class="body">输入：type("关键词", delay=100)</text>
<text x="350" y="268" class="body">按Enter选精确匹配</text>
<text x="350" y="282" class="body">提取：搜索总量/关联词/人群</text>
<text x="350" y="296" class="body">切换：搜索/内容两个Tab</text>
<text x="468" y="318" text-anchor="middle" class="small" fill="#b45309">⚠️ 两个Tab都要抓取</text>

<!-- Platform 3: 小红书内容搜索 (264x168) -->
<rect x="616" y="172" width="264" height="168" rx="8" fill="#fef2f2" stroke="#dc2626" stroke-width="1.5"/>
<rect x="616" y="172" width="264" height="24" rx="8" fill="#fee2e2"/>
<text x="748" y="188" text-anchor="middle" class="head" fill="#dc2626">平台 3 · 小红书内容搜索</text>
<text x="630" y="212" class="body">Tab6：小红书探索页</text>
<text x="630" y="226" class="body">URL：xiaohongshu.com/explore</text>
<text x="630" y="240" class="body">输入：关键词 → 搜索</text>
<text x="630" y="254" class="body">提取：爆款笔记TOP10</text>
<text x="630" y="268" class="body">记录：点赞/收藏/评论</text>
<text x="630" y="282" class="body">记录：博主类型</text>
<text x="630" y="296" class="body">规律：标题公式/内容类型</text>
<text x="748" y="318" text-anchor="middle" class="small" fill="#16a34a">✅ Tab6 URL直采</text>

<!-- Platform 4: 百度 (264x168) -->
<rect x="896" y="172" width="264" height="168" rx="8" fill="#f0fdf4" stroke="#16a34a" stroke-width="1.5"/>
<rect x="896" y="172" width="264" height="24" rx="8" fill="#dcfce7"/>
<text x="1028" y="188" text-anchor="middle" class="head" fill="#16a34a">平台 4 · 百度百科/搜索</text>
<text x="910" y="212" class="body">Tab3：百度.com</text>
<text x="910" y="226" class="body">搜索：关键词</text>
<text x="910" y="240" class="body">提取：票价/规模/媒体报道</text>
<text x="910" y="254" class="body">百科：baike.baidu.com</text>
<text x="910" y="268" class="body">搜索：baidu.com/s?wd=</text>
<text x="910" y="282" class="body">舆情：正负向标签</text>
<text x="1028" y="308" text-anchor="middle" class="small" fill="#16a34a">✅ 公开可访问</text>

<!-- Arrow: Stage1 → Stage2 -->
<line x1="600" y1="378" x2="600" y2="404" stroke="#ea580c" stroke-width="2" marker-end="url(#g1)"/>
<text x="615" y="394" class="small" fill="#c2410c">数据汇集</text>

<!-- STAGE 2: AI ANALYSIS -->
<rect x="40" y="410" width="1120" height="210" rx="10" fill="#ffffff" stroke="#e5e7eb" stroke-width="1.5"/>
<rect x="40" y="410" width="1120" height="32" rx="10" fill="#f5f3ff"/>
<text x="60" y="428" class="section" fill="#7c3aed">Stage 2 · AI分析 · 七模块结构化（MiniMax M2.7）</text>

<!-- 7 modules in grid (148x52 each, gap 10) -->
<rect x="56" y="456" width="148" height="52" rx="6" fill="#ede9fe" stroke="#9333ea" stroke-width="1"/>
<text x="130" y="472" text-anchor="middle" class="badge" fill="#7c3aed">模块 1 · 核心数据</text>
<text x="130" y="488" text-anchor="middle" class="body">搜索/综合指数</text>
<text x="130" y="502" text-anchor="middle" class="body">地理/级别</text>

<rect x="214" y="456" width="148" height="52" rx="6" fill="#ede9fe" stroke="#9333ea" stroke-width="1"/>
<text x="288" y="472" text-anchor="middle" class="badge" fill="#7c3aed">模块 2 · 抖音数据</text>
<text x="288" y="488" text-anchor="middle" class="body">关联词TOP10</text>
<text x="288" y="502" text-anchor="middle" class="body">人群画像4维度</text>

<rect x="372" y="456" width="148" height="52" rx="6" fill="#ede9fe" stroke="#9333ea" stroke-width="1"/>
<text x="446" y="472" text-anchor="middle" class="badge" fill="#7c3aed">模块 3 · 小红书</text>
<text x="446" y="488" text-anchor="middle" class="body">搜索总量/热度</text>
<text x="446" y="502" text-anchor="middle" class="body">爆款笔记</text>

<rect x="530" y="456" width="148" height="52" rx="6" fill="#ede9fe" stroke="#9333ea" stroke-width="1"/>
<text x="604" y="472" text-anchor="middle" class="badge" fill="#7c3aed">模块 4 · 内容规律</text>
<text x="604" y="488" text-anchor="middle" class="body">爆款标题公式</text>
<text x="604" y="502" text-anchor="middle" class="body">博主/内容类型</text>

<rect x="688" y="456" width="148" height="52" rx="6" fill="#ede9fe" stroke="#9333ea" stroke-width="1"/>
<text x="762" y="472" text-anchor="middle" class="badge" fill="#7c3aed">模块 5 · 百度数据</text>
<text x="762" y="488" text-anchor="middle" class="body">票价/规模/舆情</text>
<text x="762" y="502" text-anchor="middle" class="body">百科</text>

<rect x="846" y="456" width="148" height="52" rx="6" fill="#ede9fe" stroke="#9333ea" stroke-width="1"/>
<text x="920" y="472" text-anchor="middle" class="badge" fill="#7c3aed">模块 6 · 规律洞察</text>
<text x="920" y="488" text-anchor="middle" class="body">爆款逻辑/季节性</text>
<text x="920" y="502" text-anchor="middle" class="body">人群特征</text>

<rect x="1004" y="456" width="136" height="52" rx="6" fill="#ede9fe" stroke="#9333ea" stroke-width="1"/>
<text x="1072" y="472" text-anchor="middle" class="badge" fill="#7c3aed">模块 7 · 借鉴</text>
<text x="1072" y="488" text-anchor="middle" class="body">电影小镇</text>
<text x="1072" y="502" text-anchor="middle" class="body">应用建议</text>

<!-- 分析要点 (height 78) -->
<rect x="56" y="522" width="1084" height="78" rx="6" fill="#f8fafc" stroke="#e5e7eb" stroke-width="1"/>
<text x="70" y="542" class="body">分析要点：四平台数据交叉验证 → 综合指数排序 → 环比涨跌（>±20%标注🔺）</text>
<text x="70" y="558" class="body">人群画像4字段完整性校验：年龄/性别/地域/兴趣偏好（缺一标注"—"）</text>
<text x="70" y="574" class="body">数据缺失标注"-" · 禁止猜测 · 分析深度：不止报数字，要分析"为什么"和"意味着什么"</text>
<text x="70" y="590" class="body">四平台：抖音/小红书/百度/内容搜索</text>

<!-- Arrow: Stage2 → Stage3 -->
<line x1="600" y1="618" x2="600" y2="642" stroke="#9333ea" stroke-width="2" marker-end="url(#g5)"/>
<text x="615" y="632" class="small" fill="#7c3aed">结构化报告</text>

<!-- STAGE 3: OUTPUT -->
<rect x="40" y="652" width="1120" height="176" rx="10" fill="#ffffff" stroke="#e5e7eb" stroke-width="1.5"/>
<rect x="40" y="652" width="1120" height="32" rx="10" fill="#dcfce7"/>
<text x="60" y="670" class="section" fill="#166534">Stage 3 · 输出：Wiki归档 + 飞书卡片推送 + 状态更新</text>

<!-- Wiki归档 -->
<rect x="56" y="698" width="280" height="110" rx="6" fill="#dcfce7" stroke="#16a34a" stroke-width="1.5"/>
<rect x="56" y="698" width="280" height="22" rx="6" fill="#dcfce7"/>
<text x="196" y="712" text-anchor="middle" class="head" fill="#166534">Step 1 · Wiki归档（强制）</text>
<text x="70" y="738" class="body">路径：wiki/竞品分析/阿那亚.md</text>
<text x="70" y="752" class="body">内容：7模块 + 人群画像 + 规律洞察</text>
<text x="70" y="766" class="body">补录：老君山/重渡沟/龙门/海昌</text>
<text x="70" y="780" class="body">时间：分析完成后立即写入</text>

<!-- 飞书卡片 -->
<rect x="356" y="698" width="280" height="110" rx="6" fill="#dcfce7" stroke="#16a34a" stroke-width="1.5"/>
<rect x="356" y="698" width="280" height="22" rx="6" fill="#dcfce7"/>
<text x="496" y="712" text-anchor="middle" class="head" fill="#166534">Step 2 · 飞书卡片推送</text>
<text x="370" y="738" class="body">发送至：电影小镇群 oc_2581...</text>
<text x="370" y="752" class="body">格式：schema 2.0 · elements[]</text>
<text x="370" y="766" class="body">卡片数：≤5个（超出拆多张）</text>
<text x="370" y="780" class="body">私信回执 → ou_f308d672...</text>

<!-- 状态更新 -->
<rect x="656" y="698" width="280" height="110" rx="6" fill="#fef3c7" stroke="#f59e0b" stroke-width="1.5"/>
<rect x="656" y="698" width="280" height="22" rx="6" fill="#fef3c7"/>
<text x="796" y="712" text-anchor="middle" class="head" fill="#b45309">Step 3 · 状态文件更新</text>
<text x="670" y="738" class="body">JSON：/tmp/daily_task_state.json</text>
<text x="670" y="752" class="body">操作：阿那亚 next → done</text>
<text x="670" y="766" class="body">更新：下一个竞品（如剑门关）</text>
<text x="670" y="780" class="body">last_updated：2026-04-28</text>

<!-- GitHub备份 -->
<rect x="956" y="698" width="184" height="110" rx="6" fill="#dcfce7" stroke="#16a34a" stroke-width="1"/>
<rect x="956" y="698" width="184" height="22" rx="6" fill="#dcfce7"/>
<text x="1048" y="712" text-anchor="middle" class="head" fill="#166534">Step 4 · GitHub备份</text>
<text x="970" y="738" class="body">vault backup 自动推送</text>
<text x="1048" y="754" text-anchor="middle" class="small">Wiki归档完成</text>
<text x="1048" y="768" text-anchor="middle" class="small">状态已更新</text>
<text x="1048" y="786" text-anchor="middle" class="small" fill="#16a34a">✅ 全流程完成</text>

<!-- LEGEND -->
<rect x="40" y="838" width="1120" height="20" rx="4" fill="#f9fafb" stroke="#e5e7eb" stroke-width="1"/>
<text x="56" y="853" class="small">图例：</text>
<rect x="96" y="845" width="12" height="10" rx="2" fill="#fee2e2" stroke="#dc2626" stroke-width="1"/>
<text x="114" y="855" class="small">CDP采集</text>
<rect x="172" y="845" width="12" height="10" rx="2" fill="#ede9fe" stroke="#9333ea" stroke-width="1"/>
<text x="190" y="855" class="small">AI分析</text>
<rect x="248" y="845" width="12" height="10" rx="2" fill="#dcfce7" stroke="#16a34a" stroke-width="1"/>
<text x="266" y="855" class="small">Wiki/飞书输出</text>
<rect x="324" y="845" width="12" height="10" rx="2" fill="#fef3c7" stroke="#f59e0b" stroke-width="1"/>
<text x="342" y="855" class="small">状态更新</text>
<text x="420" y="855" class="small">⚠=需登录 | ✅=公开访问 | 数据缺失标注"-" | 禁止猜测 | 人群画像4维度必须完整</text>
<text x="1020" y="855" class="small" fill="#94a3b8">v2.3 竞品关键词分析详细流程图 · 2026-04-28 · 李涯 佛龛</text>
</svg>