<svg xmlns="http://www.w3.org/2000/svg" viewBox="0 0 1200 760" width="1200" height="760">
<style>
  text { font-family: 'Helvetica Neue', Helvetica, Arial, 'PingFang SC', 'Microsoft YaHei', 'SimHei', sans-serif; }
  .title { font-size: 20px; font-weight: 700; fill: #111827; }
  .subtitle { font-size: 11px; fill: #6b7280; }
  .section { font-size: 12px; font-weight: 700; }
  .step-head { font-size: 11px; font-weight: 700; }
  .head { font-size: 10px; font-weight: 600; }
  .body { font-size: 9px; fill: #4b5563; }
  .small { font-size: 8px; fill: #9ca3af; }
  .badge { font-size: 9px; font-weight: 600; }
</style>
<defs>
  <marker id="d1" markerWidth="8" markerHeight="6" refX="7" refY="3" orient="auto"><polygon points="0 0, 8 3, 0 6" fill="#2563eb"/></marker>
  <marker id="d4" markerWidth="8" markerHeight="6" refX="7" refY="3" orient="auto"><polygon points="0 0, 8 3, 0 6" fill="#9333ea"/></marker>
</defs>
<rect width="1200" height="760" fill="#fafbfc"/>

<!-- TITLE -->
<text x="600" y="28" text-anchor="middle" class="title">抖音指数日报 · 全流程执行图</text>
<text x="600" y="46" text-anchor="middle" class="subtitle">08:00触发采集 → 10:30飞书卡片推送 · 专属Chrome CDP Port 18800 · 2026-04-28</text>

<!-- STAGE 0: TRIGGER -->
<rect x="40" y="62" width="1120" height="52" rx="10" fill="#eff6ff" stroke="#2563eb" stroke-width="2"/>
<rect x="40" y="62" width="1120" height="26" rx="10" fill="#eff6ff"/>
<text x="600" y="80" text-anchor="middle" class="step-head" fill="#1d4ed8">⏰ 08:00 Cron触发 · 抖音指数日报</text>
<text x="60" y="100" class="body">① 读取 MEMORY.md 最新铁律 · ② 读取 SOP wiki/SOP/抖音指数日报.md · ③ 读取2026游客量统计.csv</text>
<text x="600" y="112" text-anchor="middle" class="small">cron ID: 8a3f... | delivery.mode: none | 推送延迟：10:30</text>

<!-- STAGE 1: DATA COLLECTION -->
<rect x="40" y="130" width="1120" height="198" rx="10" fill="#ffffff" stroke="#e5e7eb" stroke-width="1.5"/>
<rect x="40" y="130" width="1120" height="30" rx="10" fill="#fff7ed"/>
<text x="60" y="148" class="section" fill="#c2410c">Stage 1 · 抖音指数数据采集（CDP Port 18800）</text>

<!-- 采集入口 (360x148) -->
<rect x="56" y="174" width="360" height="148" rx="8" fill="#fef2f2" stroke="#dc2626" stroke-width="1.5"/>
<rect x="56" y="174" width="360" height="24" rx="8" fill="#fee2e2"/>
<text x="236" y="190" text-anchor="middle" class="head" fill="#dc2626">Tab4 · 抖音关键词页</text>
<text x="70" y="214" class="body">URL：creator.douyin.com/.../arithmetic-index</text>
<text x="70" y="230" class="body">脚本：douyin_index_v9.py（Playwright）</text>
<text x="70" y="246" class="body">操作：输入关键词 → Enter → 等3-5秒</text>
<text x="70" y="262" class="body">等待：页面加载完成</text>
<text x="70" y="278" class="body">下滑 → 点击关联分析 → 等加载</text>
<text x="70" y="294" class="body">提取：关联词TOP10 + 人群画像</text>
<text x="236" y="314" text-anchor="middle" class="small" fill="#b45309">⚠️ 下午更新，08:00采昨日数据</text>

<!-- 数据范围 (360x148) -->
<rect x="436" y="174" width="360" height="148" rx="8" fill="#fef2f2" stroke="#dc2626" stroke-width="1.5"/>
<rect x="436" y="174" width="360" height="24" rx="8" fill="#fee2e2"/>
<text x="616" y="190" text-anchor="middle" class="head" fill="#dc2626">采集范围 · 8个景区</text>
<text x="450" y="214" class="body">① 清明上河园 ② 万岁山武侠城</text>
<text x="450" y="230" class="body">③ 银基动物王国 ④ 郑州方特</text>
<text x="450" y="246" class="body">⑤ 建业电影小镇 🔺 ⑥ 郑州海昌</text>
<text x="450" y="262" class="body">⑦ 只有河南戏剧幻城</text>
<text x="450" y="278" class="body">⑧ 只有红楼梦戏剧幻城</text>
<text x="616" y="298" text-anchor="middle" class="body">搜索铁律：「建业电影小镇」+ 7个竞品</text>
<text x="616" y="314" text-anchor="middle" class="small" fill="#16a34a">✅ 禁止「建业华谊兄弟」</text>

<!-- Cookie (320x148) -->
<rect x="816" y="174" width="320" height="148" rx="8" fill="#eff6ff" stroke="#2563eb" stroke-width="1.5"/>
<rect x="816" y="174" width="320" height="24" rx="8" fill="#dbeafe"/>
<text x="976" y="190" text-anchor="middle" class="head" fill="#1d4ed8">Cookie 配置</text>
<text x="830" y="214" class="body">Cookie：/tmp/juLiang_cookies.json</text>
<text x="830" y="230" class="body">代理：127.0.0.1:7897</text>
<text x="830" y="246" class="body">备用CDP：Port 18800</text>
<text x="830" y="262" class="body">账号：聚量传播（juLiang）</text>
<text x="976" y="282" text-anchor="middle" class="small">⚠️ Cookie有效期需定期维护</text>

<!-- Arrow: Stage1 → Stage2 -->
<line x1="600" y1="322" x2="600" y2="348" stroke="#2563eb" stroke-width="2" marker-end="url(#d1)"/>
<text x="615" y="338" class="small" fill="#1d4ed8">数据汇集</text>

<!-- STAGE 2: DATA PROCESSING -->
<rect x="40" y="352" width="1120" height="160" rx="10" fill="#ffffff" stroke="#e5e7eb" stroke-width="1.5"/>
<rect x="40" y="352" width="1120" height="30" rx="10" fill="#f5f3ff"/>
<text x="60" y="370" class="section" fill="#7c3aed">Stage 2 · 数据处理与日报生成（MiniMax M2.7）</text>

<!-- 数据字段 (280x98) -->
<rect x="56" y="396" width="280" height="98" rx="8" fill="#ede9fe" stroke="#9333ea" stroke-width="1"/>
<rect x="56" y="396" width="280" height="22" rx="8" fill="#ede9fe"/>
<text x="196" y="410" text-anchor="middle" class="head" fill="#7c3aed">每个景区提取字段</text>
<text x="70" y="434" class="body">搜索指数（日环比/周环比）</text>
<text x="70" y="450" class="body">综合指数（日环比/周环比）</text>
<text x="70" y="466" class="body">关联词TOP10</text>
<text x="70" y="482" class="body">人群画像（年龄/性别/地域）</text>

<!-- 分析要求 (280x98) -->
<rect x="356" y="396" width="280" height="98" rx="8" fill="#ede9fe" stroke="#9333ea" stroke-width="1"/>
<rect x="356" y="396" width="280" height="22" rx="8" fill="#ede9fe"/>
<text x="496" y="410" text-anchor="middle" class="head" fill="#7c3aed">分析深度要求</text>
<text x="370" y="434" class="body">四不：不猜测/不估算/不遗漏/不编造</text>
<text x="370" y="450" class="body">三知：知道数字+含义+原因</text>
<text x="370" y="466" class="body">涨跌：>±20%标注🔺</text>
<text x="370" y="482" class="body">空值：标注"—"（不得留空）</text>

<!-- 报表内容 (468x98) -->
<rect x="656" y="396" width="484" height="98" rx="8" fill="#ede9fe" stroke="#9333ea" stroke-width="1"/>
<rect x="656" y="396" width="484" height="22" rx="8" fill="#ede9fe"/>
<text x="898" y="410" text-anchor="middle" class="head" fill="#7c3aed">日报内容（5张卡片）</text>
<text x="670" y="434" class="body">卡片1：8大景区搜索/综合指数排名表</text>
<text x="670" y="450" class="body">卡片2：电影小镇关联词TOP10 + 人群画像</text>
<text x="670" y="466" class="body">卡片3：竞品对比（差距原因+机会点）</text>
<text x="670" y="482" class="body">卡片4：深度洞察（规律/为什么/意味着什么）</text>
<text x="670" y="498" class="body">卡片5：行动建议（具体可执行）</text>

<!-- Arrow: Stage2 → Stage3 -->
<line x1="600" y1="512" x2="600" y2="536" stroke="#9333ea" stroke-width="2" marker-end="url(#d4)"/>
<text x="615" y="526" class="small" fill="#7c3aed">飞书卡片生成</text>

<!-- STAGE 3: OUTPUT -->
<rect x="40" y="542" width="1120" height="206" rx="10" fill="#ffffff" stroke="#e5e7eb" stroke-width="1.5"/>
<rect x="40" y="542" width="1120" height="30" rx="10" fill="#dcfce7"/>
<text x="60" y="560" class="section" fill="#166534">Stage 3 · 推送：飞书卡片 + 私信确认 + 状态记录</text>

<!-- 飞书卡片 (340x128) -->
<rect x="56" y="586" width="340" height="128" rx="8" fill="#dcfce7" stroke="#16a34a" stroke-width="1.5"/>
<rect x="56" y="586" width="340" height="22" rx="8" fill="#dcfce7"/>
<text x="226" y="600" text-anchor="middle" class="head" fill="#166534">Step 1 · 飞书卡片推送（10:30）</text>
<text x="70" y="624" class="body">发送至：电影小镇群 oc_2581...</text>
<text x="70" y="640" class="body">格式：schema 2.0 · body.elements[]</text>
<text x="70" y="656" class="body">每卡：≤5个表格（超出拆多张）</text>
<text x="70" y="672" class="body">换行：用`&lt;br/&gt;`替代`\n`</text>
<text x="70" y="688" class="body">标签：header.title.tag = "plain_text"</text>

<!-- 私信确认 (300x128) -->
<rect x="416" y="586" width="300" height="128" rx="8" fill="#dcfce7" stroke="#16a34a" stroke-width="1.5"/>
<rect x="416" y="586" width="300" height="22" rx="8" fill="#dcfce7"/>
<text x="566" y="600" text-anchor="middle" class="head" fill="#166534">Step 2 · 私信回执确认</text>
<text x="430" y="624" class="body">发送至：站长 ou_f308d672...</text>
<text x="430" y="640" class="body">内容：日报已推送 · 请确认格式</text>
<text x="430" y="656" class="body">等待：用户「对」「格式对了」</text>
<text x="430" y="672" class="body">触发：确认成功 → 写入MEMORY.md</text>

<!-- 状态记录 (300x128) -->
<rect x="736" y="586" width="300" height="128" rx="8" fill="#fef3c7" stroke="#f59e0b" stroke-width="1.5"/>
<rect x="736" y="586" width="300" height="22" rx="6" fill="#fef3c7"/>
<text x="886" y="600" text-anchor="middle" class="head" fill="#b45309">Step 3 · 状态文件记录</text>
<text x="750" y="624" class="body">CSV：~/Desktop/2026游客量统计.csv</text>
<text x="750" y="640" class="body">记录：今日YTD/票房/散客/渠道</text>
<text x="750" y="656" class="body">日志：memory/YYYY-MM-DD.md</text>
<text x="750" y="672" class="body">Wiki：wiki/数据/抖音指数/日期.md</text>

<!-- GitHub备份 (120x128) -->
<rect x="1056" y="586" width="104" height="128" rx="6" fill="#dcfce7" stroke="#16a34a" stroke-width="1"/>
<text x="1108" y="600" text-anchor="middle" class="head" fill="#166534">GitHub</text>
<text x="1066" y="624" class="body">vault</text>
<text x="1066" y="640" class="body">backup</text>
<text x="1108" y="660" text-anchor="middle" class="small">自动</text>
<text x="1108" y="676" text-anchor="middle" class="small">推送</text>
<text x="1108" y="696" text-anchor="middle" class="small" fill="#16a34a">✅ 完成</text>

<!-- LEGEND -->
<rect x="40" y="758" width="1120" height="20" rx="4" fill="#f9fafb" stroke="#e5e7eb" stroke-width="1"/>
<text x="56" y="773" class="small">图例：</text>
<rect x="96" y="765" width="12" height="10" rx="2" fill="#fee2e2" stroke="#dc2626" stroke-width="1"/>
<text x="114" y="775" class="small">数据采集</text>
<rect x="172" y="765" width="12" height="10" rx="2" fill="#ede9fe" stroke="#9333ea" stroke-width="1"/>
<text x="190" y="775" class="small">AI分析</text>
<rect x="248" y="765" width="12" height="10" rx="2" fill="#dcfce7" stroke="#16a34a" stroke-width="1"/>
<text x="266" y="775" class="small">飞书输出</text>
<rect x="324" y="765" width="12" height="10" rx="2" fill="#fef3c7" stroke="#f59e0b" stroke-width="1"/>
<text x="342" y="775" class="small">状态记录</text>
<text x="420" y="775" class="small">⚠️=下午数据更新 | ✅=铁律 | 数据必须真实准确 | 禁止猜测估算</text>
<text x="1020" y="775" class="small" fill="#94a3b8">图9 抖音指数日报全流程图 v2 · 2026-04-28 · 李涯 佛龛</text>
</svg>