<svg xmlns="http://www.w3.org/2000/svg" viewBox="0 0 1400 900" width="1400" height="900">
<style>
  text { font-family: 'Helvetica Neue', Helvetica, Arial, 'PingFang SC', 'Microsoft YaHei', 'Microsoft JhengHei', 'SimHei', sans-serif; }
  .small { font-size: 9px; }
  .mono { font-family: 'SF Mono', 'Menlo', monospace; font-size: 9px; }
</style>
<defs>
  <marker id="b-blue" markerWidth="8" markerHeight="6" refX="7" refY="3" orient="auto"><polygon points="0 0, 8 3, 0 6" fill="#2563eb"/></marker>
  <marker id="b-green" markerWidth="8" markerHeight="6" refX="7" refY="3" orient="auto"><polygon points="0 0, 8 3, 0 6" fill="#16a34a"/></marker>
  <marker id="b-purple" markerWidth="8" markerHeight="6" refX="7" refY="3" orient="auto"><polygon points="0 0, 8 3, 0 6" fill="#9333ea"/></marker>
  <marker id="b-orange" markerWidth="8" markerHeight="6" refX="7" refY="3" orient="auto"><polygon points="0 0, 8 3, 0 6" fill="#ea580c"/></marker>
  <marker id="b-red" markerWidth="8" markerHeight="6" refX="7" refY="3" orient="auto"><polygon points="0 0, 8 3, 0 6" fill="#dc2626"/></marker>
  <marker id="b-teal" markerWidth="8" markerHeight="6" refX="7" refY="3" orient="auto"><polygon points="0 0, 8 3, 0 6" fill="#0891b2"/></marker>
  <marker id="b-yellow" markerWidth="8" markerHeight="6" refX="7" refY="3" orient="auto"><polygon points="0 0, 8 3, 0 6" fill="#ca8a04"/></marker>
</defs>
<rect width="1400" height="900" fill="#ffffff"/>

<!-- TITLE -->
<text x="700" y="30" text-anchor="middle" font-size="20" font-weight="700" fill="#0f172a">Data Pipeline · Collection→Analysis→AI Decision→Output→Feedback Loop</text>
<text x="700" y="52" text-anchor="middle" font-size="12" fill="#64748b">Data Pipeline: Raw → Refined → Insight → Decision → Action → Feedback | 2026-04-27</text>

<!-- ===== STAGE 1: 数据采集 ===== -->
<rect x="40" y="75" width="260" height="730" rx="10" fill="#fff7ed" stroke="#fed7aa" stroke-width="2"/>
<text x="60" y="97" font-size="14" font-weight="700" fill="#92400e">Stage 1 · Data Collection</text>
<text x="60" y="112" font-size="10" fill="#6b7280">CDP Logged-in · Playwright</text>

<!-- 采集节点1: 抖音 -->
<rect x="55" y="125" width="230" height="90" rx="8" fill="#ffffff" stroke="#dc2626" stroke-width="1.5"/>
<rect x="55" y="125" width="230" height="22" rx="8" fill="#fef2f2"/>
<text x="170" y="140" text-anchor="middle" font-size="11" font-weight="600" fill="#dc2626">Douyin</text>
<text x="170" y="158" text-anchor="middle" font-size="9" fill="#6b7280">creator.douyin.com</text>
<text x="170" y="172" text-anchor="middle" font-size="9" fill="#6b7280">Tab1 Subscription → 8 scenic data</text>
<text x="170" y="186" text-anchor="middle" font-size="9" fill="#6b7280">Tab3 Keyword → Keywords/Crowd</text>
<text x="170" y="200" text-anchor="middle" font-size="9" fill="#6b7280">脚本：douyin_index_v9.py</text>

<!-- 采集节点2: 小红书灵犀 -->
<rect x="55" y="230" width="230" height="90" rx="8" fill="#ffffff" stroke="#dc2626" stroke-width="1.5"/>
<rect x="55" y="230" width="230" height="22" rx="8" fill="#fef2f2"/>
<text x="170" y="245" text-anchor="middle" font-size="11" font-weight="600" fill="#dc2626">Xiaohongshu Brand · Brand</text>
<text x="170" y="263" text-anchor="middle" font-size="9" fill="#6b7280">idea.xiaohongshu.com</text>
<text x="170" y="277" text-anchor="middle" font-size="9" fill="#6b7280">Tab0 Brand overview · Search volume</text>
<text x="170" y="291" text-anchor="middle" font-size="9" fill="#6b7280">Related keywords TOP10 · Crowd assets</text>
<text x="170" y="305" text-anchor="middle" font-size="9" fill="#6b7280">⚠️ JS injection required to trigger search</text>

<!-- 采集节点3: 小红书内容 -->
<rect x="55" y="335" width="230" height="70" rx="8" fill="#ffffff" stroke="#dc2626" stroke-width="1.5"/>
<rect x="55" y="335" width="230" height="22" rx="8" fill="#fef2f2"/>
<text x="170" y="350" text-anchor="middle" font-size="11" font-weight="600" fill="#dc2626">Xiaohongshu Search Results</text>
<text x="170" y="368" text-anchor="middle" font-size="9" fill="#6b7280">Tab6 Explore → URL direct crawl</text>
<text x="170" y="382" text-anchor="middle" font-size="9" fill="#6b7280">Viral TOP10 · Influencer types</text>
<text x="170" y="396" text-anchor="middle" font-size="9" fill="#6b7280">⚠️ 禁止操作Explore页</text>

<!-- 采集节点4: 百度 -->
<rect x="55" y="420" width="230" height="70" rx="8" fill="#ffffff" stroke="#16a34a" stroke-width="1.5"/>
<rect x="55" y="420" width="230" height="22" rx="8" fill="#f0fdf4"/>
<text x="170" y="435" text-anchor="middle" font-size="11" font-weight="600" fill="#16a34a">百度 · Baidu</text>
<text x="170" y="453" text-anchor="middle" font-size="9" fill="#6b7280">Tab3 百度.com → 票价/规模</text>
<text x="170" y="467" text-anchor="middle" font-size="9" fill="#6b7280">媒体报道 · 舆情监测</text>
<text x="170" y="481" text-anchor="middle" font-size="9" fill="#16a34a">✅ 公开可访问</text>

<!-- 采集节点5: 客流CSV -->
<rect x="55" y="505" width="230" height="80" rx="8" fill="#ffffff" stroke="#2563eb" stroke-width="1.5"/>
<rect x="55" y="505" width="230" height="22" rx="8" fill="#eff6ff"/>
<text x="170" y="520" text-anchor="middle" font-size="11" font-weight="600" fill="#2563eb">客流数据 · CSV</text>
<text x="170" y="538" text-anchor="middle" font-size="9" fill="#6b7280">Desktop/2026游客量统计.csv</text>
<text x="170" y="552" text-anchor="middle" font-size="9" fill="#6b7280">散客/渠道拆分 · YTD累计</text>
<text x="170" y="566" text-anchor="middle" font-size="9" fill="#6b7280">4/20-4/26 W17已补录 ✅</text>
<text x="170" y="580" text-anchor="middle" font-size="9" fill="#6b7280">⚠️ 手动更新下载文件</text>

<!-- 采集节点6: 穿越德化街 -->
<rect x="55" y="600" width="230" height="80" rx="8" fill="#ffffff" stroke="#2563eb" stroke-width="1.5"/>
<rect x="55" y="600" width="230" height="22" rx="8" fill="#eff6ff"/>
<text x="170" y="615" text-anchor="middle" font-size="11" font-weight="600" fill="#2563eb">《穿越德化街》</text>
<text x="170" y="633" text-anchor="middle" font-size="9" fill="#6b7280">演出场次/库存/售卖/上座率</text>
<text x="170" y="647" text-anchor="middle" font-size="9" fill="#6b7280">下载文件(3)提取 → memory/</text>
<text x="170" y="661" text-anchor="middle" font-size="9" fill="#6b7280">W17: 12场/8934张/65.3% ✅</text>

<!-- 采集节点7: 竞品档案 -->
<rect x="55" y="695" width="230" height="70" rx="8" fill="#ffffff" stroke="#2563eb" stroke-width="1.5"/>
<rect x="55" y="695" width="230" height="22" rx="8" fill="#eff6ff"/>
<text x="170" y="710" text-anchor="middle" font-size="11" font-weight="600" fill="#2563eb">竞品档案 · 案例库</text>
<text x="170" y="728" text-anchor="middle" font-size="9" fill="#6b7280">wiki/竞品分析/*.md (10个)</text>
<text x="170" y="742" text-anchor="middle" font-size="9" fill="#6b7280">wiki/全国景区案例库/</text>
<text x="170" y="756" text-anchor="middle" font-size="9" fill="#6b7280">⚠️ Wiki归档缺失4个</text>

<!-- Arrow: 采集 → 清洗 -->
<line x1="300" y1="400" x2="340" y2="400" stroke="#ea580c" stroke-width="2" marker-end="url(#b-orange)"/>

<!-- ===== STAGE 2: 数据清洗/结构化 ===== -->
<rect x="350" y="75" width="240" height="730" rx="10" fill="#f0fdf4" stroke="#86efac" stroke-width="2"/>
<text x="370" y="97" font-size="14" font-weight="700" fill="#166534">Stage 2 · 数据清洗</text>
<text x="370" y="112" font-size="10" fill="#6b7280">结构化 · 一致性校验</text>

<!-- 清洗节点1: 抖音指数处理 -->
<rect x="365" y="125" width="210" height="85" rx="8" fill="#ffffff" stroke="#16a34a" stroke-width="1.5"/>
<rect x="365" y="125" width="210" height="22" rx="8" fill="#dcfce7"/>
<text x="470" y="140" text-anchor="middle" font-size="11" font-weight="600" fill="#166534">抖音指数清洗</text>
<text x="470" y="158" text-anchor="middle" font-size="9" fill="#6b7280">搜索指数/综合指数/涨跌%</text>
<text x="470" y="172" text-anchor="middle" font-size="9" fill="#6b7280">关联词TOP10词性分类</text>
<text x="470" y="186" text-anchor="middle" font-size="9" fill="#6b7280">人群画像4维度结构化</text>
<text x="470" y="200" text-anchor="middle" font-size="9" fill="#dc2626">⚠️ 缺失标注"—"</text>

<!-- 清洗节点2: 小红书清洗 -->
<rect x="365" y="225" width="210" height="65" rx="8" fill="#ffffff" stroke="#16a34a" stroke-width="1.5"/>
<rect x="365" y="225" width="210" height="22" rx="8" fill="#dcfce7"/>
<text x="470" y="240" text-anchor="middle" font-size="11" font-weight="600" fill="#166534">小红书数据清洗</text>
<text x="470" y="258" text-anchor="middle" font-size="9" fill="#6b7280">热度/搜索总量/收藏/笔记/互动</text>
<text x="470" y="272" text-anchor="middle" font-size="9" fill="#6b7280">趋势符号📈📉➡️标准化</text>
<text x="470" y="286" text-anchor="middle" font-size="9" fill="#6b7280">爆款标题+点赞+规律提炼</text>

<!-- 清洗节点3: 客流清洗 -->
<rect x="365" y="305" width="210" height="85" rx="8" fill="#ffffff" stroke="#16a34a" stroke-width="1.5"/>
<rect x="365" y="305" width="210" height="22" rx="8" fill="#dcfce7"/>
<text x="470" y="320" text-anchor="middle" font-size="11" font-weight="600" fill="#166534">客流数据清洗</text>
<text x="470" y="338" text-anchor="middle" font-size="9" fill="#6b7280">散客小计=线上+线下+体验票</text>
<text x="470" y="352" text-anchor="middle" font-size="9" fill="#6b7280">渠道小计=研学+大客户+导游+旅行社</text>
<text x="470" y="366" text-anchor="middle" font-size="9" fill="#6b7280">天气标注/异常日标记⚠️</text>
<text x="470" y="380" text-anchor="middle" font-size="9" fill="#16a34a">CSV BOM去除处理</text>

<!-- 清洗节点4: 竞品关键词清洗 -->
<rect x="365" y="405" width="210" height="85" rx="8" fill="#ffffff" stroke="#16a34a" stroke-width="1.5"/>
<rect x="365" y="405" width="210" height="22" rx="8" fill="#dcfce7"/>
<text x="470" y="420" text-anchor="middle" font-size="11" font-weight="600" fill="#166534">竞品关键词清洗</text>
<text x="470" y="438" text-anchor="middle" font-size="9" fill="#6b7280">四平台数据合并（抖音/小红书/百度）</text>
<text x="470" y="452" text-anchor="middle" font-size="9" fill="#6b7280">7模块结构化（核心数据/分析/建议）</text>
<text x="470" y="466" text-anchor="middle" font-size="9" fill="#6b7280">人群画像4字段完整性校验</text>
<text x="470" y="480" text-anchor="middle" font-size="9" fill="#ea580c">Wiki归档验证 ⚠️4个缺失</text>

<!-- 清洗节点5: 穿越德化街清洗 -->
<rect x="365" y="505" width="210" height="80" rx="8" fill="#ffffff" stroke="#16a34a" stroke-width="1.5"/>
<rect x="365" y="505" width="210" height="22" rx="8" fill="#dcfce7"/>
<text x="470" y="520" text-anchor="middle" font-size="11" font-weight="600" fill="#166534">穿越德化街清洗</text>
<text x="470" y="538" text-anchor="middle" font-size="9" fill="#6b7280">场次/库存/售卖/上座率标准化</text>
<text x="470" y="552" text-anchor="middle" font-size="9" fill="#6b7280">1场→2场切换节点标注</text>
<text x="470" y="566" text-anchor="middle" font-size="9" fill="#6b7280">状态：爆满/良好/偏低 判定</text>
<text x="470" y="580" text-anchor="middle" font-size="9" fill="#6b7280">memory/穿越德化街_2026W17.csv ✅</text>

<!-- Arrow: 清洗 → 分析 -->
<line x1="590" y1="400" x2="630" y2="400" stroke="#16a34a" stroke-width="2" marker-end="url(#b-green)"/>

<!-- ===== STAGE 3: AI分析/决策 ===== -->
<rect x="640" y="75" width="260" height="730" rx="10" fill="#f5f3ff" stroke="#c4b5fd" stroke-width="2"/>
<text x="660" y="97" font-size="14" font-weight="700" fill="#6d28d9">Stage 3 · AI分析/决策</text>
<text x="660" y="112" font-size="10" fill="#6b7280">MiniMax M2.7 · karpathy-wiki</text>

<!-- 决策节点1: 抖音指数分析 -->
<rect x="655" y="125" width="230" height="90" rx="8" fill="#ffffff" stroke="#9333ea" stroke-width="1.5"/>
<rect x="655" y="125" width="230" height="22" rx="8" fill="#ede9fe"/>
<text x="770" y="140" text-anchor="middle" font-size="11" font-weight="600" fill="#7c3aed">抖音指数AI分析</text>
<text x="770" y="158" text-anchor="middle" font-size="9" fill="#6b7280">8景区综合指数排名分析</text>
<text x="770" y="172" text-anchor="middle" font-size="9" fill="#6b7280">头部松动/中部崛起/黑马判定</text>
<text x="770" y="186" text-anchor="middle" font-size="9" fill="#6b7280">电影小镇双指标趋势解读</text>
<text x="770" y="200" text-anchor="middle" font-size="9" fill="#6b7280">4板块：数据表+深度分析+格局+建议</text>

<!-- 决策节点2: 竞品关键词分析 -->
<rect x="655" y="230" width="230" height="100" rx="8" fill="#ffffff" stroke="#9333ea" stroke-width="1.5"/>
<rect x="655" y="230" width="230" height="22" rx="8" fill="#ede9fe"/>
<text x="770" y="245" text-anchor="middle" font-size="11" font-weight="600" fill="#7c3aed">竞品关键词深度分析</text>
<text x="770" y="263" text-anchor="middle" font-size="9" fill="#6b7280">四平台全维度（抖音/小红书/百度）</text>
<text x="770" y="277" text-anchor="middle" font-size="9" fill="#6b7280">7模块：数据快照/抖音/小红书/内容/百度/规律/借鉴</text>
<text x="770" y="291" text-anchor="middle" font-size="9" fill="#6b7280">人群画像4字段完整采集 ⚠️</text>
<text x="770" y="305" text-anchor="middle" font-size="9" fill="#6b7280">状态文件轮换 → 阿那亚→剑门关...</text>
<text x="770" y="319" text-anchor="middle" font-size="9" fill="#ea580c">Wiki归档强制 ✅新修复</text>

<!-- 决策节点3: 周度客流分析 -->
<rect x="655" y="345" width="230" height="90" rx="8" fill="#ffffff" stroke="#9333ea" stroke-width="1.5"/>
<rect x="655" y="345" width="230" height="22" rx="8" fill="#ede9fe"/>
<text x="770" y="360" text-anchor="middle" font-size="11" font-weight="600" fill="#7c3aed">周度客流AI分析</text>
<text x="770" y="378" text-anchor="middle" font-size="9" fill="#6b7280">W17: 14,392人 | 同比+55.9%</text>
<text x="770" y="392" text-anchor="middle" font-size="9" fill="#6b7280">YTD: 525,533 | 完成率34.3% | 领先+2.3pp</text>
<text x="770" y="406" text-anchor="middle" font-size="9" fill="#6b7280">散客58.3%/渠道41.7% 结构分析</text>
<text x="770" y="420" text-anchor="middle" font-size="9" fill="#6b7280">规律洞察：渠道集中/周末爆发/五一预警</text>

<!-- 决策节点4: 穿越德化街专项 -->
<rect x="655" y="450" width="230" height="90" rx="8" fill="#ffffff" stroke="#9333ea" stroke-width="1.5"/>
<rect x="655" y="450" width="230" height="22" rx="8" fill="#ede9fe"/>
<text x="770" y="465" text-anchor="middle" font-size="11" font-weight="600" fill="#7c3aed">穿越德化街决策引擎</text>
<text x="770" y="483" text-anchor="middle" font-size="9" fill="#6b7280">触发：评分异常→情绪负面→转化下滑</text>
<text x="770" y="497" text-anchor="middle" font-size="9" fill="#6b7280">综合上座率65.3%（W17）分析</text>
<text x="770" y="511" text-anchor="middle" font-size="9" fill="#6b7280">周四/周六爆满洞察 → 增场建议</text>
<text x="770" y="525" text-anchor="middle" font-size="9" fill="#16a34a">建议：平日特惠+差异化定价</text>

<!-- 决策节点5: LLM知识层 -->
<rect x="655" y="555" width="230" height="100" rx="8" fill="#ffffff" stroke="#9333ea" stroke-width="1.5"/>
<rect x="655" y="555" width="230" height="22" rx="8" fill="#ede9fe"/>
<text x="770" y="570" text-anchor="middle" font-size="11" font-weight="600" fill="#7c3aed">LLM Wiki知识层</text>
<text x="770" y="588" text-anchor="middle" font-size="9" fill="#6b7280">INGEST: 原始数据 → 结构化文档</text>
<text x="770" y="602" text-anchor="middle" font-size="9" fill="#6b7280">QUERY: 检索 → 决策依据</text>
<text x="770" y="616" text-anchor="middle" font-size="9" fill="#6b7280">LINT: 质量校验 → 漂移检测</text>
<text x="770" y="630" text-anchor="middle" font-size="9" fill="#6b7280">sources/ → concepts/ → entities/ → queries/</text>
<text x="770" y="644" text-anchor="middle" font-size="9" fill="#6b7280">llmwiki_ingest.py/lint.py/query.py</text>

<!-- 决策节点6: AI决策建议生成 -->
<rect x="655" y="670" width="230" height="90" rx="8" fill="#fef3c7" stroke="#f59e0b" stroke-width="1.5"/>
<rect x="655" y="670" width="230" height="22" rx="8" fill="#fef3c7"/>
<text x="770" y="685" text-anchor="middle" font-size="11" font-weight="600" fill="#b45309">AI决策建议生成</text>
<text x="770" y="703" text-anchor="middle" font-size="9" fill="#6b7280">①②③④编号建议 → 可执行</text>
<text x="770" y="717" text-anchor="middle" font-size="9" fill="#6b7280">竞品格局 → 电影小镇借鉴</text>
<text x="770" y="731" text-anchor="middle" font-size="9" fill="#6b7280">YTD预警（领先/落后pp）+ 五一预案</text>
<text x="770" y="745" text-anchor="middle" font-size="9" fill="#6b7280">铁律纠错：MEMORY.md反馈闭环</text>

<!-- Arrow: AI分析 → 输出 -->
<line x1="900" y1="400" x2="940" y2="400" stroke="#9333ea" stroke-width="2" marker-end="url(#b-purple)"/>

<!-- ===== STAGE 4: 输出/分发 ===== -->
<rect x="950" y="75" width="220" height="730" rx="10" fill="#ffffff" stroke="#d1d5db" stroke-width="2"/>
<text x="970" y="97" font-size="14" font-weight="700" fill="#374151">Stage 4 · 输出/分发</text>
<text x="970" y="112" font-size="10" fill="#6b7280">飞书卡片 · Wiki · GitHub</text>

<!-- 输出节点1: 飞书群推送 -->
<rect x="965" y="125" width="190" height="90" rx="8" fill="#dcfce7" stroke="#16a34a" stroke-width="1.5"/>
<rect x="965" y="125" width="190" height="22" rx="8" fill="#dcfce7"/>
<text x="1060" y="140" text-anchor="middle" font-size="11" font-weight="600" fill="#166534">飞书卡片 → 群</text>
<text x="1060" y="158" text-anchor="middle" font-size="9" fill="#6b7280">电影小镇群 oc_2581...</text>
<text x="1060" y="172" text-anchor="middle" font-size="9" fill="#6b7280">数据推送群 oc_f109...</text>
<text x="1060" y="186" text-anchor="middle" font-size="9" fill="#6b7280">schema 2.0 · elements[]</text>
<text x="1060" y="200" text-anchor="middle" font-size="9" fill="#6b7280">send_feishu_card.py</text>

<!-- 输出节点2: 私信回执 -->
<rect x="965" y="230" width="190" height="65" rx="8" fill="#dcfce7" stroke="#16a34a" stroke-width="1.5"/>
<rect x="965" y="230" width="190" height="22" rx="8" fill="#dcfce7"/>
<text x="1060" y="245" text-anchor="middle" font-size="11" font-weight="600" fill="#166534">私信回执 → 站长</text>
<text x="1060" y="263" text-anchor="middle" font-size="9" fill="#6b7280">ou_f308d672765ecf1be73a75eb5e5f0f48</text>
<text x="1060" y="277" text-anchor="middle" font-size="9" fill="#6b7280">Message ID回执 · 发送成功确认</text>
<text x="1060" y="291" text-anchor="middle" font-size="9" fill="#6b7280">格式：「【任务名】已发送，ID:xxx」</text>

<!-- 输出节点3: Wiki归档 -->
<rect x="965" y="310" width="190" height="90" rx="8" fill="#dcfce7" stroke="#16a34a" stroke-width="1.5"/>
<rect x="965" y="310" width="190" height="22" rx="8" fill="#dcfce7"/>
<text x="1060" y="325" text-anchor="middle" font-size="11" font-weight="600" fill="#166534">Wiki归档（强制 ✅）</text>
<text x="1060" y="343" text-anchor="middle" font-size="9" fill="#6b7280">竞品分析/*.md（10个已完成）</text>
<text x="1060" y="357" text-anchor="middle" font-size="9" fill="#ea580c">⚠️ 老君山/重渡沟/龙门/海昌 4个缺失</text>
<text x="1060" y="371" text-anchor="middle" font-size="9" fill="#6b7280">SOP/*.md · 历史数据/W*期-YYYYMMDD.md</text>
<text x="1060" y="385" text-anchor="middle" font-size="9" fill="#6b7280">W17期-20260427.md ✅</text>

<!-- 输出节点4: GitHub备份 -->
<rect x="965" y="415" width="190" height="75" rx="8" fill="#dcfce7" stroke="#16a34a" stroke-width="1.5"/>
<rect x="965" y="415" width="190" height="22" rx="8" fill="#dcfce7"/>
<text x="1060" y="430" text-anchor="middle" font-size="11" font-weight="600" fill="#166534">GitHub Vault备份</text>
<text x="1060" y="448" text-anchor="middle" font-size="9" fill="#6b7280">workspace/wiki/ 自动push</text>
<text x="1060" y="462" text-anchor="middle" font-size="9" fill="#6b7280">每日多次提交 · git vault backup</text>
<text x="1060" y="476" text-anchor="middle" font-size="9" fill="#6b7280">最新: 02020b5 12:35 ✅</text>

<!-- 输出节点5: MiniMax素材 -->
<rect x="965" y="505" width="190" height="75" rx="8" fill="#f0fdfa" stroke="#0891b2" stroke-width="1.5"/>
<rect x="965" y="505" width="190" height="22" rx="8" fill="#f0fdfa"/>
<text x="1060" y="520" text-anchor="middle" font-size="11" font-weight="600" fill="#0e7490">MiniMax素材生成</text>
<text x="1060" y="538" text-anchor="middle" font-size="9" fill="#6b7280">mmx image → 营销海报</text>
<text x="1060" y="552" text-anchor="middle" font-size="9" fill="#6b7280">mmx speech → 广播词/宣传语</text>
<text x="1060" y="566" text-anchor="middle" font-size="9" fill="#6b7280">mmx music → BGM/口号音乐</text>

<!-- 输出节点6: 知识层沉淀 -->
<rect x="965" y="595" width="190" height="75" rx="8" fill="#ede9fe" stroke="#a78bfa" stroke-width="1.5"/>
<rect x="965" y="595" width="190" height="22" rx="8" fill="#ede9fe"/>
<text x="1060" y="610" text-anchor="middle" font-size="11" font-weight="600" fill="#7c3aed">知识层沉淀</text>
<text x="1060" y="628" text-anchor="middle" font-size="9" fill="#6b7280">concepts/ · entities/ · queries/</text>
<text x="1060" y="642" text-anchor="middle" font-size="9" fill="#6b7280">INGEST自动化 → 决策依据积累</text>
<text x="1060" y="656" text-anchor="middle" font-size="9" fill="#6b7280">llmwiki_ingest.py 定期运行</text>

<!-- 输出节点7: Obsidian同步 -->
<rect x="965" y="685" width="190" height="75" rx="8" fill="#ede9fe" stroke="#a78bfa" stroke-width="1.5"/>
<rect x="965" y="685" width="190" height="22" rx="8" fill="#ede9fe"/>
<text x="1060" y="700" text-anchor="middle" font-size="11" font-weight="600" fill="#7c3aed">Obsidian Sync</text>
<text x="1060" y="718" text-anchor="middle" font-size="9" fill="#6b7280">sync_obsidian_daily.py</text>
<text x="1060" y="732" text-anchor="middle" font-size="9" fill="#6b7280">CSV → Wiki/knowledge/写入</text>
<text x="1060" y="746" text-anchor="middle" font-size="9" fill="#6b7280">建业电影小镇阶段性数据表.md</text>

<!-- Arrow: 输出 → 反馈 -->
<line x1="1170" y1="400" x2="1210" y2="400" stroke="#2563eb" stroke-width="2" marker-end="url(#b-blue)"/>

<!-- ===== STAGE 5: 反馈闭环 ===== -->
<rect x="1220" y="75" width="140" height="730" rx="10" fill="#fff7ed" stroke="#fed7aa" stroke-width="2"/>
<text x="1240" y="97" font-size="13" font-weight="700" fill="#92400e">Stage 5 · Feedback Loop</text>
<text x="1240" y="112" font-size="10" fill="#6b7280">站长确认→调整→优化</text>

<rect x="1230" y="125" width="110" height="60" rx="6" fill="#ffffff" stroke="#ea580c" stroke-width="1.5"/>
<text x="1285" y="145" text-anchor="middle" font-size="10" font-weight="600" fill="#c2410c">站长反馈</text>
<text x="1285" y="162" text-anchor="middle" font-size="9" fill="#6b7280">确认OK/纠错指令</text>
<text x="1285" y="175" text-anchor="middle" font-size="9" fill="#6b7280">「对/很好/就这样」</text>

<rect x="1230" y="200" width="110" height="60" rx="6" fill="#ffffff" stroke="#dc2626" stroke-width="1.5"/>
<text x="1285" y="220" text-anchor="middle" font-size="10" font-weight="600" fill="#dc2626">铁律纠错</text>
<text x="1285" y="237" text-anchor="middle" font-size="9" fill="#6b7280">MEMORY.md更新</text>
<text x="1285" y="250" text-anchor="middle" font-size="9" fill="#6b7280">「不对/停止/不要」</text>

<rect x="1230" y="275" width="110" height="60" rx="6" fill="#ffffff" stroke="#f59e0b" stroke-width="1.5"/>
<text x="1285" y="295" text-anchor="middle" font-size="10" font-weight="600" fill="#b45309">SOP更新</text>
<text x="1285" y="312" text-anchor="middle" font-size="9" fill="#6b7280">cron prompt修复</text>
<text x="1285" y="325" text-anchor="middle" font-size="9" fill="#6b7280">章节结构嵌入</text>

<rect x="1230" y="350" width="110" height="60" rx="6" fill="#ffffff" stroke="#0891b2" stroke-width="1.5"/>
<text x="1285" y="370" text-anchor="middle" font-size="10" font-weight="600" fill="#0e7490">Wiki补录</text>
<text x="1285" y="387" text-anchor="middle" font-size="9" fill="#6b7280">补录4个缺失的</text>
<text x="1285" y="400" text-anchor="middle" font-size="9" fill="#6b7280">竞品关键词档案</text>

<rect x="1230" y="425" width="110" height="60" rx="6" fill="#ffffff" stroke="#16a34a" stroke-width="1.5"/>
<text x="1285" y="445" text-anchor="middle" font-size="10" font-weight="600" fill="#16a34a">数据补录</text>
<text x="1285" y="462" text-anchor="middle" font-size="9" fill="#6b7280">4/20-4/26 W17补录</text>
<text x="1285" y="475" text-anchor="middle" font-size="9" fill="#6b7280">CSV手动更新</text>

<rect x="1230" y="500" width="110" height="60" rx="6" fill="#ffffff" stroke="#2563eb" stroke-width="1.5"/>
<text x="1285" y="520" text-anchor="middle" font-size="10" font-weight="600" fill="#2563eb">配置优化</text>
<text x="1285" y="537" text-anchor="middle" font-size="9" fill="#6b7280">热插拔配置层</text>
<text x="1285" y="550" text-anchor="middle" font-size="9" fill="#6b7280">项目切换复用</text>

<rect x="1230" y="575" width="110" height="60" rx="6" fill="#ffffff" stroke="#9333ea" stroke-width="1.5"/>
<text x="1285" y="595" text-anchor="middle" font-size="10" font-weight="600" fill="#7c3aed">知识层更新</text>
<text x="1285" y="612" text-anchor="middle" font-size="9" fill="#6b7280">INGEST新数据</text>
<text x="1285" y="625" text-anchor="middle" font-size="9" fill="#6b7280">→concepts/沉淀</text>

<rect x="1230" y="650" width="110" height="60" rx="6" fill="#fef3c7" stroke="#f59e0b" stroke-width="1.5"/>
<text x="1285" y="670" text-anchor="middle" font-size="10" font-weight="600" fill="#b45309">系统升级</text>
<text x="1285" y="687" text-anchor="middle" font-size="9" fill="#6b7280">OpenClaw更新</text>
<text x="1285" y="700" text-anchor="middle" font-size="9" fill="#6b7280">2026.4.25正式版</text>

<rect x="1230" y="725" width="110" height="60" rx="6" fill="#dcfce7" stroke="#16a34a" stroke-width="1.5"/>
<text x="1285" y="745" text-anchor="middle" font-size="10" font-weight="600" fill="#166534">GitHub同步</text>
<text x="1285" y="762" text-anchor="middle" font-size="9" fill="#6b7280">vault backup推送</text>
<text x="1285" y="775" text-anchor="middle" font-size="9" fill="#16a34a">自动完成 ✅</text>

<!-- FEEDBACK LOOP ARROW (Stage5 back to Stage1) -->
<path d="M 1290 835 Q 700 870 170 835" stroke="#ca8a04" stroke-width="2" fill="none" stroke-dasharray="6,3" marker-end="url(#b-yellow)"/>
<text x="700" y="860" text-anchor="middle" font-size="11" fill="#ca8a04" font-weight="600">反馈闭环 → 影响下一轮数据采集与分析决策</text>

<!-- LEGEND -->
<rect x="40" y="875" width="1320" height="20" rx="4" fill="#f9fafb" stroke="#e5e7eb" stroke-width="1"/>
<text x="55" y="889" font-size="9" fill="#6b7280">图例：</text>
<line x1="90" y1="885" x2="125" y2="885" stroke="#ea580c" stroke-width="1.5" marker-end="url(#b-orange)"/>
<text x="132" y="889" font-size="9" fill="#6b7280">数据采集</text>
<line x1="200" y1="885" x2="235" y2="885" stroke="#16a34a" stroke-width="1.5" marker-end="url(#b-green)"/>
<text x="242" y="889" font-size="9" fill="#6b7280">数据清洗</text>
<line x1="310" y1="885" x2="345" y2="885" stroke="#9333ea" stroke-width="1.5" marker-end="url(#b-purple)"/>
<text x="352" y="889" font-size="9" fill="#6b7280">AI分析</text>
<line x1="420" y1="885" x2="455" y2="885" stroke="#2563eb" stroke-width="1.5" marker-end="url(#b-blue)"/>
<text x="462" y="889" font-size="9" fill="#6b7280">输出分发</text>
<line x1="530" y1="885" x2="565" y2="885" stroke="#ca8a04" stroke-width="1.5" marker-end="url(#b-yellow)"/>
<text x="572" y="889" font-size="9" fill="#6b7280">反馈闭环</text>
<text x="650" y="889" font-size="9" fill="#6b7280">⚠️=需登录认证 | ✅=已完成 | ❌=需升级 | 虚线=反馈路径</text>
<text x="1050" y="889" font-size="9" fill="#94a3b8">v2.0 全链路数据流图 | 2026-04-27 | LiYa 佛龛</text>
</svg>